%TF.GenerationSoftware,KiCad,Pcbnew,10.0.3*%
%TF.CreationDate,2026-08-03T16:57:57-07:00*%
%TF.ProjectId,isolator,69736f6c-6174-46f7-922e-6b696361645f,rev?*%
%TF.SameCoordinates,Original*%
%TF.FileFunction,Copper,L2,Bot*%
%TF.FilePolarity,Positive*%
%FSLAX46Y46*%
G04 Gerber Fmt 4.6, Leading zero omitted, Abs format (unit mm)*
G04 Created by KiCad (PCBNEW 10.0.3) date 2026-08-03 16:57:57*
%MOMM*%
%LPD*%
G01*
G04 APERTURE LIST*
%TA.AperFunction,ComponentPad*%
%ADD10C,3.600000*%
%TD*%
%TA.AperFunction,ComponentPad*%
%ADD11C,2.000000*%
%TD*%
%TA.AperFunction,ComponentPad*%
%ADD12C,1.700000*%
%TD*%
%TA.AperFunction,ComponentPad*%
%ADD13C,1.800000*%
%TD*%
%TA.AperFunction,ComponentPad*%
%ADD14R,1.800000X1.800000*%
%TD*%
%TA.AperFunction,ViaPad*%
%ADD15C,0.800000*%
%TD*%
%TA.AperFunction,Conductor*%
%ADD16C,0.600000*%
%TD*%
%TA.AperFunction,Conductor*%
%ADD17C,0.500000*%
%TD*%
G04 APERTURE END LIST*
D10*
%TO.P,J1,1*%
%TO.N,+12V_K*%
X105500000Y-58000000D03*
%TD*%
%TO.P,J2,1*%
%TO.N,VOA*%
X105500000Y-63000000D03*
%TD*%
%TO.P,J3,1*%
%TO.N,VIB*%
X105500000Y-68000000D03*
%TD*%
%TO.P,J4,1*%
%TO.N,GND1*%
X105500000Y-73000000D03*
%TD*%
%TO.P,J5,1*%
%TO.N,+3V3*%
X144500000Y-58000000D03*
%TD*%
%TO.P,J6,1*%
%TO.N,VIA*%
X144500000Y-63000000D03*
%TD*%
%TO.P,J7,1*%
%TO.N,VOB*%
X144500000Y-68000000D03*
%TD*%
%TO.P,J8,1*%
%TO.N,GND2*%
X144500000Y-73000000D03*
%TD*%
D11*
%TO.P,U2,1*%
%TO.N,+5V_K*%
X109500000Y-55500000D03*
%TO.P,U2,2*%
%TO.N,GND1*%
X112040000Y-55500000D03*
%TO.P,U2,3*%
%TO.N,+12V_K*%
X114580000Y-55500000D03*
%TD*%
D12*
%TO.P,C1,1*%
%TO.N,+12V_K*%
X114580000Y-59500000D03*
%TO.P,C1,2*%
%TO.N,GND1*%
X112040000Y-59500000D03*
%TD*%
%TO.P,C2,1*%
%TO.N,+5V_K*%
X119500000Y-58000000D03*
%TO.P,C2,2*%
%TO.N,GND1*%
X119500000Y-60540000D03*
%TD*%
%TO.P,C3,1*%
%TO.N,+3V3*%
X131000000Y-58000000D03*
%TO.P,C3,2*%
%TO.N,GND2*%
X131000000Y-60540000D03*
%TD*%
%TO.P,R1,1*%
%TO.N,+5V_K*%
X121000000Y-76500000D03*
%TO.P,R1,2*%
%TO.N,LED_K*%
X113380000Y-76500000D03*
%TD*%
D13*
%TO.P,D1,1*%
%TO.N,LED_K*%
X111500000Y-76500000D03*
D14*
%TO.P,D1,2*%
%TO.N,GND1*%
X108960000Y-76500000D03*
%TD*%
D15*
%TO.N,VOA*%
X120600000Y-62365000D03*
%TO.N,VIB*%
X120600000Y-63635000D03*
%TD*%
%TO.N,+12V_K*%
D16*
X105500000Y-58000000D02*
X112500000Y-58000000D01*
X112500000Y-58000000D02*
X114580000Y-56800000D01*
X114580000Y-56800000D02*
X114580000Y-55500000D01*
%TO.N,+5V_K*%
D17*
X119500000Y-58000000D02*
X122600000Y-59000000D01*
X122600000Y-59000000D02*
X122600000Y-76500000D01*
X122600000Y-76500000D02*
X121000000Y-76500000D01*
%TO.N,VOA*%
X105500000Y-63000000D02*
X118300000Y-62365000D01*
X118300000Y-62365000D02*
X120600000Y-62365000D01*
%TO.N,VIB*%
X105500000Y-68000000D02*
X118300000Y-63635000D01*
X118300000Y-63635000D02*
X120600000Y-63635000D01*
%TO.N,GND2*%
X131000000Y-60540000D02*
X131000000Y-70000000D01*
X131000000Y-70000000D02*
X144500000Y-73000000D01*
%TD*%
M02*
