%TF.GenerationSoftware,KiCad,Pcbnew,10.0.3*%
%TF.CreationDate,2026-08-03T16:50:25-07:00*%
%TF.ProjectId,isolator,69736f6c-6174-46f7-922e-6b696361645f,rev?*%
%TF.SameCoordinates,Original*%
%TF.FileFunction,Drillmap*%
%TF.FilePolarity,Positive*%
%FSLAX45Y45*%
G04 Gerber Fmt 4.5, Leading zero omitted, Abs format (unit mm)*
G04 Created by KiCad (PCBNEW 10.0.3) date 2026-08-03 16:50:25*
%MOMM*%
%LPD*%
G01*
G04 APERTURE LIST*
%ADD10C,0.120000*%
%ADD11C,0.200000*%
%ADD12C,0.100000*%
%ADD13C,0.110000*%
%ADD14C,0.130000*%
%ADD15C,0.320000*%
G04 APERTURE END LIST*
D10*
X10000000Y-5000000D02*
X15000000Y-5000000D01*
X15000000Y-5000000D02*
X15000000Y-8200000D01*
X15000000Y-8200000D02*
X10000000Y-8200000D01*
X10000000Y-8200000D02*
X10000000Y-5000000D01*
D11*
D12*
X12040000Y-6216500D02*
X12080000Y-6256500D01*
X12080000Y-6216500D02*
X12040000Y-6256500D01*
X12040000Y-6343500D02*
X12080000Y-6383500D01*
X12080000Y-6343500D02*
X12040000Y-6383500D01*
X11244000Y-5950000D02*
G75*
G02*
X11164000Y-5950000I-40000J0D01*
G01*
X11164000Y-5950000D02*
G75*
G02*
X11244000Y-5950000I40000J0D01*
G01*
X11378000Y-7650000D02*
G75*
G02*
X11298000Y-7650000I-40000J0D01*
G01*
X11298000Y-7650000D02*
G75*
G02*
X11378000Y-7650000I40000J0D01*
G01*
X11498000Y-5950000D02*
G75*
G02*
X11418000Y-5950000I-40000J0D01*
G01*
X11418000Y-5950000D02*
G75*
G02*
X11498000Y-5950000I40000J0D01*
G01*
X11990000Y-5800000D02*
G75*
G02*
X11910000Y-5800000I-40000J0D01*
G01*
X11910000Y-5800000D02*
G75*
G02*
X11990000Y-5800000I40000J0D01*
G01*
X11990000Y-6054000D02*
G75*
G02*
X11910000Y-6054000I-40000J0D01*
G01*
X11910000Y-6054000D02*
G75*
G02*
X11990000Y-6054000I40000J0D01*
G01*
X12140000Y-7650000D02*
G75*
G02*
X12060000Y-7650000I-40000J0D01*
G01*
X12060000Y-7650000D02*
G75*
G02*
X12140000Y-7650000I40000J0D01*
G01*
X13140000Y-5800000D02*
G75*
G02*
X13060000Y-5800000I-40000J0D01*
G01*
X13060000Y-5800000D02*
G75*
G02*
X13140000Y-5800000I40000J0D01*
G01*
X13140000Y-6054000D02*
G75*
G02*
X13060000Y-6054000I-40000J0D01*
G01*
X13060000Y-6054000D02*
G75*
G02*
X13140000Y-6054000I40000J0D01*
G01*
X10896000Y-7605000D02*
X10896000Y-7695000D01*
X10851000Y-7650000D02*
X10941000Y-7650000D01*
X11150000Y-7605000D02*
X11150000Y-7695000D01*
X11105000Y-7650000D02*
X11195000Y-7650000D01*
D13*
X10988891Y-5588891D02*
X10988891Y-5511109D01*
X10911109Y-5511109D01*
X10911109Y-5588891D01*
X10988891Y-5588891D01*
X11242891Y-5588891D02*
X11242891Y-5511109D01*
X11165109Y-5511109D01*
X11165109Y-5588891D01*
X11242891Y-5588891D01*
X11496891Y-5588891D02*
X11496891Y-5511109D01*
X11419109Y-5511109D01*
X11419109Y-5588891D01*
X11496891Y-5588891D01*
D14*
X10550000Y-5865000D02*
X10615000Y-5800000D01*
X10550000Y-5735000D01*
X10485000Y-5800000D01*
X10550000Y-5865000D01*
X10550000Y-6365000D02*
X10615000Y-6300000D01*
X10550000Y-6235000D01*
X10485000Y-6300000D01*
X10550000Y-6365000D01*
X10550000Y-6865000D02*
X10615000Y-6800000D01*
X10550000Y-6735000D01*
X10485000Y-6800000D01*
X10550000Y-6865000D01*
X10550000Y-7365000D02*
X10615000Y-7300000D01*
X10550000Y-7235000D01*
X10485000Y-7300000D01*
X10550000Y-7365000D01*
X14450000Y-5865000D02*
X14515000Y-5800000D01*
X14450000Y-5735000D01*
X14385000Y-5800000D01*
X14450000Y-5865000D01*
X14450000Y-6365000D02*
X14515000Y-6300000D01*
X14450000Y-6235000D01*
X14385000Y-6300000D01*
X14450000Y-6365000D01*
X14450000Y-6865000D02*
X14515000Y-6800000D01*
X14450000Y-6735000D01*
X14385000Y-6800000D01*
X14450000Y-6865000D01*
X14450000Y-7365000D02*
X14515000Y-7300000D01*
X14450000Y-7235000D01*
X14385000Y-7300000D01*
X14450000Y-7365000D01*
D15*
X10190000Y-5190000D02*
X10510000Y-5510000D01*
X10510000Y-5190000D02*
X10190000Y-5510000D01*
X10510000Y-5350000D02*
G75*
G02*
X10190000Y-5350000I-160000J0D01*
G01*
X10190000Y-5350000D02*
G75*
G02*
X10510000Y-5350000I160000J0D01*
G01*
X10190000Y-7690000D02*
X10510000Y-8010000D01*
X10510000Y-7690000D02*
X10190000Y-8010000D01*
X10510000Y-7850000D02*
G75*
G02*
X10190000Y-7850000I-160000J0D01*
G01*
X10190000Y-7850000D02*
G75*
G02*
X10510000Y-7850000I160000J0D01*
G01*
X14490000Y-5190000D02*
X14810000Y-5510000D01*
X14810000Y-5190000D02*
X14490000Y-5510000D01*
X14810000Y-5350000D02*
G75*
G02*
X14490000Y-5350000I-160000J0D01*
G01*
X14490000Y-5350000D02*
G75*
G02*
X14810000Y-5350000I160000J0D01*
G01*
X14490000Y-7690000D02*
X14810000Y-8010000D01*
X14810000Y-7690000D02*
X14490000Y-8010000D01*
X14810000Y-7850000D02*
G75*
G02*
X14490000Y-7850000I-160000J0D01*
G01*
X14490000Y-7850000D02*
G75*
G02*
X14810000Y-7850000I160000J0D01*
G01*
D11*
X10254777Y-8517484D02*
X10254777Y-8317484D01*
X10254777Y-8317484D02*
X10302396Y-8317484D01*
X10302396Y-8317484D02*
X10330967Y-8327008D01*
X10330967Y-8327008D02*
X10350015Y-8346055D01*
X10350015Y-8346055D02*
X10359539Y-8365103D01*
X10359539Y-8365103D02*
X10369063Y-8403198D01*
X10369063Y-8403198D02*
X10369063Y-8431770D01*
X10369063Y-8431770D02*
X10359539Y-8469865D01*
X10359539Y-8469865D02*
X10350015Y-8488912D01*
X10350015Y-8488912D02*
X10330967Y-8507960D01*
X10330967Y-8507960D02*
X10302396Y-8517484D01*
X10302396Y-8517484D02*
X10254777Y-8517484D01*
X10454777Y-8517484D02*
X10454777Y-8384150D01*
X10454777Y-8422246D02*
X10464301Y-8403198D01*
X10464301Y-8403198D02*
X10473824Y-8393674D01*
X10473824Y-8393674D02*
X10492872Y-8384150D01*
X10492872Y-8384150D02*
X10511920Y-8384150D01*
X10578586Y-8517484D02*
X10578586Y-8384150D01*
X10578586Y-8317484D02*
X10569063Y-8327008D01*
X10569063Y-8327008D02*
X10578586Y-8336531D01*
X10578586Y-8336531D02*
X10588110Y-8327008D01*
X10588110Y-8327008D02*
X10578586Y-8317484D01*
X10578586Y-8317484D02*
X10578586Y-8336531D01*
X10702396Y-8517484D02*
X10683348Y-8507960D01*
X10683348Y-8507960D02*
X10673824Y-8488912D01*
X10673824Y-8488912D02*
X10673824Y-8317484D01*
X10807158Y-8517484D02*
X10788110Y-8507960D01*
X10788110Y-8507960D02*
X10778586Y-8488912D01*
X10778586Y-8488912D02*
X10778586Y-8317484D01*
X11035729Y-8517484D02*
X11035729Y-8317484D01*
X11035729Y-8317484D02*
X11102396Y-8460341D01*
X11102396Y-8460341D02*
X11169063Y-8317484D01*
X11169063Y-8317484D02*
X11169063Y-8517484D01*
X11350015Y-8517484D02*
X11350015Y-8412722D01*
X11350015Y-8412722D02*
X11340491Y-8393674D01*
X11340491Y-8393674D02*
X11321443Y-8384150D01*
X11321443Y-8384150D02*
X11283348Y-8384150D01*
X11283348Y-8384150D02*
X11264301Y-8393674D01*
X11350015Y-8507960D02*
X11330967Y-8517484D01*
X11330967Y-8517484D02*
X11283348Y-8517484D01*
X11283348Y-8517484D02*
X11264301Y-8507960D01*
X11264301Y-8507960D02*
X11254777Y-8488912D01*
X11254777Y-8488912D02*
X11254777Y-8469865D01*
X11254777Y-8469865D02*
X11264301Y-8450817D01*
X11264301Y-8450817D02*
X11283348Y-8441293D01*
X11283348Y-8441293D02*
X11330967Y-8441293D01*
X11330967Y-8441293D02*
X11350015Y-8431770D01*
X11445253Y-8384150D02*
X11445253Y-8584150D01*
X11445253Y-8393674D02*
X11464301Y-8384150D01*
X11464301Y-8384150D02*
X11502396Y-8384150D01*
X11502396Y-8384150D02*
X11521443Y-8393674D01*
X11521443Y-8393674D02*
X11530967Y-8403198D01*
X11530967Y-8403198D02*
X11540491Y-8422246D01*
X11540491Y-8422246D02*
X11540491Y-8479389D01*
X11540491Y-8479389D02*
X11530967Y-8498436D01*
X11530967Y-8498436D02*
X11521443Y-8507960D01*
X11521443Y-8507960D02*
X11502396Y-8517484D01*
X11502396Y-8517484D02*
X11464301Y-8517484D01*
X11464301Y-8517484D02*
X11445253Y-8507960D01*
X11626205Y-8498436D02*
X11635729Y-8507960D01*
X11635729Y-8507960D02*
X11626205Y-8517484D01*
X11626205Y-8517484D02*
X11616682Y-8507960D01*
X11616682Y-8507960D02*
X11626205Y-8498436D01*
X11626205Y-8498436D02*
X11626205Y-8517484D01*
X11626205Y-8393674D02*
X11635729Y-8403198D01*
X11635729Y-8403198D02*
X11626205Y-8412722D01*
X11626205Y-8412722D02*
X11616682Y-8403198D01*
X11616682Y-8403198D02*
X11626205Y-8393674D01*
X11626205Y-8393674D02*
X11626205Y-8412722D01*
D12*
X9954000Y-8826000D02*
X9994000Y-8866000D01*
X9994000Y-8826000D02*
X9954000Y-8866000D01*
D11*
X10292872Y-8737484D02*
X10311920Y-8737484D01*
X10311920Y-8737484D02*
X10330967Y-8747008D01*
X10330967Y-8747008D02*
X10340491Y-8756531D01*
X10340491Y-8756531D02*
X10350015Y-8775579D01*
X10350015Y-8775579D02*
X10359539Y-8813674D01*
X10359539Y-8813674D02*
X10359539Y-8861293D01*
X10359539Y-8861293D02*
X10350015Y-8899389D01*
X10350015Y-8899389D02*
X10340491Y-8918436D01*
X10340491Y-8918436D02*
X10330967Y-8927960D01*
X10330967Y-8927960D02*
X10311920Y-8937484D01*
X10311920Y-8937484D02*
X10292872Y-8937484D01*
X10292872Y-8937484D02*
X10273824Y-8927960D01*
X10273824Y-8927960D02*
X10264301Y-8918436D01*
X10264301Y-8918436D02*
X10254777Y-8899389D01*
X10254777Y-8899389D02*
X10245253Y-8861293D01*
X10245253Y-8861293D02*
X10245253Y-8813674D01*
X10245253Y-8813674D02*
X10254777Y-8775579D01*
X10254777Y-8775579D02*
X10264301Y-8756531D01*
X10264301Y-8756531D02*
X10273824Y-8747008D01*
X10273824Y-8747008D02*
X10292872Y-8737484D01*
X10445253Y-8918436D02*
X10454777Y-8927960D01*
X10454777Y-8927960D02*
X10445253Y-8937484D01*
X10445253Y-8937484D02*
X10435729Y-8927960D01*
X10435729Y-8927960D02*
X10445253Y-8918436D01*
X10445253Y-8918436D02*
X10445253Y-8937484D01*
X10626205Y-8804150D02*
X10626205Y-8937484D01*
X10578586Y-8727960D02*
X10530967Y-8870817D01*
X10530967Y-8870817D02*
X10654777Y-8870817D01*
X10769063Y-8737484D02*
X10788110Y-8737484D01*
X10788110Y-8737484D02*
X10807158Y-8747008D01*
X10807158Y-8747008D02*
X10816682Y-8756531D01*
X10816682Y-8756531D02*
X10826205Y-8775579D01*
X10826205Y-8775579D02*
X10835729Y-8813674D01*
X10835729Y-8813674D02*
X10835729Y-8861293D01*
X10835729Y-8861293D02*
X10826205Y-8899389D01*
X10826205Y-8899389D02*
X10816682Y-8918436D01*
X10816682Y-8918436D02*
X10807158Y-8927960D01*
X10807158Y-8927960D02*
X10788110Y-8937484D01*
X10788110Y-8937484D02*
X10769063Y-8937484D01*
X10769063Y-8937484D02*
X10750015Y-8927960D01*
X10750015Y-8927960D02*
X10740491Y-8918436D01*
X10740491Y-8918436D02*
X10730967Y-8899389D01*
X10730967Y-8899389D02*
X10721444Y-8861293D01*
X10721444Y-8861293D02*
X10721444Y-8813674D01*
X10721444Y-8813674D02*
X10730967Y-8775579D01*
X10730967Y-8775579D02*
X10740491Y-8756531D01*
X10740491Y-8756531D02*
X10750015Y-8747008D01*
X10750015Y-8747008D02*
X10769063Y-8737484D01*
X10959539Y-8737484D02*
X10978586Y-8737484D01*
X10978586Y-8737484D02*
X10997634Y-8747008D01*
X10997634Y-8747008D02*
X11007158Y-8756531D01*
X11007158Y-8756531D02*
X11016682Y-8775579D01*
X11016682Y-8775579D02*
X11026205Y-8813674D01*
X11026205Y-8813674D02*
X11026205Y-8861293D01*
X11026205Y-8861293D02*
X11016682Y-8899389D01*
X11016682Y-8899389D02*
X11007158Y-8918436D01*
X11007158Y-8918436D02*
X10997634Y-8927960D01*
X10997634Y-8927960D02*
X10978586Y-8937484D01*
X10978586Y-8937484D02*
X10959539Y-8937484D01*
X10959539Y-8937484D02*
X10940491Y-8927960D01*
X10940491Y-8927960D02*
X10930967Y-8918436D01*
X10930967Y-8918436D02*
X10921444Y-8899389D01*
X10921444Y-8899389D02*
X10911920Y-8861293D01*
X10911920Y-8861293D02*
X10911920Y-8813674D01*
X10911920Y-8813674D02*
X10921444Y-8775579D01*
X10921444Y-8775579D02*
X10930967Y-8756531D01*
X10930967Y-8756531D02*
X10940491Y-8747008D01*
X10940491Y-8747008D02*
X10959539Y-8737484D01*
X11111920Y-8937484D02*
X11111920Y-8804150D01*
X11111920Y-8823198D02*
X11121444Y-8813674D01*
X11121444Y-8813674D02*
X11140491Y-8804150D01*
X11140491Y-8804150D02*
X11169063Y-8804150D01*
X11169063Y-8804150D02*
X11188110Y-8813674D01*
X11188110Y-8813674D02*
X11197634Y-8832722D01*
X11197634Y-8832722D02*
X11197634Y-8937484D01*
X11197634Y-8832722D02*
X11207158Y-8813674D01*
X11207158Y-8813674D02*
X11226205Y-8804150D01*
X11226205Y-8804150D02*
X11254777Y-8804150D01*
X11254777Y-8804150D02*
X11273824Y-8813674D01*
X11273824Y-8813674D02*
X11283348Y-8832722D01*
X11283348Y-8832722D02*
X11283348Y-8937484D01*
X11378586Y-8937484D02*
X11378586Y-8804150D01*
X11378586Y-8823198D02*
X11388110Y-8813674D01*
X11388110Y-8813674D02*
X11407158Y-8804150D01*
X11407158Y-8804150D02*
X11435729Y-8804150D01*
X11435729Y-8804150D02*
X11454777Y-8813674D01*
X11454777Y-8813674D02*
X11464301Y-8832722D01*
X11464301Y-8832722D02*
X11464301Y-8937484D01*
X11464301Y-8832722D02*
X11473824Y-8813674D01*
X11473824Y-8813674D02*
X11492872Y-8804150D01*
X11492872Y-8804150D02*
X11521443Y-8804150D01*
X11521443Y-8804150D02*
X11540491Y-8813674D01*
X11540491Y-8813674D02*
X11550015Y-8832722D01*
X11550015Y-8832722D02*
X11550015Y-8937484D01*
X11940491Y-8727960D02*
X11769063Y-8985103D01*
X12197634Y-8737484D02*
X12216682Y-8737484D01*
X12216682Y-8737484D02*
X12235729Y-8747008D01*
X12235729Y-8747008D02*
X12245253Y-8756531D01*
X12245253Y-8756531D02*
X12254777Y-8775579D01*
X12254777Y-8775579D02*
X12264301Y-8813674D01*
X12264301Y-8813674D02*
X12264301Y-8861293D01*
X12264301Y-8861293D02*
X12254777Y-8899389D01*
X12254777Y-8899389D02*
X12245253Y-8918436D01*
X12245253Y-8918436D02*
X12235729Y-8927960D01*
X12235729Y-8927960D02*
X12216682Y-8937484D01*
X12216682Y-8937484D02*
X12197634Y-8937484D01*
X12197634Y-8937484D02*
X12178586Y-8927960D01*
X12178586Y-8927960D02*
X12169063Y-8918436D01*
X12169063Y-8918436D02*
X12159539Y-8899389D01*
X12159539Y-8899389D02*
X12150015Y-8861293D01*
X12150015Y-8861293D02*
X12150015Y-8813674D01*
X12150015Y-8813674D02*
X12159539Y-8775579D01*
X12159539Y-8775579D02*
X12169063Y-8756531D01*
X12169063Y-8756531D02*
X12178586Y-8747008D01*
X12178586Y-8747008D02*
X12197634Y-8737484D01*
X12350015Y-8918436D02*
X12359539Y-8927960D01*
X12359539Y-8927960D02*
X12350015Y-8937484D01*
X12350015Y-8937484D02*
X12340491Y-8927960D01*
X12340491Y-8927960D02*
X12350015Y-8918436D01*
X12350015Y-8918436D02*
X12350015Y-8937484D01*
X12483348Y-8737484D02*
X12502396Y-8737484D01*
X12502396Y-8737484D02*
X12521444Y-8747008D01*
X12521444Y-8747008D02*
X12530967Y-8756531D01*
X12530967Y-8756531D02*
X12540491Y-8775579D01*
X12540491Y-8775579D02*
X12550015Y-8813674D01*
X12550015Y-8813674D02*
X12550015Y-8861293D01*
X12550015Y-8861293D02*
X12540491Y-8899389D01*
X12540491Y-8899389D02*
X12530967Y-8918436D01*
X12530967Y-8918436D02*
X12521444Y-8927960D01*
X12521444Y-8927960D02*
X12502396Y-8937484D01*
X12502396Y-8937484D02*
X12483348Y-8937484D01*
X12483348Y-8937484D02*
X12464301Y-8927960D01*
X12464301Y-8927960D02*
X12454777Y-8918436D01*
X12454777Y-8918436D02*
X12445253Y-8899389D01*
X12445253Y-8899389D02*
X12435729Y-8861293D01*
X12435729Y-8861293D02*
X12435729Y-8813674D01*
X12435729Y-8813674D02*
X12445253Y-8775579D01*
X12445253Y-8775579D02*
X12454777Y-8756531D01*
X12454777Y-8756531D02*
X12464301Y-8747008D01*
X12464301Y-8747008D02*
X12483348Y-8737484D01*
X12740491Y-8937484D02*
X12626206Y-8937484D01*
X12683348Y-8937484D02*
X12683348Y-8737484D01*
X12683348Y-8737484D02*
X12664301Y-8766055D01*
X12664301Y-8766055D02*
X12645253Y-8785103D01*
X12645253Y-8785103D02*
X12626206Y-8794627D01*
X12921444Y-8737484D02*
X12826206Y-8737484D01*
X12826206Y-8737484D02*
X12816682Y-8832722D01*
X12816682Y-8832722D02*
X12826206Y-8823198D01*
X12826206Y-8823198D02*
X12845253Y-8813674D01*
X12845253Y-8813674D02*
X12892872Y-8813674D01*
X12892872Y-8813674D02*
X12911920Y-8823198D01*
X12911920Y-8823198D02*
X12921444Y-8832722D01*
X12921444Y-8832722D02*
X12930967Y-8851770D01*
X12930967Y-8851770D02*
X12930967Y-8899389D01*
X12930967Y-8899389D02*
X12921444Y-8918436D01*
X12921444Y-8918436D02*
X12911920Y-8927960D01*
X12911920Y-8927960D02*
X12892872Y-8937484D01*
X12892872Y-8937484D02*
X12845253Y-8937484D01*
X12845253Y-8937484D02*
X12826206Y-8927960D01*
X12826206Y-8927960D02*
X12816682Y-8918436D01*
X12997634Y-8737484D02*
X13130967Y-8737484D01*
X13130967Y-8737484D02*
X13045253Y-8937484D01*
X13197634Y-8737484D02*
X13197634Y-8775579D01*
X13273825Y-8737484D02*
X13273825Y-8775579D01*
X13569063Y-9013674D02*
X13559539Y-9004150D01*
X13559539Y-9004150D02*
X13540491Y-8975579D01*
X13540491Y-8975579D02*
X13530968Y-8956531D01*
X13530968Y-8956531D02*
X13521444Y-8927960D01*
X13521444Y-8927960D02*
X13511920Y-8880341D01*
X13511920Y-8880341D02*
X13511920Y-8842246D01*
X13511920Y-8842246D02*
X13521444Y-8794627D01*
X13521444Y-8794627D02*
X13530968Y-8766055D01*
X13530968Y-8766055D02*
X13540491Y-8747008D01*
X13540491Y-8747008D02*
X13559539Y-8718436D01*
X13559539Y-8718436D02*
X13569063Y-8708912D01*
X13635729Y-8756531D02*
X13645253Y-8747008D01*
X13645253Y-8747008D02*
X13664301Y-8737484D01*
X13664301Y-8737484D02*
X13711920Y-8737484D01*
X13711920Y-8737484D02*
X13730968Y-8747008D01*
X13730968Y-8747008D02*
X13740491Y-8756531D01*
X13740491Y-8756531D02*
X13750015Y-8775579D01*
X13750015Y-8775579D02*
X13750015Y-8794627D01*
X13750015Y-8794627D02*
X13740491Y-8823198D01*
X13740491Y-8823198D02*
X13626206Y-8937484D01*
X13626206Y-8937484D02*
X13750015Y-8937484D01*
X13988110Y-8937484D02*
X13988110Y-8737484D01*
X14073825Y-8937484D02*
X14073825Y-8832722D01*
X14073825Y-8832722D02*
X14064301Y-8813674D01*
X14064301Y-8813674D02*
X14045253Y-8804150D01*
X14045253Y-8804150D02*
X14016682Y-8804150D01*
X14016682Y-8804150D02*
X13997634Y-8813674D01*
X13997634Y-8813674D02*
X13988110Y-8823198D01*
X14197634Y-8937484D02*
X14178587Y-8927960D01*
X14178587Y-8927960D02*
X14169063Y-8918436D01*
X14169063Y-8918436D02*
X14159539Y-8899389D01*
X14159539Y-8899389D02*
X14159539Y-8842246D01*
X14159539Y-8842246D02*
X14169063Y-8823198D01*
X14169063Y-8823198D02*
X14178587Y-8813674D01*
X14178587Y-8813674D02*
X14197634Y-8804150D01*
X14197634Y-8804150D02*
X14226206Y-8804150D01*
X14226206Y-8804150D02*
X14245253Y-8813674D01*
X14245253Y-8813674D02*
X14254777Y-8823198D01*
X14254777Y-8823198D02*
X14264301Y-8842246D01*
X14264301Y-8842246D02*
X14264301Y-8899389D01*
X14264301Y-8899389D02*
X14254777Y-8918436D01*
X14254777Y-8918436D02*
X14245253Y-8927960D01*
X14245253Y-8927960D02*
X14226206Y-8937484D01*
X14226206Y-8937484D02*
X14197634Y-8937484D01*
X14378587Y-8937484D02*
X14359539Y-8927960D01*
X14359539Y-8927960D02*
X14350015Y-8908912D01*
X14350015Y-8908912D02*
X14350015Y-8737484D01*
X14530968Y-8927960D02*
X14511920Y-8937484D01*
X14511920Y-8937484D02*
X14473825Y-8937484D01*
X14473825Y-8937484D02*
X14454777Y-8927960D01*
X14454777Y-8927960D02*
X14445253Y-8908912D01*
X14445253Y-8908912D02*
X14445253Y-8832722D01*
X14445253Y-8832722D02*
X14454777Y-8813674D01*
X14454777Y-8813674D02*
X14473825Y-8804150D01*
X14473825Y-8804150D02*
X14511920Y-8804150D01*
X14511920Y-8804150D02*
X14530968Y-8813674D01*
X14530968Y-8813674D02*
X14540491Y-8832722D01*
X14540491Y-8832722D02*
X14540491Y-8851770D01*
X14540491Y-8851770D02*
X14445253Y-8870817D01*
X14616682Y-8927960D02*
X14635730Y-8937484D01*
X14635730Y-8937484D02*
X14673825Y-8937484D01*
X14673825Y-8937484D02*
X14692872Y-8927960D01*
X14692872Y-8927960D02*
X14702396Y-8908912D01*
X14702396Y-8908912D02*
X14702396Y-8899389D01*
X14702396Y-8899389D02*
X14692872Y-8880341D01*
X14692872Y-8880341D02*
X14673825Y-8870817D01*
X14673825Y-8870817D02*
X14645253Y-8870817D01*
X14645253Y-8870817D02*
X14626206Y-8861293D01*
X14626206Y-8861293D02*
X14616682Y-8842246D01*
X14616682Y-8842246D02*
X14616682Y-8832722D01*
X14616682Y-8832722D02*
X14626206Y-8813674D01*
X14626206Y-8813674D02*
X14645253Y-8804150D01*
X14645253Y-8804150D02*
X14673825Y-8804150D01*
X14673825Y-8804150D02*
X14692872Y-8813674D01*
X14769063Y-9013674D02*
X14778587Y-9004150D01*
X14778587Y-9004150D02*
X14797634Y-8975579D01*
X14797634Y-8975579D02*
X14807158Y-8956531D01*
X14807158Y-8956531D02*
X14816682Y-8927960D01*
X14816682Y-8927960D02*
X14826206Y-8880341D01*
X14826206Y-8880341D02*
X14826206Y-8842246D01*
X14826206Y-8842246D02*
X14816682Y-8794627D01*
X14816682Y-8794627D02*
X14807158Y-8766055D01*
X14807158Y-8766055D02*
X14797634Y-8747008D01*
X14797634Y-8747008D02*
X14778587Y-8718436D01*
X14778587Y-8718436D02*
X14769063Y-8708912D01*
D12*
X9994000Y-9110000D02*
G75*
G02*
X9914000Y-9110000I-40000J0D01*
G01*
X9914000Y-9110000D02*
G75*
G02*
X9994000Y-9110000I40000J0D01*
G01*
D11*
X10292872Y-9001484D02*
X10311920Y-9001484D01*
X10311920Y-9001484D02*
X10330967Y-9011008D01*
X10330967Y-9011008D02*
X10340491Y-9020531D01*
X10340491Y-9020531D02*
X10350015Y-9039579D01*
X10350015Y-9039579D02*
X10359539Y-9077674D01*
X10359539Y-9077674D02*
X10359539Y-9125293D01*
X10359539Y-9125293D02*
X10350015Y-9163389D01*
X10350015Y-9163389D02*
X10340491Y-9182436D01*
X10340491Y-9182436D02*
X10330967Y-9191960D01*
X10330967Y-9191960D02*
X10311920Y-9201484D01*
X10311920Y-9201484D02*
X10292872Y-9201484D01*
X10292872Y-9201484D02*
X10273824Y-9191960D01*
X10273824Y-9191960D02*
X10264301Y-9182436D01*
X10264301Y-9182436D02*
X10254777Y-9163389D01*
X10254777Y-9163389D02*
X10245253Y-9125293D01*
X10245253Y-9125293D02*
X10245253Y-9077674D01*
X10245253Y-9077674D02*
X10254777Y-9039579D01*
X10254777Y-9039579D02*
X10264301Y-9020531D01*
X10264301Y-9020531D02*
X10273824Y-9011008D01*
X10273824Y-9011008D02*
X10292872Y-9001484D01*
X10445253Y-9182436D02*
X10454777Y-9191960D01*
X10454777Y-9191960D02*
X10445253Y-9201484D01*
X10445253Y-9201484D02*
X10435729Y-9191960D01*
X10435729Y-9191960D02*
X10445253Y-9182436D01*
X10445253Y-9182436D02*
X10445253Y-9201484D01*
X10569063Y-9087198D02*
X10550015Y-9077674D01*
X10550015Y-9077674D02*
X10540491Y-9068150D01*
X10540491Y-9068150D02*
X10530967Y-9049103D01*
X10530967Y-9049103D02*
X10530967Y-9039579D01*
X10530967Y-9039579D02*
X10540491Y-9020531D01*
X10540491Y-9020531D02*
X10550015Y-9011008D01*
X10550015Y-9011008D02*
X10569063Y-9001484D01*
X10569063Y-9001484D02*
X10607158Y-9001484D01*
X10607158Y-9001484D02*
X10626205Y-9011008D01*
X10626205Y-9011008D02*
X10635729Y-9020531D01*
X10635729Y-9020531D02*
X10645253Y-9039579D01*
X10645253Y-9039579D02*
X10645253Y-9049103D01*
X10645253Y-9049103D02*
X10635729Y-9068150D01*
X10635729Y-9068150D02*
X10626205Y-9077674D01*
X10626205Y-9077674D02*
X10607158Y-9087198D01*
X10607158Y-9087198D02*
X10569063Y-9087198D01*
X10569063Y-9087198D02*
X10550015Y-9096722D01*
X10550015Y-9096722D02*
X10540491Y-9106246D01*
X10540491Y-9106246D02*
X10530967Y-9125293D01*
X10530967Y-9125293D02*
X10530967Y-9163389D01*
X10530967Y-9163389D02*
X10540491Y-9182436D01*
X10540491Y-9182436D02*
X10550015Y-9191960D01*
X10550015Y-9191960D02*
X10569063Y-9201484D01*
X10569063Y-9201484D02*
X10607158Y-9201484D01*
X10607158Y-9201484D02*
X10626205Y-9191960D01*
X10626205Y-9191960D02*
X10635729Y-9182436D01*
X10635729Y-9182436D02*
X10645253Y-9163389D01*
X10645253Y-9163389D02*
X10645253Y-9125293D01*
X10645253Y-9125293D02*
X10635729Y-9106246D01*
X10635729Y-9106246D02*
X10626205Y-9096722D01*
X10626205Y-9096722D02*
X10607158Y-9087198D01*
X10769063Y-9001484D02*
X10788110Y-9001484D01*
X10788110Y-9001484D02*
X10807158Y-9011008D01*
X10807158Y-9011008D02*
X10816682Y-9020531D01*
X10816682Y-9020531D02*
X10826205Y-9039579D01*
X10826205Y-9039579D02*
X10835729Y-9077674D01*
X10835729Y-9077674D02*
X10835729Y-9125293D01*
X10835729Y-9125293D02*
X10826205Y-9163389D01*
X10826205Y-9163389D02*
X10816682Y-9182436D01*
X10816682Y-9182436D02*
X10807158Y-9191960D01*
X10807158Y-9191960D02*
X10788110Y-9201484D01*
X10788110Y-9201484D02*
X10769063Y-9201484D01*
X10769063Y-9201484D02*
X10750015Y-9191960D01*
X10750015Y-9191960D02*
X10740491Y-9182436D01*
X10740491Y-9182436D02*
X10730967Y-9163389D01*
X10730967Y-9163389D02*
X10721444Y-9125293D01*
X10721444Y-9125293D02*
X10721444Y-9077674D01*
X10721444Y-9077674D02*
X10730967Y-9039579D01*
X10730967Y-9039579D02*
X10740491Y-9020531D01*
X10740491Y-9020531D02*
X10750015Y-9011008D01*
X10750015Y-9011008D02*
X10769063Y-9001484D01*
X10959539Y-9001484D02*
X10978586Y-9001484D01*
X10978586Y-9001484D02*
X10997634Y-9011008D01*
X10997634Y-9011008D02*
X11007158Y-9020531D01*
X11007158Y-9020531D02*
X11016682Y-9039579D01*
X11016682Y-9039579D02*
X11026205Y-9077674D01*
X11026205Y-9077674D02*
X11026205Y-9125293D01*
X11026205Y-9125293D02*
X11016682Y-9163389D01*
X11016682Y-9163389D02*
X11007158Y-9182436D01*
X11007158Y-9182436D02*
X10997634Y-9191960D01*
X10997634Y-9191960D02*
X10978586Y-9201484D01*
X10978586Y-9201484D02*
X10959539Y-9201484D01*
X10959539Y-9201484D02*
X10940491Y-9191960D01*
X10940491Y-9191960D02*
X10930967Y-9182436D01*
X10930967Y-9182436D02*
X10921444Y-9163389D01*
X10921444Y-9163389D02*
X10911920Y-9125293D01*
X10911920Y-9125293D02*
X10911920Y-9077674D01*
X10911920Y-9077674D02*
X10921444Y-9039579D01*
X10921444Y-9039579D02*
X10930967Y-9020531D01*
X10930967Y-9020531D02*
X10940491Y-9011008D01*
X10940491Y-9011008D02*
X10959539Y-9001484D01*
X11111920Y-9201484D02*
X11111920Y-9068150D01*
X11111920Y-9087198D02*
X11121444Y-9077674D01*
X11121444Y-9077674D02*
X11140491Y-9068150D01*
X11140491Y-9068150D02*
X11169063Y-9068150D01*
X11169063Y-9068150D02*
X11188110Y-9077674D01*
X11188110Y-9077674D02*
X11197634Y-9096722D01*
X11197634Y-9096722D02*
X11197634Y-9201484D01*
X11197634Y-9096722D02*
X11207158Y-9077674D01*
X11207158Y-9077674D02*
X11226205Y-9068150D01*
X11226205Y-9068150D02*
X11254777Y-9068150D01*
X11254777Y-9068150D02*
X11273824Y-9077674D01*
X11273824Y-9077674D02*
X11283348Y-9096722D01*
X11283348Y-9096722D02*
X11283348Y-9201484D01*
X11378586Y-9201484D02*
X11378586Y-9068150D01*
X11378586Y-9087198D02*
X11388110Y-9077674D01*
X11388110Y-9077674D02*
X11407158Y-9068150D01*
X11407158Y-9068150D02*
X11435729Y-9068150D01*
X11435729Y-9068150D02*
X11454777Y-9077674D01*
X11454777Y-9077674D02*
X11464301Y-9096722D01*
X11464301Y-9096722D02*
X11464301Y-9201484D01*
X11464301Y-9096722D02*
X11473824Y-9077674D01*
X11473824Y-9077674D02*
X11492872Y-9068150D01*
X11492872Y-9068150D02*
X11521443Y-9068150D01*
X11521443Y-9068150D02*
X11540491Y-9077674D01*
X11540491Y-9077674D02*
X11550015Y-9096722D01*
X11550015Y-9096722D02*
X11550015Y-9201484D01*
X11940491Y-8991960D02*
X11769063Y-9249103D01*
X12197634Y-9001484D02*
X12216682Y-9001484D01*
X12216682Y-9001484D02*
X12235729Y-9011008D01*
X12235729Y-9011008D02*
X12245253Y-9020531D01*
X12245253Y-9020531D02*
X12254777Y-9039579D01*
X12254777Y-9039579D02*
X12264301Y-9077674D01*
X12264301Y-9077674D02*
X12264301Y-9125293D01*
X12264301Y-9125293D02*
X12254777Y-9163389D01*
X12254777Y-9163389D02*
X12245253Y-9182436D01*
X12245253Y-9182436D02*
X12235729Y-9191960D01*
X12235729Y-9191960D02*
X12216682Y-9201484D01*
X12216682Y-9201484D02*
X12197634Y-9201484D01*
X12197634Y-9201484D02*
X12178586Y-9191960D01*
X12178586Y-9191960D02*
X12169063Y-9182436D01*
X12169063Y-9182436D02*
X12159539Y-9163389D01*
X12159539Y-9163389D02*
X12150015Y-9125293D01*
X12150015Y-9125293D02*
X12150015Y-9077674D01*
X12150015Y-9077674D02*
X12159539Y-9039579D01*
X12159539Y-9039579D02*
X12169063Y-9020531D01*
X12169063Y-9020531D02*
X12178586Y-9011008D01*
X12178586Y-9011008D02*
X12197634Y-9001484D01*
X12350015Y-9182436D02*
X12359539Y-9191960D01*
X12359539Y-9191960D02*
X12350015Y-9201484D01*
X12350015Y-9201484D02*
X12340491Y-9191960D01*
X12340491Y-9191960D02*
X12350015Y-9182436D01*
X12350015Y-9182436D02*
X12350015Y-9201484D01*
X12483348Y-9001484D02*
X12502396Y-9001484D01*
X12502396Y-9001484D02*
X12521444Y-9011008D01*
X12521444Y-9011008D02*
X12530967Y-9020531D01*
X12530967Y-9020531D02*
X12540491Y-9039579D01*
X12540491Y-9039579D02*
X12550015Y-9077674D01*
X12550015Y-9077674D02*
X12550015Y-9125293D01*
X12550015Y-9125293D02*
X12540491Y-9163389D01*
X12540491Y-9163389D02*
X12530967Y-9182436D01*
X12530967Y-9182436D02*
X12521444Y-9191960D01*
X12521444Y-9191960D02*
X12502396Y-9201484D01*
X12502396Y-9201484D02*
X12483348Y-9201484D01*
X12483348Y-9201484D02*
X12464301Y-9191960D01*
X12464301Y-9191960D02*
X12454777Y-9182436D01*
X12454777Y-9182436D02*
X12445253Y-9163389D01*
X12445253Y-9163389D02*
X12435729Y-9125293D01*
X12435729Y-9125293D02*
X12435729Y-9077674D01*
X12435729Y-9077674D02*
X12445253Y-9039579D01*
X12445253Y-9039579D02*
X12454777Y-9020531D01*
X12454777Y-9020531D02*
X12464301Y-9011008D01*
X12464301Y-9011008D02*
X12483348Y-9001484D01*
X12616682Y-9001484D02*
X12740491Y-9001484D01*
X12740491Y-9001484D02*
X12673825Y-9077674D01*
X12673825Y-9077674D02*
X12702396Y-9077674D01*
X12702396Y-9077674D02*
X12721444Y-9087198D01*
X12721444Y-9087198D02*
X12730967Y-9096722D01*
X12730967Y-9096722D02*
X12740491Y-9115770D01*
X12740491Y-9115770D02*
X12740491Y-9163389D01*
X12740491Y-9163389D02*
X12730967Y-9182436D01*
X12730967Y-9182436D02*
X12721444Y-9191960D01*
X12721444Y-9191960D02*
X12702396Y-9201484D01*
X12702396Y-9201484D02*
X12645253Y-9201484D01*
X12645253Y-9201484D02*
X12626206Y-9191960D01*
X12626206Y-9191960D02*
X12616682Y-9182436D01*
X12930967Y-9201484D02*
X12816682Y-9201484D01*
X12873825Y-9201484D02*
X12873825Y-9001484D01*
X12873825Y-9001484D02*
X12854777Y-9030055D01*
X12854777Y-9030055D02*
X12835729Y-9049103D01*
X12835729Y-9049103D02*
X12816682Y-9058627D01*
X13111920Y-9001484D02*
X13016682Y-9001484D01*
X13016682Y-9001484D02*
X13007158Y-9096722D01*
X13007158Y-9096722D02*
X13016682Y-9087198D01*
X13016682Y-9087198D02*
X13035729Y-9077674D01*
X13035729Y-9077674D02*
X13083348Y-9077674D01*
X13083348Y-9077674D02*
X13102396Y-9087198D01*
X13102396Y-9087198D02*
X13111920Y-9096722D01*
X13111920Y-9096722D02*
X13121444Y-9115770D01*
X13121444Y-9115770D02*
X13121444Y-9163389D01*
X13121444Y-9163389D02*
X13111920Y-9182436D01*
X13111920Y-9182436D02*
X13102396Y-9191960D01*
X13102396Y-9191960D02*
X13083348Y-9201484D01*
X13083348Y-9201484D02*
X13035729Y-9201484D01*
X13035729Y-9201484D02*
X13016682Y-9191960D01*
X13016682Y-9191960D02*
X13007158Y-9182436D01*
X13197634Y-9001484D02*
X13197634Y-9039579D01*
X13273825Y-9001484D02*
X13273825Y-9039579D01*
X13569063Y-9277674D02*
X13559539Y-9268150D01*
X13559539Y-9268150D02*
X13540491Y-9239579D01*
X13540491Y-9239579D02*
X13530968Y-9220531D01*
X13530968Y-9220531D02*
X13521444Y-9191960D01*
X13521444Y-9191960D02*
X13511920Y-9144341D01*
X13511920Y-9144341D02*
X13511920Y-9106246D01*
X13511920Y-9106246D02*
X13521444Y-9058627D01*
X13521444Y-9058627D02*
X13530968Y-9030055D01*
X13530968Y-9030055D02*
X13540491Y-9011008D01*
X13540491Y-9011008D02*
X13559539Y-8982436D01*
X13559539Y-8982436D02*
X13569063Y-8972912D01*
X13673825Y-9087198D02*
X13654777Y-9077674D01*
X13654777Y-9077674D02*
X13645253Y-9068150D01*
X13645253Y-9068150D02*
X13635729Y-9049103D01*
X13635729Y-9049103D02*
X13635729Y-9039579D01*
X13635729Y-9039579D02*
X13645253Y-9020531D01*
X13645253Y-9020531D02*
X13654777Y-9011008D01*
X13654777Y-9011008D02*
X13673825Y-9001484D01*
X13673825Y-9001484D02*
X13711920Y-9001484D01*
X13711920Y-9001484D02*
X13730968Y-9011008D01*
X13730968Y-9011008D02*
X13740491Y-9020531D01*
X13740491Y-9020531D02*
X13750015Y-9039579D01*
X13750015Y-9039579D02*
X13750015Y-9049103D01*
X13750015Y-9049103D02*
X13740491Y-9068150D01*
X13740491Y-9068150D02*
X13730968Y-9077674D01*
X13730968Y-9077674D02*
X13711920Y-9087198D01*
X13711920Y-9087198D02*
X13673825Y-9087198D01*
X13673825Y-9087198D02*
X13654777Y-9096722D01*
X13654777Y-9096722D02*
X13645253Y-9106246D01*
X13645253Y-9106246D02*
X13635729Y-9125293D01*
X13635729Y-9125293D02*
X13635729Y-9163389D01*
X13635729Y-9163389D02*
X13645253Y-9182436D01*
X13645253Y-9182436D02*
X13654777Y-9191960D01*
X13654777Y-9191960D02*
X13673825Y-9201484D01*
X13673825Y-9201484D02*
X13711920Y-9201484D01*
X13711920Y-9201484D02*
X13730968Y-9191960D01*
X13730968Y-9191960D02*
X13740491Y-9182436D01*
X13740491Y-9182436D02*
X13750015Y-9163389D01*
X13750015Y-9163389D02*
X13750015Y-9125293D01*
X13750015Y-9125293D02*
X13740491Y-9106246D01*
X13740491Y-9106246D02*
X13730968Y-9096722D01*
X13730968Y-9096722D02*
X13711920Y-9087198D01*
X13988110Y-9201484D02*
X13988110Y-9001484D01*
X14073825Y-9201484D02*
X14073825Y-9096722D01*
X14073825Y-9096722D02*
X14064301Y-9077674D01*
X14064301Y-9077674D02*
X14045253Y-9068150D01*
X14045253Y-9068150D02*
X14016682Y-9068150D01*
X14016682Y-9068150D02*
X13997634Y-9077674D01*
X13997634Y-9077674D02*
X13988110Y-9087198D01*
X14197634Y-9201484D02*
X14178587Y-9191960D01*
X14178587Y-9191960D02*
X14169063Y-9182436D01*
X14169063Y-9182436D02*
X14159539Y-9163389D01*
X14159539Y-9163389D02*
X14159539Y-9106246D01*
X14159539Y-9106246D02*
X14169063Y-9087198D01*
X14169063Y-9087198D02*
X14178587Y-9077674D01*
X14178587Y-9077674D02*
X14197634Y-9068150D01*
X14197634Y-9068150D02*
X14226206Y-9068150D01*
X14226206Y-9068150D02*
X14245253Y-9077674D01*
X14245253Y-9077674D02*
X14254777Y-9087198D01*
X14254777Y-9087198D02*
X14264301Y-9106246D01*
X14264301Y-9106246D02*
X14264301Y-9163389D01*
X14264301Y-9163389D02*
X14254777Y-9182436D01*
X14254777Y-9182436D02*
X14245253Y-9191960D01*
X14245253Y-9191960D02*
X14226206Y-9201484D01*
X14226206Y-9201484D02*
X14197634Y-9201484D01*
X14378587Y-9201484D02*
X14359539Y-9191960D01*
X14359539Y-9191960D02*
X14350015Y-9172912D01*
X14350015Y-9172912D02*
X14350015Y-9001484D01*
X14530968Y-9191960D02*
X14511920Y-9201484D01*
X14511920Y-9201484D02*
X14473825Y-9201484D01*
X14473825Y-9201484D02*
X14454777Y-9191960D01*
X14454777Y-9191960D02*
X14445253Y-9172912D01*
X14445253Y-9172912D02*
X14445253Y-9096722D01*
X14445253Y-9096722D02*
X14454777Y-9077674D01*
X14454777Y-9077674D02*
X14473825Y-9068150D01*
X14473825Y-9068150D02*
X14511920Y-9068150D01*
X14511920Y-9068150D02*
X14530968Y-9077674D01*
X14530968Y-9077674D02*
X14540491Y-9096722D01*
X14540491Y-9096722D02*
X14540491Y-9115770D01*
X14540491Y-9115770D02*
X14445253Y-9134817D01*
X14616682Y-9191960D02*
X14635730Y-9201484D01*
X14635730Y-9201484D02*
X14673825Y-9201484D01*
X14673825Y-9201484D02*
X14692872Y-9191960D01*
X14692872Y-9191960D02*
X14702396Y-9172912D01*
X14702396Y-9172912D02*
X14702396Y-9163389D01*
X14702396Y-9163389D02*
X14692872Y-9144341D01*
X14692872Y-9144341D02*
X14673825Y-9134817D01*
X14673825Y-9134817D02*
X14645253Y-9134817D01*
X14645253Y-9134817D02*
X14626206Y-9125293D01*
X14626206Y-9125293D02*
X14616682Y-9106246D01*
X14616682Y-9106246D02*
X14616682Y-9096722D01*
X14616682Y-9096722D02*
X14626206Y-9077674D01*
X14626206Y-9077674D02*
X14645253Y-9068150D01*
X14645253Y-9068150D02*
X14673825Y-9068150D01*
X14673825Y-9068150D02*
X14692872Y-9077674D01*
X14769063Y-9277674D02*
X14778587Y-9268150D01*
X14778587Y-9268150D02*
X14797634Y-9239579D01*
X14797634Y-9239579D02*
X14807158Y-9220531D01*
X14807158Y-9220531D02*
X14816682Y-9191960D01*
X14816682Y-9191960D02*
X14826206Y-9144341D01*
X14826206Y-9144341D02*
X14826206Y-9106246D01*
X14826206Y-9106246D02*
X14816682Y-9058627D01*
X14816682Y-9058627D02*
X14807158Y-9030055D01*
X14807158Y-9030055D02*
X14797634Y-9011008D01*
X14797634Y-9011008D02*
X14778587Y-8982436D01*
X14778587Y-8982436D02*
X14769063Y-8972912D01*
D12*
X9949000Y-9329000D02*
X9949000Y-9419000D01*
X9904000Y-9374000D02*
X9994000Y-9374000D01*
D11*
X10292872Y-9265484D02*
X10311920Y-9265484D01*
X10311920Y-9265484D02*
X10330967Y-9275008D01*
X10330967Y-9275008D02*
X10340491Y-9284531D01*
X10340491Y-9284531D02*
X10350015Y-9303579D01*
X10350015Y-9303579D02*
X10359539Y-9341674D01*
X10359539Y-9341674D02*
X10359539Y-9389293D01*
X10359539Y-9389293D02*
X10350015Y-9427389D01*
X10350015Y-9427389D02*
X10340491Y-9446436D01*
X10340491Y-9446436D02*
X10330967Y-9455960D01*
X10330967Y-9455960D02*
X10311920Y-9465484D01*
X10311920Y-9465484D02*
X10292872Y-9465484D01*
X10292872Y-9465484D02*
X10273824Y-9455960D01*
X10273824Y-9455960D02*
X10264301Y-9446436D01*
X10264301Y-9446436D02*
X10254777Y-9427389D01*
X10254777Y-9427389D02*
X10245253Y-9389293D01*
X10245253Y-9389293D02*
X10245253Y-9341674D01*
X10245253Y-9341674D02*
X10254777Y-9303579D01*
X10254777Y-9303579D02*
X10264301Y-9284531D01*
X10264301Y-9284531D02*
X10273824Y-9275008D01*
X10273824Y-9275008D02*
X10292872Y-9265484D01*
X10445253Y-9446436D02*
X10454777Y-9455960D01*
X10454777Y-9455960D02*
X10445253Y-9465484D01*
X10445253Y-9465484D02*
X10435729Y-9455960D01*
X10435729Y-9455960D02*
X10445253Y-9446436D01*
X10445253Y-9446436D02*
X10445253Y-9465484D01*
X10550015Y-9465484D02*
X10588110Y-9465484D01*
X10588110Y-9465484D02*
X10607158Y-9455960D01*
X10607158Y-9455960D02*
X10616682Y-9446436D01*
X10616682Y-9446436D02*
X10635729Y-9417865D01*
X10635729Y-9417865D02*
X10645253Y-9379770D01*
X10645253Y-9379770D02*
X10645253Y-9303579D01*
X10645253Y-9303579D02*
X10635729Y-9284531D01*
X10635729Y-9284531D02*
X10626205Y-9275008D01*
X10626205Y-9275008D02*
X10607158Y-9265484D01*
X10607158Y-9265484D02*
X10569063Y-9265484D01*
X10569063Y-9265484D02*
X10550015Y-9275008D01*
X10550015Y-9275008D02*
X10540491Y-9284531D01*
X10540491Y-9284531D02*
X10530967Y-9303579D01*
X10530967Y-9303579D02*
X10530967Y-9351198D01*
X10530967Y-9351198D02*
X10540491Y-9370246D01*
X10540491Y-9370246D02*
X10550015Y-9379770D01*
X10550015Y-9379770D02*
X10569063Y-9389293D01*
X10569063Y-9389293D02*
X10607158Y-9389293D01*
X10607158Y-9389293D02*
X10626205Y-9379770D01*
X10626205Y-9379770D02*
X10635729Y-9370246D01*
X10635729Y-9370246D02*
X10645253Y-9351198D01*
X10769063Y-9265484D02*
X10788110Y-9265484D01*
X10788110Y-9265484D02*
X10807158Y-9275008D01*
X10807158Y-9275008D02*
X10816682Y-9284531D01*
X10816682Y-9284531D02*
X10826205Y-9303579D01*
X10826205Y-9303579D02*
X10835729Y-9341674D01*
X10835729Y-9341674D02*
X10835729Y-9389293D01*
X10835729Y-9389293D02*
X10826205Y-9427389D01*
X10826205Y-9427389D02*
X10816682Y-9446436D01*
X10816682Y-9446436D02*
X10807158Y-9455960D01*
X10807158Y-9455960D02*
X10788110Y-9465484D01*
X10788110Y-9465484D02*
X10769063Y-9465484D01*
X10769063Y-9465484D02*
X10750015Y-9455960D01*
X10750015Y-9455960D02*
X10740491Y-9446436D01*
X10740491Y-9446436D02*
X10730967Y-9427389D01*
X10730967Y-9427389D02*
X10721444Y-9389293D01*
X10721444Y-9389293D02*
X10721444Y-9341674D01*
X10721444Y-9341674D02*
X10730967Y-9303579D01*
X10730967Y-9303579D02*
X10740491Y-9284531D01*
X10740491Y-9284531D02*
X10750015Y-9275008D01*
X10750015Y-9275008D02*
X10769063Y-9265484D01*
X10959539Y-9265484D02*
X10978586Y-9265484D01*
X10978586Y-9265484D02*
X10997634Y-9275008D01*
X10997634Y-9275008D02*
X11007158Y-9284531D01*
X11007158Y-9284531D02*
X11016682Y-9303579D01*
X11016682Y-9303579D02*
X11026205Y-9341674D01*
X11026205Y-9341674D02*
X11026205Y-9389293D01*
X11026205Y-9389293D02*
X11016682Y-9427389D01*
X11016682Y-9427389D02*
X11007158Y-9446436D01*
X11007158Y-9446436D02*
X10997634Y-9455960D01*
X10997634Y-9455960D02*
X10978586Y-9465484D01*
X10978586Y-9465484D02*
X10959539Y-9465484D01*
X10959539Y-9465484D02*
X10940491Y-9455960D01*
X10940491Y-9455960D02*
X10930967Y-9446436D01*
X10930967Y-9446436D02*
X10921444Y-9427389D01*
X10921444Y-9427389D02*
X10911920Y-9389293D01*
X10911920Y-9389293D02*
X10911920Y-9341674D01*
X10911920Y-9341674D02*
X10921444Y-9303579D01*
X10921444Y-9303579D02*
X10930967Y-9284531D01*
X10930967Y-9284531D02*
X10940491Y-9275008D01*
X10940491Y-9275008D02*
X10959539Y-9265484D01*
X11111920Y-9465484D02*
X11111920Y-9332150D01*
X11111920Y-9351198D02*
X11121444Y-9341674D01*
X11121444Y-9341674D02*
X11140491Y-9332150D01*
X11140491Y-9332150D02*
X11169063Y-9332150D01*
X11169063Y-9332150D02*
X11188110Y-9341674D01*
X11188110Y-9341674D02*
X11197634Y-9360722D01*
X11197634Y-9360722D02*
X11197634Y-9465484D01*
X11197634Y-9360722D02*
X11207158Y-9341674D01*
X11207158Y-9341674D02*
X11226205Y-9332150D01*
X11226205Y-9332150D02*
X11254777Y-9332150D01*
X11254777Y-9332150D02*
X11273824Y-9341674D01*
X11273824Y-9341674D02*
X11283348Y-9360722D01*
X11283348Y-9360722D02*
X11283348Y-9465484D01*
X11378586Y-9465484D02*
X11378586Y-9332150D01*
X11378586Y-9351198D02*
X11388110Y-9341674D01*
X11388110Y-9341674D02*
X11407158Y-9332150D01*
X11407158Y-9332150D02*
X11435729Y-9332150D01*
X11435729Y-9332150D02*
X11454777Y-9341674D01*
X11454777Y-9341674D02*
X11464301Y-9360722D01*
X11464301Y-9360722D02*
X11464301Y-9465484D01*
X11464301Y-9360722D02*
X11473824Y-9341674D01*
X11473824Y-9341674D02*
X11492872Y-9332150D01*
X11492872Y-9332150D02*
X11521443Y-9332150D01*
X11521443Y-9332150D02*
X11540491Y-9341674D01*
X11540491Y-9341674D02*
X11550015Y-9360722D01*
X11550015Y-9360722D02*
X11550015Y-9465484D01*
X11940491Y-9255960D02*
X11769063Y-9513103D01*
X12197634Y-9265484D02*
X12216682Y-9265484D01*
X12216682Y-9265484D02*
X12235729Y-9275008D01*
X12235729Y-9275008D02*
X12245253Y-9284531D01*
X12245253Y-9284531D02*
X12254777Y-9303579D01*
X12254777Y-9303579D02*
X12264301Y-9341674D01*
X12264301Y-9341674D02*
X12264301Y-9389293D01*
X12264301Y-9389293D02*
X12254777Y-9427389D01*
X12254777Y-9427389D02*
X12245253Y-9446436D01*
X12245253Y-9446436D02*
X12235729Y-9455960D01*
X12235729Y-9455960D02*
X12216682Y-9465484D01*
X12216682Y-9465484D02*
X12197634Y-9465484D01*
X12197634Y-9465484D02*
X12178586Y-9455960D01*
X12178586Y-9455960D02*
X12169063Y-9446436D01*
X12169063Y-9446436D02*
X12159539Y-9427389D01*
X12159539Y-9427389D02*
X12150015Y-9389293D01*
X12150015Y-9389293D02*
X12150015Y-9341674D01*
X12150015Y-9341674D02*
X12159539Y-9303579D01*
X12159539Y-9303579D02*
X12169063Y-9284531D01*
X12169063Y-9284531D02*
X12178586Y-9275008D01*
X12178586Y-9275008D02*
X12197634Y-9265484D01*
X12350015Y-9446436D02*
X12359539Y-9455960D01*
X12359539Y-9455960D02*
X12350015Y-9465484D01*
X12350015Y-9465484D02*
X12340491Y-9455960D01*
X12340491Y-9455960D02*
X12350015Y-9446436D01*
X12350015Y-9446436D02*
X12350015Y-9465484D01*
X12483348Y-9265484D02*
X12502396Y-9265484D01*
X12502396Y-9265484D02*
X12521444Y-9275008D01*
X12521444Y-9275008D02*
X12530967Y-9284531D01*
X12530967Y-9284531D02*
X12540491Y-9303579D01*
X12540491Y-9303579D02*
X12550015Y-9341674D01*
X12550015Y-9341674D02*
X12550015Y-9389293D01*
X12550015Y-9389293D02*
X12540491Y-9427389D01*
X12540491Y-9427389D02*
X12530967Y-9446436D01*
X12530967Y-9446436D02*
X12521444Y-9455960D01*
X12521444Y-9455960D02*
X12502396Y-9465484D01*
X12502396Y-9465484D02*
X12483348Y-9465484D01*
X12483348Y-9465484D02*
X12464301Y-9455960D01*
X12464301Y-9455960D02*
X12454777Y-9446436D01*
X12454777Y-9446436D02*
X12445253Y-9427389D01*
X12445253Y-9427389D02*
X12435729Y-9389293D01*
X12435729Y-9389293D02*
X12435729Y-9341674D01*
X12435729Y-9341674D02*
X12445253Y-9303579D01*
X12445253Y-9303579D02*
X12454777Y-9284531D01*
X12454777Y-9284531D02*
X12464301Y-9275008D01*
X12464301Y-9275008D02*
X12483348Y-9265484D01*
X12616682Y-9265484D02*
X12740491Y-9265484D01*
X12740491Y-9265484D02*
X12673825Y-9341674D01*
X12673825Y-9341674D02*
X12702396Y-9341674D01*
X12702396Y-9341674D02*
X12721444Y-9351198D01*
X12721444Y-9351198D02*
X12730967Y-9360722D01*
X12730967Y-9360722D02*
X12740491Y-9379770D01*
X12740491Y-9379770D02*
X12740491Y-9427389D01*
X12740491Y-9427389D02*
X12730967Y-9446436D01*
X12730967Y-9446436D02*
X12721444Y-9455960D01*
X12721444Y-9455960D02*
X12702396Y-9465484D01*
X12702396Y-9465484D02*
X12645253Y-9465484D01*
X12645253Y-9465484D02*
X12626206Y-9455960D01*
X12626206Y-9455960D02*
X12616682Y-9446436D01*
X12921444Y-9265484D02*
X12826206Y-9265484D01*
X12826206Y-9265484D02*
X12816682Y-9360722D01*
X12816682Y-9360722D02*
X12826206Y-9351198D01*
X12826206Y-9351198D02*
X12845253Y-9341674D01*
X12845253Y-9341674D02*
X12892872Y-9341674D01*
X12892872Y-9341674D02*
X12911920Y-9351198D01*
X12911920Y-9351198D02*
X12921444Y-9360722D01*
X12921444Y-9360722D02*
X12930967Y-9379770D01*
X12930967Y-9379770D02*
X12930967Y-9427389D01*
X12930967Y-9427389D02*
X12921444Y-9446436D01*
X12921444Y-9446436D02*
X12911920Y-9455960D01*
X12911920Y-9455960D02*
X12892872Y-9465484D01*
X12892872Y-9465484D02*
X12845253Y-9465484D01*
X12845253Y-9465484D02*
X12826206Y-9455960D01*
X12826206Y-9455960D02*
X12816682Y-9446436D01*
X13102396Y-9332150D02*
X13102396Y-9465484D01*
X13054777Y-9255960D02*
X13007158Y-9398817D01*
X13007158Y-9398817D02*
X13130967Y-9398817D01*
X13197634Y-9265484D02*
X13197634Y-9303579D01*
X13273825Y-9265484D02*
X13273825Y-9303579D01*
X13569063Y-9541674D02*
X13559539Y-9532150D01*
X13559539Y-9532150D02*
X13540491Y-9503579D01*
X13540491Y-9503579D02*
X13530968Y-9484531D01*
X13530968Y-9484531D02*
X13521444Y-9455960D01*
X13521444Y-9455960D02*
X13511920Y-9408341D01*
X13511920Y-9408341D02*
X13511920Y-9370246D01*
X13511920Y-9370246D02*
X13521444Y-9322627D01*
X13521444Y-9322627D02*
X13530968Y-9294055D01*
X13530968Y-9294055D02*
X13540491Y-9275008D01*
X13540491Y-9275008D02*
X13559539Y-9246436D01*
X13559539Y-9246436D02*
X13569063Y-9236912D01*
X13635729Y-9284531D02*
X13645253Y-9275008D01*
X13645253Y-9275008D02*
X13664301Y-9265484D01*
X13664301Y-9265484D02*
X13711920Y-9265484D01*
X13711920Y-9265484D02*
X13730968Y-9275008D01*
X13730968Y-9275008D02*
X13740491Y-9284531D01*
X13740491Y-9284531D02*
X13750015Y-9303579D01*
X13750015Y-9303579D02*
X13750015Y-9322627D01*
X13750015Y-9322627D02*
X13740491Y-9351198D01*
X13740491Y-9351198D02*
X13626206Y-9465484D01*
X13626206Y-9465484D02*
X13750015Y-9465484D01*
X13988110Y-9465484D02*
X13988110Y-9265484D01*
X14073825Y-9465484D02*
X14073825Y-9360722D01*
X14073825Y-9360722D02*
X14064301Y-9341674D01*
X14064301Y-9341674D02*
X14045253Y-9332150D01*
X14045253Y-9332150D02*
X14016682Y-9332150D01*
X14016682Y-9332150D02*
X13997634Y-9341674D01*
X13997634Y-9341674D02*
X13988110Y-9351198D01*
X14197634Y-9465484D02*
X14178587Y-9455960D01*
X14178587Y-9455960D02*
X14169063Y-9446436D01*
X14169063Y-9446436D02*
X14159539Y-9427389D01*
X14159539Y-9427389D02*
X14159539Y-9370246D01*
X14159539Y-9370246D02*
X14169063Y-9351198D01*
X14169063Y-9351198D02*
X14178587Y-9341674D01*
X14178587Y-9341674D02*
X14197634Y-9332150D01*
X14197634Y-9332150D02*
X14226206Y-9332150D01*
X14226206Y-9332150D02*
X14245253Y-9341674D01*
X14245253Y-9341674D02*
X14254777Y-9351198D01*
X14254777Y-9351198D02*
X14264301Y-9370246D01*
X14264301Y-9370246D02*
X14264301Y-9427389D01*
X14264301Y-9427389D02*
X14254777Y-9446436D01*
X14254777Y-9446436D02*
X14245253Y-9455960D01*
X14245253Y-9455960D02*
X14226206Y-9465484D01*
X14226206Y-9465484D02*
X14197634Y-9465484D01*
X14378587Y-9465484D02*
X14359539Y-9455960D01*
X14359539Y-9455960D02*
X14350015Y-9436912D01*
X14350015Y-9436912D02*
X14350015Y-9265484D01*
X14530968Y-9455960D02*
X14511920Y-9465484D01*
X14511920Y-9465484D02*
X14473825Y-9465484D01*
X14473825Y-9465484D02*
X14454777Y-9455960D01*
X14454777Y-9455960D02*
X14445253Y-9436912D01*
X14445253Y-9436912D02*
X14445253Y-9360722D01*
X14445253Y-9360722D02*
X14454777Y-9341674D01*
X14454777Y-9341674D02*
X14473825Y-9332150D01*
X14473825Y-9332150D02*
X14511920Y-9332150D01*
X14511920Y-9332150D02*
X14530968Y-9341674D01*
X14530968Y-9341674D02*
X14540491Y-9360722D01*
X14540491Y-9360722D02*
X14540491Y-9379770D01*
X14540491Y-9379770D02*
X14445253Y-9398817D01*
X14616682Y-9455960D02*
X14635730Y-9465484D01*
X14635730Y-9465484D02*
X14673825Y-9465484D01*
X14673825Y-9465484D02*
X14692872Y-9455960D01*
X14692872Y-9455960D02*
X14702396Y-9436912D01*
X14702396Y-9436912D02*
X14702396Y-9427389D01*
X14702396Y-9427389D02*
X14692872Y-9408341D01*
X14692872Y-9408341D02*
X14673825Y-9398817D01*
X14673825Y-9398817D02*
X14645253Y-9398817D01*
X14645253Y-9398817D02*
X14626206Y-9389293D01*
X14626206Y-9389293D02*
X14616682Y-9370246D01*
X14616682Y-9370246D02*
X14616682Y-9360722D01*
X14616682Y-9360722D02*
X14626206Y-9341674D01*
X14626206Y-9341674D02*
X14645253Y-9332150D01*
X14645253Y-9332150D02*
X14673825Y-9332150D01*
X14673825Y-9332150D02*
X14692872Y-9341674D01*
X14769063Y-9541674D02*
X14778587Y-9532150D01*
X14778587Y-9532150D02*
X14797634Y-9503579D01*
X14797634Y-9503579D02*
X14807158Y-9484531D01*
X14807158Y-9484531D02*
X14816682Y-9455960D01*
X14816682Y-9455960D02*
X14826206Y-9408341D01*
X14826206Y-9408341D02*
X14826206Y-9370246D01*
X14826206Y-9370246D02*
X14816682Y-9322627D01*
X14816682Y-9322627D02*
X14807158Y-9294055D01*
X14807158Y-9294055D02*
X14797634Y-9275008D01*
X14797634Y-9275008D02*
X14778587Y-9246436D01*
X14778587Y-9246436D02*
X14769063Y-9236912D01*
D13*
X9977891Y-9676891D02*
X9977891Y-9599109D01*
X9900109Y-9599109D01*
X9900109Y-9676891D01*
X9977891Y-9676891D01*
D11*
X10359539Y-9729484D02*
X10245253Y-9729484D01*
X10302396Y-9729484D02*
X10302396Y-9529484D01*
X10302396Y-9529484D02*
X10283348Y-9558055D01*
X10283348Y-9558055D02*
X10264301Y-9577103D01*
X10264301Y-9577103D02*
X10245253Y-9586627D01*
X10445253Y-9710436D02*
X10454777Y-9719960D01*
X10454777Y-9719960D02*
X10445253Y-9729484D01*
X10445253Y-9729484D02*
X10435729Y-9719960D01*
X10435729Y-9719960D02*
X10445253Y-9710436D01*
X10445253Y-9710436D02*
X10445253Y-9729484D01*
X10645253Y-9729484D02*
X10530967Y-9729484D01*
X10588110Y-9729484D02*
X10588110Y-9529484D01*
X10588110Y-9529484D02*
X10569063Y-9558055D01*
X10569063Y-9558055D02*
X10550015Y-9577103D01*
X10550015Y-9577103D02*
X10530967Y-9586627D01*
X10769063Y-9529484D02*
X10788110Y-9529484D01*
X10788110Y-9529484D02*
X10807158Y-9539008D01*
X10807158Y-9539008D02*
X10816682Y-9548531D01*
X10816682Y-9548531D02*
X10826205Y-9567579D01*
X10826205Y-9567579D02*
X10835729Y-9605674D01*
X10835729Y-9605674D02*
X10835729Y-9653293D01*
X10835729Y-9653293D02*
X10826205Y-9691389D01*
X10826205Y-9691389D02*
X10816682Y-9710436D01*
X10816682Y-9710436D02*
X10807158Y-9719960D01*
X10807158Y-9719960D02*
X10788110Y-9729484D01*
X10788110Y-9729484D02*
X10769063Y-9729484D01*
X10769063Y-9729484D02*
X10750015Y-9719960D01*
X10750015Y-9719960D02*
X10740491Y-9710436D01*
X10740491Y-9710436D02*
X10730967Y-9691389D01*
X10730967Y-9691389D02*
X10721444Y-9653293D01*
X10721444Y-9653293D02*
X10721444Y-9605674D01*
X10721444Y-9605674D02*
X10730967Y-9567579D01*
X10730967Y-9567579D02*
X10740491Y-9548531D01*
X10740491Y-9548531D02*
X10750015Y-9539008D01*
X10750015Y-9539008D02*
X10769063Y-9529484D01*
X10959539Y-9529484D02*
X10978586Y-9529484D01*
X10978586Y-9529484D02*
X10997634Y-9539008D01*
X10997634Y-9539008D02*
X11007158Y-9548531D01*
X11007158Y-9548531D02*
X11016682Y-9567579D01*
X11016682Y-9567579D02*
X11026205Y-9605674D01*
X11026205Y-9605674D02*
X11026205Y-9653293D01*
X11026205Y-9653293D02*
X11016682Y-9691389D01*
X11016682Y-9691389D02*
X11007158Y-9710436D01*
X11007158Y-9710436D02*
X10997634Y-9719960D01*
X10997634Y-9719960D02*
X10978586Y-9729484D01*
X10978586Y-9729484D02*
X10959539Y-9729484D01*
X10959539Y-9729484D02*
X10940491Y-9719960D01*
X10940491Y-9719960D02*
X10930967Y-9710436D01*
X10930967Y-9710436D02*
X10921444Y-9691389D01*
X10921444Y-9691389D02*
X10911920Y-9653293D01*
X10911920Y-9653293D02*
X10911920Y-9605674D01*
X10911920Y-9605674D02*
X10921444Y-9567579D01*
X10921444Y-9567579D02*
X10930967Y-9548531D01*
X10930967Y-9548531D02*
X10940491Y-9539008D01*
X10940491Y-9539008D02*
X10959539Y-9529484D01*
X11111920Y-9729484D02*
X11111920Y-9596150D01*
X11111920Y-9615198D02*
X11121444Y-9605674D01*
X11121444Y-9605674D02*
X11140491Y-9596150D01*
X11140491Y-9596150D02*
X11169063Y-9596150D01*
X11169063Y-9596150D02*
X11188110Y-9605674D01*
X11188110Y-9605674D02*
X11197634Y-9624722D01*
X11197634Y-9624722D02*
X11197634Y-9729484D01*
X11197634Y-9624722D02*
X11207158Y-9605674D01*
X11207158Y-9605674D02*
X11226205Y-9596150D01*
X11226205Y-9596150D02*
X11254777Y-9596150D01*
X11254777Y-9596150D02*
X11273824Y-9605674D01*
X11273824Y-9605674D02*
X11283348Y-9624722D01*
X11283348Y-9624722D02*
X11283348Y-9729484D01*
X11378586Y-9729484D02*
X11378586Y-9596150D01*
X11378586Y-9615198D02*
X11388110Y-9605674D01*
X11388110Y-9605674D02*
X11407158Y-9596150D01*
X11407158Y-9596150D02*
X11435729Y-9596150D01*
X11435729Y-9596150D02*
X11454777Y-9605674D01*
X11454777Y-9605674D02*
X11464301Y-9624722D01*
X11464301Y-9624722D02*
X11464301Y-9729484D01*
X11464301Y-9624722D02*
X11473824Y-9605674D01*
X11473824Y-9605674D02*
X11492872Y-9596150D01*
X11492872Y-9596150D02*
X11521443Y-9596150D01*
X11521443Y-9596150D02*
X11540491Y-9605674D01*
X11540491Y-9605674D02*
X11550015Y-9624722D01*
X11550015Y-9624722D02*
X11550015Y-9729484D01*
X11940491Y-9519960D02*
X11769063Y-9777103D01*
X12197634Y-9529484D02*
X12216682Y-9529484D01*
X12216682Y-9529484D02*
X12235729Y-9539008D01*
X12235729Y-9539008D02*
X12245253Y-9548531D01*
X12245253Y-9548531D02*
X12254777Y-9567579D01*
X12254777Y-9567579D02*
X12264301Y-9605674D01*
X12264301Y-9605674D02*
X12264301Y-9653293D01*
X12264301Y-9653293D02*
X12254777Y-9691389D01*
X12254777Y-9691389D02*
X12245253Y-9710436D01*
X12245253Y-9710436D02*
X12235729Y-9719960D01*
X12235729Y-9719960D02*
X12216682Y-9729484D01*
X12216682Y-9729484D02*
X12197634Y-9729484D01*
X12197634Y-9729484D02*
X12178586Y-9719960D01*
X12178586Y-9719960D02*
X12169063Y-9710436D01*
X12169063Y-9710436D02*
X12159539Y-9691389D01*
X12159539Y-9691389D02*
X12150015Y-9653293D01*
X12150015Y-9653293D02*
X12150015Y-9605674D01*
X12150015Y-9605674D02*
X12159539Y-9567579D01*
X12159539Y-9567579D02*
X12169063Y-9548531D01*
X12169063Y-9548531D02*
X12178586Y-9539008D01*
X12178586Y-9539008D02*
X12197634Y-9529484D01*
X12350015Y-9710436D02*
X12359539Y-9719960D01*
X12359539Y-9719960D02*
X12350015Y-9729484D01*
X12350015Y-9729484D02*
X12340491Y-9719960D01*
X12340491Y-9719960D02*
X12350015Y-9710436D01*
X12350015Y-9710436D02*
X12350015Y-9729484D01*
X12483348Y-9529484D02*
X12502396Y-9529484D01*
X12502396Y-9529484D02*
X12521444Y-9539008D01*
X12521444Y-9539008D02*
X12530967Y-9548531D01*
X12530967Y-9548531D02*
X12540491Y-9567579D01*
X12540491Y-9567579D02*
X12550015Y-9605674D01*
X12550015Y-9605674D02*
X12550015Y-9653293D01*
X12550015Y-9653293D02*
X12540491Y-9691389D01*
X12540491Y-9691389D02*
X12530967Y-9710436D01*
X12530967Y-9710436D02*
X12521444Y-9719960D01*
X12521444Y-9719960D02*
X12502396Y-9729484D01*
X12502396Y-9729484D02*
X12483348Y-9729484D01*
X12483348Y-9729484D02*
X12464301Y-9719960D01*
X12464301Y-9719960D02*
X12454777Y-9710436D01*
X12454777Y-9710436D02*
X12445253Y-9691389D01*
X12445253Y-9691389D02*
X12435729Y-9653293D01*
X12435729Y-9653293D02*
X12435729Y-9605674D01*
X12435729Y-9605674D02*
X12445253Y-9567579D01*
X12445253Y-9567579D02*
X12454777Y-9548531D01*
X12454777Y-9548531D02*
X12464301Y-9539008D01*
X12464301Y-9539008D02*
X12483348Y-9529484D01*
X12721444Y-9596150D02*
X12721444Y-9729484D01*
X12673825Y-9519960D02*
X12626206Y-9662817D01*
X12626206Y-9662817D02*
X12750015Y-9662817D01*
X12807158Y-9529484D02*
X12930967Y-9529484D01*
X12930967Y-9529484D02*
X12864301Y-9605674D01*
X12864301Y-9605674D02*
X12892872Y-9605674D01*
X12892872Y-9605674D02*
X12911920Y-9615198D01*
X12911920Y-9615198D02*
X12921444Y-9624722D01*
X12921444Y-9624722D02*
X12930967Y-9643770D01*
X12930967Y-9643770D02*
X12930967Y-9691389D01*
X12930967Y-9691389D02*
X12921444Y-9710436D01*
X12921444Y-9710436D02*
X12911920Y-9719960D01*
X12911920Y-9719960D02*
X12892872Y-9729484D01*
X12892872Y-9729484D02*
X12835729Y-9729484D01*
X12835729Y-9729484D02*
X12816682Y-9719960D01*
X12816682Y-9719960D02*
X12807158Y-9710436D01*
X12997634Y-9529484D02*
X13121444Y-9529484D01*
X13121444Y-9529484D02*
X13054777Y-9605674D01*
X13054777Y-9605674D02*
X13083348Y-9605674D01*
X13083348Y-9605674D02*
X13102396Y-9615198D01*
X13102396Y-9615198D02*
X13111920Y-9624722D01*
X13111920Y-9624722D02*
X13121444Y-9643770D01*
X13121444Y-9643770D02*
X13121444Y-9691389D01*
X13121444Y-9691389D02*
X13111920Y-9710436D01*
X13111920Y-9710436D02*
X13102396Y-9719960D01*
X13102396Y-9719960D02*
X13083348Y-9729484D01*
X13083348Y-9729484D02*
X13026206Y-9729484D01*
X13026206Y-9729484D02*
X13007158Y-9719960D01*
X13007158Y-9719960D02*
X12997634Y-9710436D01*
X13197634Y-9529484D02*
X13197634Y-9567579D01*
X13273825Y-9529484D02*
X13273825Y-9567579D01*
X13569063Y-9805674D02*
X13559539Y-9796150D01*
X13559539Y-9796150D02*
X13540491Y-9767579D01*
X13540491Y-9767579D02*
X13530968Y-9748531D01*
X13530968Y-9748531D02*
X13521444Y-9719960D01*
X13521444Y-9719960D02*
X13511920Y-9672341D01*
X13511920Y-9672341D02*
X13511920Y-9634246D01*
X13511920Y-9634246D02*
X13521444Y-9586627D01*
X13521444Y-9586627D02*
X13530968Y-9558055D01*
X13530968Y-9558055D02*
X13540491Y-9539008D01*
X13540491Y-9539008D02*
X13559539Y-9510436D01*
X13559539Y-9510436D02*
X13569063Y-9500912D01*
X13626206Y-9529484D02*
X13750015Y-9529484D01*
X13750015Y-9529484D02*
X13683348Y-9605674D01*
X13683348Y-9605674D02*
X13711920Y-9605674D01*
X13711920Y-9605674D02*
X13730968Y-9615198D01*
X13730968Y-9615198D02*
X13740491Y-9624722D01*
X13740491Y-9624722D02*
X13750015Y-9643770D01*
X13750015Y-9643770D02*
X13750015Y-9691389D01*
X13750015Y-9691389D02*
X13740491Y-9710436D01*
X13740491Y-9710436D02*
X13730968Y-9719960D01*
X13730968Y-9719960D02*
X13711920Y-9729484D01*
X13711920Y-9729484D02*
X13654777Y-9729484D01*
X13654777Y-9729484D02*
X13635729Y-9719960D01*
X13635729Y-9719960D02*
X13626206Y-9710436D01*
X13988110Y-9729484D02*
X13988110Y-9529484D01*
X14073825Y-9729484D02*
X14073825Y-9624722D01*
X14073825Y-9624722D02*
X14064301Y-9605674D01*
X14064301Y-9605674D02*
X14045253Y-9596150D01*
X14045253Y-9596150D02*
X14016682Y-9596150D01*
X14016682Y-9596150D02*
X13997634Y-9605674D01*
X13997634Y-9605674D02*
X13988110Y-9615198D01*
X14197634Y-9729484D02*
X14178587Y-9719960D01*
X14178587Y-9719960D02*
X14169063Y-9710436D01*
X14169063Y-9710436D02*
X14159539Y-9691389D01*
X14159539Y-9691389D02*
X14159539Y-9634246D01*
X14159539Y-9634246D02*
X14169063Y-9615198D01*
X14169063Y-9615198D02*
X14178587Y-9605674D01*
X14178587Y-9605674D02*
X14197634Y-9596150D01*
X14197634Y-9596150D02*
X14226206Y-9596150D01*
X14226206Y-9596150D02*
X14245253Y-9605674D01*
X14245253Y-9605674D02*
X14254777Y-9615198D01*
X14254777Y-9615198D02*
X14264301Y-9634246D01*
X14264301Y-9634246D02*
X14264301Y-9691389D01*
X14264301Y-9691389D02*
X14254777Y-9710436D01*
X14254777Y-9710436D02*
X14245253Y-9719960D01*
X14245253Y-9719960D02*
X14226206Y-9729484D01*
X14226206Y-9729484D02*
X14197634Y-9729484D01*
X14378587Y-9729484D02*
X14359539Y-9719960D01*
X14359539Y-9719960D02*
X14350015Y-9700912D01*
X14350015Y-9700912D02*
X14350015Y-9529484D01*
X14530968Y-9719960D02*
X14511920Y-9729484D01*
X14511920Y-9729484D02*
X14473825Y-9729484D01*
X14473825Y-9729484D02*
X14454777Y-9719960D01*
X14454777Y-9719960D02*
X14445253Y-9700912D01*
X14445253Y-9700912D02*
X14445253Y-9624722D01*
X14445253Y-9624722D02*
X14454777Y-9605674D01*
X14454777Y-9605674D02*
X14473825Y-9596150D01*
X14473825Y-9596150D02*
X14511920Y-9596150D01*
X14511920Y-9596150D02*
X14530968Y-9605674D01*
X14530968Y-9605674D02*
X14540491Y-9624722D01*
X14540491Y-9624722D02*
X14540491Y-9643770D01*
X14540491Y-9643770D02*
X14445253Y-9662817D01*
X14616682Y-9719960D02*
X14635730Y-9729484D01*
X14635730Y-9729484D02*
X14673825Y-9729484D01*
X14673825Y-9729484D02*
X14692872Y-9719960D01*
X14692872Y-9719960D02*
X14702396Y-9700912D01*
X14702396Y-9700912D02*
X14702396Y-9691389D01*
X14702396Y-9691389D02*
X14692872Y-9672341D01*
X14692872Y-9672341D02*
X14673825Y-9662817D01*
X14673825Y-9662817D02*
X14645253Y-9662817D01*
X14645253Y-9662817D02*
X14626206Y-9653293D01*
X14626206Y-9653293D02*
X14616682Y-9634246D01*
X14616682Y-9634246D02*
X14616682Y-9624722D01*
X14616682Y-9624722D02*
X14626206Y-9605674D01*
X14626206Y-9605674D02*
X14645253Y-9596150D01*
X14645253Y-9596150D02*
X14673825Y-9596150D01*
X14673825Y-9596150D02*
X14692872Y-9605674D01*
X14769063Y-9805674D02*
X14778587Y-9796150D01*
X14778587Y-9796150D02*
X14797634Y-9767579D01*
X14797634Y-9767579D02*
X14807158Y-9748531D01*
X14807158Y-9748531D02*
X14816682Y-9719960D01*
X14816682Y-9719960D02*
X14826206Y-9672341D01*
X14826206Y-9672341D02*
X14826206Y-9634246D01*
X14826206Y-9634246D02*
X14816682Y-9586627D01*
X14816682Y-9586627D02*
X14807158Y-9558055D01*
X14807158Y-9558055D02*
X14797634Y-9539008D01*
X14797634Y-9539008D02*
X14778587Y-9510436D01*
X14778587Y-9510436D02*
X14769063Y-9500912D01*
D14*
X9929000Y-9967000D02*
X9994000Y-9902000D01*
X9929000Y-9837000D01*
X9864000Y-9902000D01*
X9929000Y-9967000D01*
D11*
X10359539Y-9993484D02*
X10245253Y-9993484D01*
X10302396Y-9993484D02*
X10302396Y-9793484D01*
X10302396Y-9793484D02*
X10283348Y-9822055D01*
X10283348Y-9822055D02*
X10264301Y-9841103D01*
X10264301Y-9841103D02*
X10245253Y-9850627D01*
X10445253Y-9974436D02*
X10454777Y-9983960D01*
X10454777Y-9983960D02*
X10445253Y-9993484D01*
X10445253Y-9993484D02*
X10435729Y-9983960D01*
X10435729Y-9983960D02*
X10445253Y-9974436D01*
X10445253Y-9974436D02*
X10445253Y-9993484D01*
X10521444Y-9793484D02*
X10645253Y-9793484D01*
X10645253Y-9793484D02*
X10578586Y-9869674D01*
X10578586Y-9869674D02*
X10607158Y-9869674D01*
X10607158Y-9869674D02*
X10626205Y-9879198D01*
X10626205Y-9879198D02*
X10635729Y-9888722D01*
X10635729Y-9888722D02*
X10645253Y-9907770D01*
X10645253Y-9907770D02*
X10645253Y-9955389D01*
X10645253Y-9955389D02*
X10635729Y-9974436D01*
X10635729Y-9974436D02*
X10626205Y-9983960D01*
X10626205Y-9983960D02*
X10607158Y-9993484D01*
X10607158Y-9993484D02*
X10550015Y-9993484D01*
X10550015Y-9993484D02*
X10530967Y-9983960D01*
X10530967Y-9983960D02*
X10521444Y-9974436D01*
X10769063Y-9793484D02*
X10788110Y-9793484D01*
X10788110Y-9793484D02*
X10807158Y-9803008D01*
X10807158Y-9803008D02*
X10816682Y-9812531D01*
X10816682Y-9812531D02*
X10826205Y-9831579D01*
X10826205Y-9831579D02*
X10835729Y-9869674D01*
X10835729Y-9869674D02*
X10835729Y-9917293D01*
X10835729Y-9917293D02*
X10826205Y-9955389D01*
X10826205Y-9955389D02*
X10816682Y-9974436D01*
X10816682Y-9974436D02*
X10807158Y-9983960D01*
X10807158Y-9983960D02*
X10788110Y-9993484D01*
X10788110Y-9993484D02*
X10769063Y-9993484D01*
X10769063Y-9993484D02*
X10750015Y-9983960D01*
X10750015Y-9983960D02*
X10740491Y-9974436D01*
X10740491Y-9974436D02*
X10730967Y-9955389D01*
X10730967Y-9955389D02*
X10721444Y-9917293D01*
X10721444Y-9917293D02*
X10721444Y-9869674D01*
X10721444Y-9869674D02*
X10730967Y-9831579D01*
X10730967Y-9831579D02*
X10740491Y-9812531D01*
X10740491Y-9812531D02*
X10750015Y-9803008D01*
X10750015Y-9803008D02*
X10769063Y-9793484D01*
X10959539Y-9793484D02*
X10978586Y-9793484D01*
X10978586Y-9793484D02*
X10997634Y-9803008D01*
X10997634Y-9803008D02*
X11007158Y-9812531D01*
X11007158Y-9812531D02*
X11016682Y-9831579D01*
X11016682Y-9831579D02*
X11026205Y-9869674D01*
X11026205Y-9869674D02*
X11026205Y-9917293D01*
X11026205Y-9917293D02*
X11016682Y-9955389D01*
X11016682Y-9955389D02*
X11007158Y-9974436D01*
X11007158Y-9974436D02*
X10997634Y-9983960D01*
X10997634Y-9983960D02*
X10978586Y-9993484D01*
X10978586Y-9993484D02*
X10959539Y-9993484D01*
X10959539Y-9993484D02*
X10940491Y-9983960D01*
X10940491Y-9983960D02*
X10930967Y-9974436D01*
X10930967Y-9974436D02*
X10921444Y-9955389D01*
X10921444Y-9955389D02*
X10911920Y-9917293D01*
X10911920Y-9917293D02*
X10911920Y-9869674D01*
X10911920Y-9869674D02*
X10921444Y-9831579D01*
X10921444Y-9831579D02*
X10930967Y-9812531D01*
X10930967Y-9812531D02*
X10940491Y-9803008D01*
X10940491Y-9803008D02*
X10959539Y-9793484D01*
X11111920Y-9993484D02*
X11111920Y-9860150D01*
X11111920Y-9879198D02*
X11121444Y-9869674D01*
X11121444Y-9869674D02*
X11140491Y-9860150D01*
X11140491Y-9860150D02*
X11169063Y-9860150D01*
X11169063Y-9860150D02*
X11188110Y-9869674D01*
X11188110Y-9869674D02*
X11197634Y-9888722D01*
X11197634Y-9888722D02*
X11197634Y-9993484D01*
X11197634Y-9888722D02*
X11207158Y-9869674D01*
X11207158Y-9869674D02*
X11226205Y-9860150D01*
X11226205Y-9860150D02*
X11254777Y-9860150D01*
X11254777Y-9860150D02*
X11273824Y-9869674D01*
X11273824Y-9869674D02*
X11283348Y-9888722D01*
X11283348Y-9888722D02*
X11283348Y-9993484D01*
X11378586Y-9993484D02*
X11378586Y-9860150D01*
X11378586Y-9879198D02*
X11388110Y-9869674D01*
X11388110Y-9869674D02*
X11407158Y-9860150D01*
X11407158Y-9860150D02*
X11435729Y-9860150D01*
X11435729Y-9860150D02*
X11454777Y-9869674D01*
X11454777Y-9869674D02*
X11464301Y-9888722D01*
X11464301Y-9888722D02*
X11464301Y-9993484D01*
X11464301Y-9888722D02*
X11473824Y-9869674D01*
X11473824Y-9869674D02*
X11492872Y-9860150D01*
X11492872Y-9860150D02*
X11521443Y-9860150D01*
X11521443Y-9860150D02*
X11540491Y-9869674D01*
X11540491Y-9869674D02*
X11550015Y-9888722D01*
X11550015Y-9888722D02*
X11550015Y-9993484D01*
X11940491Y-9783960D02*
X11769063Y-10041103D01*
X12197634Y-9793484D02*
X12216682Y-9793484D01*
X12216682Y-9793484D02*
X12235729Y-9803008D01*
X12235729Y-9803008D02*
X12245253Y-9812531D01*
X12245253Y-9812531D02*
X12254777Y-9831579D01*
X12254777Y-9831579D02*
X12264301Y-9869674D01*
X12264301Y-9869674D02*
X12264301Y-9917293D01*
X12264301Y-9917293D02*
X12254777Y-9955389D01*
X12254777Y-9955389D02*
X12245253Y-9974436D01*
X12245253Y-9974436D02*
X12235729Y-9983960D01*
X12235729Y-9983960D02*
X12216682Y-9993484D01*
X12216682Y-9993484D02*
X12197634Y-9993484D01*
X12197634Y-9993484D02*
X12178586Y-9983960D01*
X12178586Y-9983960D02*
X12169063Y-9974436D01*
X12169063Y-9974436D02*
X12159539Y-9955389D01*
X12159539Y-9955389D02*
X12150015Y-9917293D01*
X12150015Y-9917293D02*
X12150015Y-9869674D01*
X12150015Y-9869674D02*
X12159539Y-9831579D01*
X12159539Y-9831579D02*
X12169063Y-9812531D01*
X12169063Y-9812531D02*
X12178586Y-9803008D01*
X12178586Y-9803008D02*
X12197634Y-9793484D01*
X12350015Y-9974436D02*
X12359539Y-9983960D01*
X12359539Y-9983960D02*
X12350015Y-9993484D01*
X12350015Y-9993484D02*
X12340491Y-9983960D01*
X12340491Y-9983960D02*
X12350015Y-9974436D01*
X12350015Y-9974436D02*
X12350015Y-9993484D01*
X12483348Y-9793484D02*
X12502396Y-9793484D01*
X12502396Y-9793484D02*
X12521444Y-9803008D01*
X12521444Y-9803008D02*
X12530967Y-9812531D01*
X12530967Y-9812531D02*
X12540491Y-9831579D01*
X12540491Y-9831579D02*
X12550015Y-9869674D01*
X12550015Y-9869674D02*
X12550015Y-9917293D01*
X12550015Y-9917293D02*
X12540491Y-9955389D01*
X12540491Y-9955389D02*
X12530967Y-9974436D01*
X12530967Y-9974436D02*
X12521444Y-9983960D01*
X12521444Y-9983960D02*
X12502396Y-9993484D01*
X12502396Y-9993484D02*
X12483348Y-9993484D01*
X12483348Y-9993484D02*
X12464301Y-9983960D01*
X12464301Y-9983960D02*
X12454777Y-9974436D01*
X12454777Y-9974436D02*
X12445253Y-9955389D01*
X12445253Y-9955389D02*
X12435729Y-9917293D01*
X12435729Y-9917293D02*
X12435729Y-9869674D01*
X12435729Y-9869674D02*
X12445253Y-9831579D01*
X12445253Y-9831579D02*
X12454777Y-9812531D01*
X12454777Y-9812531D02*
X12464301Y-9803008D01*
X12464301Y-9803008D02*
X12483348Y-9793484D01*
X12730967Y-9793484D02*
X12635729Y-9793484D01*
X12635729Y-9793484D02*
X12626206Y-9888722D01*
X12626206Y-9888722D02*
X12635729Y-9879198D01*
X12635729Y-9879198D02*
X12654777Y-9869674D01*
X12654777Y-9869674D02*
X12702396Y-9869674D01*
X12702396Y-9869674D02*
X12721444Y-9879198D01*
X12721444Y-9879198D02*
X12730967Y-9888722D01*
X12730967Y-9888722D02*
X12740491Y-9907770D01*
X12740491Y-9907770D02*
X12740491Y-9955389D01*
X12740491Y-9955389D02*
X12730967Y-9974436D01*
X12730967Y-9974436D02*
X12721444Y-9983960D01*
X12721444Y-9983960D02*
X12702396Y-9993484D01*
X12702396Y-9993484D02*
X12654777Y-9993484D01*
X12654777Y-9993484D02*
X12635729Y-9983960D01*
X12635729Y-9983960D02*
X12626206Y-9974436D01*
X12930967Y-9993484D02*
X12816682Y-9993484D01*
X12873825Y-9993484D02*
X12873825Y-9793484D01*
X12873825Y-9793484D02*
X12854777Y-9822055D01*
X12854777Y-9822055D02*
X12835729Y-9841103D01*
X12835729Y-9841103D02*
X12816682Y-9850627D01*
X13007158Y-9812531D02*
X13016682Y-9803008D01*
X13016682Y-9803008D02*
X13035729Y-9793484D01*
X13035729Y-9793484D02*
X13083348Y-9793484D01*
X13083348Y-9793484D02*
X13102396Y-9803008D01*
X13102396Y-9803008D02*
X13111920Y-9812531D01*
X13111920Y-9812531D02*
X13121444Y-9831579D01*
X13121444Y-9831579D02*
X13121444Y-9850627D01*
X13121444Y-9850627D02*
X13111920Y-9879198D01*
X13111920Y-9879198D02*
X12997634Y-9993484D01*
X12997634Y-9993484D02*
X13121444Y-9993484D01*
X13197634Y-9793484D02*
X13197634Y-9831579D01*
X13273825Y-9793484D02*
X13273825Y-9831579D01*
X13569063Y-10069674D02*
X13559539Y-10060150D01*
X13559539Y-10060150D02*
X13540491Y-10031579D01*
X13540491Y-10031579D02*
X13530968Y-10012531D01*
X13530968Y-10012531D02*
X13521444Y-9983960D01*
X13521444Y-9983960D02*
X13511920Y-9936341D01*
X13511920Y-9936341D02*
X13511920Y-9898246D01*
X13511920Y-9898246D02*
X13521444Y-9850627D01*
X13521444Y-9850627D02*
X13530968Y-9822055D01*
X13530968Y-9822055D02*
X13540491Y-9803008D01*
X13540491Y-9803008D02*
X13559539Y-9774436D01*
X13559539Y-9774436D02*
X13569063Y-9764912D01*
X13673825Y-9879198D02*
X13654777Y-9869674D01*
X13654777Y-9869674D02*
X13645253Y-9860150D01*
X13645253Y-9860150D02*
X13635729Y-9841103D01*
X13635729Y-9841103D02*
X13635729Y-9831579D01*
X13635729Y-9831579D02*
X13645253Y-9812531D01*
X13645253Y-9812531D02*
X13654777Y-9803008D01*
X13654777Y-9803008D02*
X13673825Y-9793484D01*
X13673825Y-9793484D02*
X13711920Y-9793484D01*
X13711920Y-9793484D02*
X13730968Y-9803008D01*
X13730968Y-9803008D02*
X13740491Y-9812531D01*
X13740491Y-9812531D02*
X13750015Y-9831579D01*
X13750015Y-9831579D02*
X13750015Y-9841103D01*
X13750015Y-9841103D02*
X13740491Y-9860150D01*
X13740491Y-9860150D02*
X13730968Y-9869674D01*
X13730968Y-9869674D02*
X13711920Y-9879198D01*
X13711920Y-9879198D02*
X13673825Y-9879198D01*
X13673825Y-9879198D02*
X13654777Y-9888722D01*
X13654777Y-9888722D02*
X13645253Y-9898246D01*
X13645253Y-9898246D02*
X13635729Y-9917293D01*
X13635729Y-9917293D02*
X13635729Y-9955389D01*
X13635729Y-9955389D02*
X13645253Y-9974436D01*
X13645253Y-9974436D02*
X13654777Y-9983960D01*
X13654777Y-9983960D02*
X13673825Y-9993484D01*
X13673825Y-9993484D02*
X13711920Y-9993484D01*
X13711920Y-9993484D02*
X13730968Y-9983960D01*
X13730968Y-9983960D02*
X13740491Y-9974436D01*
X13740491Y-9974436D02*
X13750015Y-9955389D01*
X13750015Y-9955389D02*
X13750015Y-9917293D01*
X13750015Y-9917293D02*
X13740491Y-9898246D01*
X13740491Y-9898246D02*
X13730968Y-9888722D01*
X13730968Y-9888722D02*
X13711920Y-9879198D01*
X13988110Y-9993484D02*
X13988110Y-9793484D01*
X14073825Y-9993484D02*
X14073825Y-9888722D01*
X14073825Y-9888722D02*
X14064301Y-9869674D01*
X14064301Y-9869674D02*
X14045253Y-9860150D01*
X14045253Y-9860150D02*
X14016682Y-9860150D01*
X14016682Y-9860150D02*
X13997634Y-9869674D01*
X13997634Y-9869674D02*
X13988110Y-9879198D01*
X14197634Y-9993484D02*
X14178587Y-9983960D01*
X14178587Y-9983960D02*
X14169063Y-9974436D01*
X14169063Y-9974436D02*
X14159539Y-9955389D01*
X14159539Y-9955389D02*
X14159539Y-9898246D01*
X14159539Y-9898246D02*
X14169063Y-9879198D01*
X14169063Y-9879198D02*
X14178587Y-9869674D01*
X14178587Y-9869674D02*
X14197634Y-9860150D01*
X14197634Y-9860150D02*
X14226206Y-9860150D01*
X14226206Y-9860150D02*
X14245253Y-9869674D01*
X14245253Y-9869674D02*
X14254777Y-9879198D01*
X14254777Y-9879198D02*
X14264301Y-9898246D01*
X14264301Y-9898246D02*
X14264301Y-9955389D01*
X14264301Y-9955389D02*
X14254777Y-9974436D01*
X14254777Y-9974436D02*
X14245253Y-9983960D01*
X14245253Y-9983960D02*
X14226206Y-9993484D01*
X14226206Y-9993484D02*
X14197634Y-9993484D01*
X14378587Y-9993484D02*
X14359539Y-9983960D01*
X14359539Y-9983960D02*
X14350015Y-9964912D01*
X14350015Y-9964912D02*
X14350015Y-9793484D01*
X14530968Y-9983960D02*
X14511920Y-9993484D01*
X14511920Y-9993484D02*
X14473825Y-9993484D01*
X14473825Y-9993484D02*
X14454777Y-9983960D01*
X14454777Y-9983960D02*
X14445253Y-9964912D01*
X14445253Y-9964912D02*
X14445253Y-9888722D01*
X14445253Y-9888722D02*
X14454777Y-9869674D01*
X14454777Y-9869674D02*
X14473825Y-9860150D01*
X14473825Y-9860150D02*
X14511920Y-9860150D01*
X14511920Y-9860150D02*
X14530968Y-9869674D01*
X14530968Y-9869674D02*
X14540491Y-9888722D01*
X14540491Y-9888722D02*
X14540491Y-9907770D01*
X14540491Y-9907770D02*
X14445253Y-9926817D01*
X14616682Y-9983960D02*
X14635730Y-9993484D01*
X14635730Y-9993484D02*
X14673825Y-9993484D01*
X14673825Y-9993484D02*
X14692872Y-9983960D01*
X14692872Y-9983960D02*
X14702396Y-9964912D01*
X14702396Y-9964912D02*
X14702396Y-9955389D01*
X14702396Y-9955389D02*
X14692872Y-9936341D01*
X14692872Y-9936341D02*
X14673825Y-9926817D01*
X14673825Y-9926817D02*
X14645253Y-9926817D01*
X14645253Y-9926817D02*
X14626206Y-9917293D01*
X14626206Y-9917293D02*
X14616682Y-9898246D01*
X14616682Y-9898246D02*
X14616682Y-9888722D01*
X14616682Y-9888722D02*
X14626206Y-9869674D01*
X14626206Y-9869674D02*
X14645253Y-9860150D01*
X14645253Y-9860150D02*
X14673825Y-9860150D01*
X14673825Y-9860150D02*
X14692872Y-9869674D01*
X14769063Y-10069674D02*
X14778587Y-10060150D01*
X14778587Y-10060150D02*
X14797634Y-10031579D01*
X14797634Y-10031579D02*
X14807158Y-10012531D01*
X14807158Y-10012531D02*
X14816682Y-9983960D01*
X14816682Y-9983960D02*
X14826206Y-9936341D01*
X14826206Y-9936341D02*
X14826206Y-9898246D01*
X14826206Y-9898246D02*
X14816682Y-9850627D01*
X14816682Y-9850627D02*
X14807158Y-9822055D01*
X14807158Y-9822055D02*
X14797634Y-9803008D01*
X14797634Y-9803008D02*
X14778587Y-9774436D01*
X14778587Y-9774436D02*
X14769063Y-9764912D01*
X9794000Y-10066000D02*
X9994000Y-10266000D01*
X9994000Y-10066000D02*
X9794000Y-10266000D01*
X9994000Y-10166000D02*
G75*
G02*
X9794000Y-10166000I-100000J0D01*
G01*
X9794000Y-10166000D02*
G75*
G02*
X9994000Y-10166000I100000J0D01*
G01*
X10235729Y-10057484D02*
X10359539Y-10057484D01*
X10359539Y-10057484D02*
X10292872Y-10133674D01*
X10292872Y-10133674D02*
X10321444Y-10133674D01*
X10321444Y-10133674D02*
X10340491Y-10143198D01*
X10340491Y-10143198D02*
X10350015Y-10152722D01*
X10350015Y-10152722D02*
X10359539Y-10171770D01*
X10359539Y-10171770D02*
X10359539Y-10219389D01*
X10359539Y-10219389D02*
X10350015Y-10238436D01*
X10350015Y-10238436D02*
X10340491Y-10247960D01*
X10340491Y-10247960D02*
X10321444Y-10257484D01*
X10321444Y-10257484D02*
X10264301Y-10257484D01*
X10264301Y-10257484D02*
X10245253Y-10247960D01*
X10245253Y-10247960D02*
X10235729Y-10238436D01*
X10445253Y-10238436D02*
X10454777Y-10247960D01*
X10454777Y-10247960D02*
X10445253Y-10257484D01*
X10445253Y-10257484D02*
X10435729Y-10247960D01*
X10435729Y-10247960D02*
X10445253Y-10238436D01*
X10445253Y-10238436D02*
X10445253Y-10257484D01*
X10530967Y-10076531D02*
X10540491Y-10067008D01*
X10540491Y-10067008D02*
X10559539Y-10057484D01*
X10559539Y-10057484D02*
X10607158Y-10057484D01*
X10607158Y-10057484D02*
X10626205Y-10067008D01*
X10626205Y-10067008D02*
X10635729Y-10076531D01*
X10635729Y-10076531D02*
X10645253Y-10095579D01*
X10645253Y-10095579D02*
X10645253Y-10114627D01*
X10645253Y-10114627D02*
X10635729Y-10143198D01*
X10635729Y-10143198D02*
X10521444Y-10257484D01*
X10521444Y-10257484D02*
X10645253Y-10257484D01*
X10769063Y-10057484D02*
X10788110Y-10057484D01*
X10788110Y-10057484D02*
X10807158Y-10067008D01*
X10807158Y-10067008D02*
X10816682Y-10076531D01*
X10816682Y-10076531D02*
X10826205Y-10095579D01*
X10826205Y-10095579D02*
X10835729Y-10133674D01*
X10835729Y-10133674D02*
X10835729Y-10181293D01*
X10835729Y-10181293D02*
X10826205Y-10219389D01*
X10826205Y-10219389D02*
X10816682Y-10238436D01*
X10816682Y-10238436D02*
X10807158Y-10247960D01*
X10807158Y-10247960D02*
X10788110Y-10257484D01*
X10788110Y-10257484D02*
X10769063Y-10257484D01*
X10769063Y-10257484D02*
X10750015Y-10247960D01*
X10750015Y-10247960D02*
X10740491Y-10238436D01*
X10740491Y-10238436D02*
X10730967Y-10219389D01*
X10730967Y-10219389D02*
X10721444Y-10181293D01*
X10721444Y-10181293D02*
X10721444Y-10133674D01*
X10721444Y-10133674D02*
X10730967Y-10095579D01*
X10730967Y-10095579D02*
X10740491Y-10076531D01*
X10740491Y-10076531D02*
X10750015Y-10067008D01*
X10750015Y-10067008D02*
X10769063Y-10057484D01*
X10959539Y-10057484D02*
X10978586Y-10057484D01*
X10978586Y-10057484D02*
X10997634Y-10067008D01*
X10997634Y-10067008D02*
X11007158Y-10076531D01*
X11007158Y-10076531D02*
X11016682Y-10095579D01*
X11016682Y-10095579D02*
X11026205Y-10133674D01*
X11026205Y-10133674D02*
X11026205Y-10181293D01*
X11026205Y-10181293D02*
X11016682Y-10219389D01*
X11016682Y-10219389D02*
X11007158Y-10238436D01*
X11007158Y-10238436D02*
X10997634Y-10247960D01*
X10997634Y-10247960D02*
X10978586Y-10257484D01*
X10978586Y-10257484D02*
X10959539Y-10257484D01*
X10959539Y-10257484D02*
X10940491Y-10247960D01*
X10940491Y-10247960D02*
X10930967Y-10238436D01*
X10930967Y-10238436D02*
X10921444Y-10219389D01*
X10921444Y-10219389D02*
X10911920Y-10181293D01*
X10911920Y-10181293D02*
X10911920Y-10133674D01*
X10911920Y-10133674D02*
X10921444Y-10095579D01*
X10921444Y-10095579D02*
X10930967Y-10076531D01*
X10930967Y-10076531D02*
X10940491Y-10067008D01*
X10940491Y-10067008D02*
X10959539Y-10057484D01*
X11111920Y-10257484D02*
X11111920Y-10124150D01*
X11111920Y-10143198D02*
X11121444Y-10133674D01*
X11121444Y-10133674D02*
X11140491Y-10124150D01*
X11140491Y-10124150D02*
X11169063Y-10124150D01*
X11169063Y-10124150D02*
X11188110Y-10133674D01*
X11188110Y-10133674D02*
X11197634Y-10152722D01*
X11197634Y-10152722D02*
X11197634Y-10257484D01*
X11197634Y-10152722D02*
X11207158Y-10133674D01*
X11207158Y-10133674D02*
X11226205Y-10124150D01*
X11226205Y-10124150D02*
X11254777Y-10124150D01*
X11254777Y-10124150D02*
X11273824Y-10133674D01*
X11273824Y-10133674D02*
X11283348Y-10152722D01*
X11283348Y-10152722D02*
X11283348Y-10257484D01*
X11378586Y-10257484D02*
X11378586Y-10124150D01*
X11378586Y-10143198D02*
X11388110Y-10133674D01*
X11388110Y-10133674D02*
X11407158Y-10124150D01*
X11407158Y-10124150D02*
X11435729Y-10124150D01*
X11435729Y-10124150D02*
X11454777Y-10133674D01*
X11454777Y-10133674D02*
X11464301Y-10152722D01*
X11464301Y-10152722D02*
X11464301Y-10257484D01*
X11464301Y-10152722D02*
X11473824Y-10133674D01*
X11473824Y-10133674D02*
X11492872Y-10124150D01*
X11492872Y-10124150D02*
X11521443Y-10124150D01*
X11521443Y-10124150D02*
X11540491Y-10133674D01*
X11540491Y-10133674D02*
X11550015Y-10152722D01*
X11550015Y-10152722D02*
X11550015Y-10257484D01*
X11940491Y-10047960D02*
X11769063Y-10305103D01*
X12197634Y-10057484D02*
X12216682Y-10057484D01*
X12216682Y-10057484D02*
X12235729Y-10067008D01*
X12235729Y-10067008D02*
X12245253Y-10076531D01*
X12245253Y-10076531D02*
X12254777Y-10095579D01*
X12254777Y-10095579D02*
X12264301Y-10133674D01*
X12264301Y-10133674D02*
X12264301Y-10181293D01*
X12264301Y-10181293D02*
X12254777Y-10219389D01*
X12254777Y-10219389D02*
X12245253Y-10238436D01*
X12245253Y-10238436D02*
X12235729Y-10247960D01*
X12235729Y-10247960D02*
X12216682Y-10257484D01*
X12216682Y-10257484D02*
X12197634Y-10257484D01*
X12197634Y-10257484D02*
X12178586Y-10247960D01*
X12178586Y-10247960D02*
X12169063Y-10238436D01*
X12169063Y-10238436D02*
X12159539Y-10219389D01*
X12159539Y-10219389D02*
X12150015Y-10181293D01*
X12150015Y-10181293D02*
X12150015Y-10133674D01*
X12150015Y-10133674D02*
X12159539Y-10095579D01*
X12159539Y-10095579D02*
X12169063Y-10076531D01*
X12169063Y-10076531D02*
X12178586Y-10067008D01*
X12178586Y-10067008D02*
X12197634Y-10057484D01*
X12350015Y-10238436D02*
X12359539Y-10247960D01*
X12359539Y-10247960D02*
X12350015Y-10257484D01*
X12350015Y-10257484D02*
X12340491Y-10247960D01*
X12340491Y-10247960D02*
X12350015Y-10238436D01*
X12350015Y-10238436D02*
X12350015Y-10257484D01*
X12550015Y-10257484D02*
X12435729Y-10257484D01*
X12492872Y-10257484D02*
X12492872Y-10057484D01*
X12492872Y-10057484D02*
X12473825Y-10086055D01*
X12473825Y-10086055D02*
X12454777Y-10105103D01*
X12454777Y-10105103D02*
X12435729Y-10114627D01*
X12626206Y-10076531D02*
X12635729Y-10067008D01*
X12635729Y-10067008D02*
X12654777Y-10057484D01*
X12654777Y-10057484D02*
X12702396Y-10057484D01*
X12702396Y-10057484D02*
X12721444Y-10067008D01*
X12721444Y-10067008D02*
X12730967Y-10076531D01*
X12730967Y-10076531D02*
X12740491Y-10095579D01*
X12740491Y-10095579D02*
X12740491Y-10114627D01*
X12740491Y-10114627D02*
X12730967Y-10143198D01*
X12730967Y-10143198D02*
X12616682Y-10257484D01*
X12616682Y-10257484D02*
X12740491Y-10257484D01*
X12911920Y-10057484D02*
X12873825Y-10057484D01*
X12873825Y-10057484D02*
X12854777Y-10067008D01*
X12854777Y-10067008D02*
X12845253Y-10076531D01*
X12845253Y-10076531D02*
X12826206Y-10105103D01*
X12826206Y-10105103D02*
X12816682Y-10143198D01*
X12816682Y-10143198D02*
X12816682Y-10219389D01*
X12816682Y-10219389D02*
X12826206Y-10238436D01*
X12826206Y-10238436D02*
X12835729Y-10247960D01*
X12835729Y-10247960D02*
X12854777Y-10257484D01*
X12854777Y-10257484D02*
X12892872Y-10257484D01*
X12892872Y-10257484D02*
X12911920Y-10247960D01*
X12911920Y-10247960D02*
X12921444Y-10238436D01*
X12921444Y-10238436D02*
X12930967Y-10219389D01*
X12930967Y-10219389D02*
X12930967Y-10171770D01*
X12930967Y-10171770D02*
X12921444Y-10152722D01*
X12921444Y-10152722D02*
X12911920Y-10143198D01*
X12911920Y-10143198D02*
X12892872Y-10133674D01*
X12892872Y-10133674D02*
X12854777Y-10133674D01*
X12854777Y-10133674D02*
X12835729Y-10143198D01*
X12835729Y-10143198D02*
X12826206Y-10152722D01*
X12826206Y-10152722D02*
X12816682Y-10171770D01*
X13054777Y-10057484D02*
X13073825Y-10057484D01*
X13073825Y-10057484D02*
X13092872Y-10067008D01*
X13092872Y-10067008D02*
X13102396Y-10076531D01*
X13102396Y-10076531D02*
X13111920Y-10095579D01*
X13111920Y-10095579D02*
X13121444Y-10133674D01*
X13121444Y-10133674D02*
X13121444Y-10181293D01*
X13121444Y-10181293D02*
X13111920Y-10219389D01*
X13111920Y-10219389D02*
X13102396Y-10238436D01*
X13102396Y-10238436D02*
X13092872Y-10247960D01*
X13092872Y-10247960D02*
X13073825Y-10257484D01*
X13073825Y-10257484D02*
X13054777Y-10257484D01*
X13054777Y-10257484D02*
X13035729Y-10247960D01*
X13035729Y-10247960D02*
X13026206Y-10238436D01*
X13026206Y-10238436D02*
X13016682Y-10219389D01*
X13016682Y-10219389D02*
X13007158Y-10181293D01*
X13007158Y-10181293D02*
X13007158Y-10133674D01*
X13007158Y-10133674D02*
X13016682Y-10095579D01*
X13016682Y-10095579D02*
X13026206Y-10076531D01*
X13026206Y-10076531D02*
X13035729Y-10067008D01*
X13035729Y-10067008D02*
X13054777Y-10057484D01*
X13197634Y-10057484D02*
X13197634Y-10095579D01*
X13273825Y-10057484D02*
X13273825Y-10095579D01*
X13569063Y-10333674D02*
X13559539Y-10324150D01*
X13559539Y-10324150D02*
X13540491Y-10295579D01*
X13540491Y-10295579D02*
X13530968Y-10276531D01*
X13530968Y-10276531D02*
X13521444Y-10247960D01*
X13521444Y-10247960D02*
X13511920Y-10200341D01*
X13511920Y-10200341D02*
X13511920Y-10162246D01*
X13511920Y-10162246D02*
X13521444Y-10114627D01*
X13521444Y-10114627D02*
X13530968Y-10086055D01*
X13530968Y-10086055D02*
X13540491Y-10067008D01*
X13540491Y-10067008D02*
X13559539Y-10038436D01*
X13559539Y-10038436D02*
X13569063Y-10028912D01*
X13730968Y-10124150D02*
X13730968Y-10257484D01*
X13683348Y-10047960D02*
X13635729Y-10190817D01*
X13635729Y-10190817D02*
X13759539Y-10190817D01*
X13988110Y-10257484D02*
X13988110Y-10057484D01*
X14073825Y-10257484D02*
X14073825Y-10152722D01*
X14073825Y-10152722D02*
X14064301Y-10133674D01*
X14064301Y-10133674D02*
X14045253Y-10124150D01*
X14045253Y-10124150D02*
X14016682Y-10124150D01*
X14016682Y-10124150D02*
X13997634Y-10133674D01*
X13997634Y-10133674D02*
X13988110Y-10143198D01*
X14197634Y-10257484D02*
X14178587Y-10247960D01*
X14178587Y-10247960D02*
X14169063Y-10238436D01*
X14169063Y-10238436D02*
X14159539Y-10219389D01*
X14159539Y-10219389D02*
X14159539Y-10162246D01*
X14159539Y-10162246D02*
X14169063Y-10143198D01*
X14169063Y-10143198D02*
X14178587Y-10133674D01*
X14178587Y-10133674D02*
X14197634Y-10124150D01*
X14197634Y-10124150D02*
X14226206Y-10124150D01*
X14226206Y-10124150D02*
X14245253Y-10133674D01*
X14245253Y-10133674D02*
X14254777Y-10143198D01*
X14254777Y-10143198D02*
X14264301Y-10162246D01*
X14264301Y-10162246D02*
X14264301Y-10219389D01*
X14264301Y-10219389D02*
X14254777Y-10238436D01*
X14254777Y-10238436D02*
X14245253Y-10247960D01*
X14245253Y-10247960D02*
X14226206Y-10257484D01*
X14226206Y-10257484D02*
X14197634Y-10257484D01*
X14378587Y-10257484D02*
X14359539Y-10247960D01*
X14359539Y-10247960D02*
X14350015Y-10228912D01*
X14350015Y-10228912D02*
X14350015Y-10057484D01*
X14530968Y-10247960D02*
X14511920Y-10257484D01*
X14511920Y-10257484D02*
X14473825Y-10257484D01*
X14473825Y-10257484D02*
X14454777Y-10247960D01*
X14454777Y-10247960D02*
X14445253Y-10228912D01*
X14445253Y-10228912D02*
X14445253Y-10152722D01*
X14445253Y-10152722D02*
X14454777Y-10133674D01*
X14454777Y-10133674D02*
X14473825Y-10124150D01*
X14473825Y-10124150D02*
X14511920Y-10124150D01*
X14511920Y-10124150D02*
X14530968Y-10133674D01*
X14530968Y-10133674D02*
X14540491Y-10152722D01*
X14540491Y-10152722D02*
X14540491Y-10171770D01*
X14540491Y-10171770D02*
X14445253Y-10190817D01*
X14616682Y-10247960D02*
X14635730Y-10257484D01*
X14635730Y-10257484D02*
X14673825Y-10257484D01*
X14673825Y-10257484D02*
X14692872Y-10247960D01*
X14692872Y-10247960D02*
X14702396Y-10228912D01*
X14702396Y-10228912D02*
X14702396Y-10219389D01*
X14702396Y-10219389D02*
X14692872Y-10200341D01*
X14692872Y-10200341D02*
X14673825Y-10190817D01*
X14673825Y-10190817D02*
X14645253Y-10190817D01*
X14645253Y-10190817D02*
X14626206Y-10181293D01*
X14626206Y-10181293D02*
X14616682Y-10162246D01*
X14616682Y-10162246D02*
X14616682Y-10152722D01*
X14616682Y-10152722D02*
X14626206Y-10133674D01*
X14626206Y-10133674D02*
X14645253Y-10124150D01*
X14645253Y-10124150D02*
X14673825Y-10124150D01*
X14673825Y-10124150D02*
X14692872Y-10133674D01*
X14769063Y-10333674D02*
X14778587Y-10324150D01*
X14778587Y-10324150D02*
X14797634Y-10295579D01*
X14797634Y-10295579D02*
X14807158Y-10276531D01*
X14807158Y-10276531D02*
X14816682Y-10247960D01*
X14816682Y-10247960D02*
X14826206Y-10200341D01*
X14826206Y-10200341D02*
X14826206Y-10162246D01*
X14826206Y-10162246D02*
X14816682Y-10114627D01*
X14816682Y-10114627D02*
X14807158Y-10086055D01*
X14807158Y-10086055D02*
X14797634Y-10067008D01*
X14797634Y-10067008D02*
X14778587Y-10038436D01*
X14778587Y-10038436D02*
X14769063Y-10028912D01*
X15130968Y-10333674D02*
X15121444Y-10324150D01*
X15121444Y-10324150D02*
X15102396Y-10295579D01*
X15102396Y-10295579D02*
X15092872Y-10276531D01*
X15092872Y-10276531D02*
X15083349Y-10247960D01*
X15083349Y-10247960D02*
X15073825Y-10200341D01*
X15073825Y-10200341D02*
X15073825Y-10162246D01*
X15073825Y-10162246D02*
X15083349Y-10114627D01*
X15083349Y-10114627D02*
X15092872Y-10086055D01*
X15092872Y-10086055D02*
X15102396Y-10067008D01*
X15102396Y-10067008D02*
X15121444Y-10038436D01*
X15121444Y-10038436D02*
X15130968Y-10028912D01*
X15207158Y-10124150D02*
X15207158Y-10257484D01*
X15207158Y-10143198D02*
X15216682Y-10133674D01*
X15216682Y-10133674D02*
X15235730Y-10124150D01*
X15235730Y-10124150D02*
X15264301Y-10124150D01*
X15264301Y-10124150D02*
X15283349Y-10133674D01*
X15283349Y-10133674D02*
X15292872Y-10152722D01*
X15292872Y-10152722D02*
X15292872Y-10257484D01*
X15416682Y-10257484D02*
X15397634Y-10247960D01*
X15397634Y-10247960D02*
X15388111Y-10238436D01*
X15388111Y-10238436D02*
X15378587Y-10219389D01*
X15378587Y-10219389D02*
X15378587Y-10162246D01*
X15378587Y-10162246D02*
X15388111Y-10143198D01*
X15388111Y-10143198D02*
X15397634Y-10133674D01*
X15397634Y-10133674D02*
X15416682Y-10124150D01*
X15416682Y-10124150D02*
X15445253Y-10124150D01*
X15445253Y-10124150D02*
X15464301Y-10133674D01*
X15464301Y-10133674D02*
X15473825Y-10143198D01*
X15473825Y-10143198D02*
X15483349Y-10162246D01*
X15483349Y-10162246D02*
X15483349Y-10219389D01*
X15483349Y-10219389D02*
X15473825Y-10238436D01*
X15473825Y-10238436D02*
X15464301Y-10247960D01*
X15464301Y-10247960D02*
X15445253Y-10257484D01*
X15445253Y-10257484D02*
X15416682Y-10257484D01*
X15540492Y-10124150D02*
X15616682Y-10124150D01*
X15569063Y-10057484D02*
X15569063Y-10228912D01*
X15569063Y-10228912D02*
X15578587Y-10247960D01*
X15578587Y-10247960D02*
X15597634Y-10257484D01*
X15597634Y-10257484D02*
X15616682Y-10257484D01*
X15835730Y-10124150D02*
X15835730Y-10324150D01*
X15835730Y-10133674D02*
X15854777Y-10124150D01*
X15854777Y-10124150D02*
X15892873Y-10124150D01*
X15892873Y-10124150D02*
X15911920Y-10133674D01*
X15911920Y-10133674D02*
X15921444Y-10143198D01*
X15921444Y-10143198D02*
X15930968Y-10162246D01*
X15930968Y-10162246D02*
X15930968Y-10219389D01*
X15930968Y-10219389D02*
X15921444Y-10238436D01*
X15921444Y-10238436D02*
X15911920Y-10247960D01*
X15911920Y-10247960D02*
X15892873Y-10257484D01*
X15892873Y-10257484D02*
X15854777Y-10257484D01*
X15854777Y-10257484D02*
X15835730Y-10247960D01*
X16045253Y-10257484D02*
X16026206Y-10247960D01*
X16026206Y-10247960D02*
X16016682Y-10228912D01*
X16016682Y-10228912D02*
X16016682Y-10057484D01*
X16207158Y-10257484D02*
X16207158Y-10152722D01*
X16207158Y-10152722D02*
X16197634Y-10133674D01*
X16197634Y-10133674D02*
X16178587Y-10124150D01*
X16178587Y-10124150D02*
X16140492Y-10124150D01*
X16140492Y-10124150D02*
X16121444Y-10133674D01*
X16207158Y-10247960D02*
X16188111Y-10257484D01*
X16188111Y-10257484D02*
X16140492Y-10257484D01*
X16140492Y-10257484D02*
X16121444Y-10247960D01*
X16121444Y-10247960D02*
X16111920Y-10228912D01*
X16111920Y-10228912D02*
X16111920Y-10209865D01*
X16111920Y-10209865D02*
X16121444Y-10190817D01*
X16121444Y-10190817D02*
X16140492Y-10181293D01*
X16140492Y-10181293D02*
X16188111Y-10181293D01*
X16188111Y-10181293D02*
X16207158Y-10171770D01*
X16273825Y-10124150D02*
X16350015Y-10124150D01*
X16302396Y-10057484D02*
X16302396Y-10228912D01*
X16302396Y-10228912D02*
X16311920Y-10247960D01*
X16311920Y-10247960D02*
X16330968Y-10257484D01*
X16330968Y-10257484D02*
X16350015Y-10257484D01*
X16492873Y-10247960D02*
X16473825Y-10257484D01*
X16473825Y-10257484D02*
X16435730Y-10257484D01*
X16435730Y-10257484D02*
X16416682Y-10247960D01*
X16416682Y-10247960D02*
X16407158Y-10228912D01*
X16407158Y-10228912D02*
X16407158Y-10152722D01*
X16407158Y-10152722D02*
X16416682Y-10133674D01*
X16416682Y-10133674D02*
X16435730Y-10124150D01*
X16435730Y-10124150D02*
X16473825Y-10124150D01*
X16473825Y-10124150D02*
X16492873Y-10133674D01*
X16492873Y-10133674D02*
X16502396Y-10152722D01*
X16502396Y-10152722D02*
X16502396Y-10171770D01*
X16502396Y-10171770D02*
X16407158Y-10190817D01*
X16673825Y-10257484D02*
X16673825Y-10057484D01*
X16673825Y-10247960D02*
X16654777Y-10257484D01*
X16654777Y-10257484D02*
X16616682Y-10257484D01*
X16616682Y-10257484D02*
X16597634Y-10247960D01*
X16597634Y-10247960D02*
X16588111Y-10238436D01*
X16588111Y-10238436D02*
X16578587Y-10219389D01*
X16578587Y-10219389D02*
X16578587Y-10162246D01*
X16578587Y-10162246D02*
X16588111Y-10143198D01*
X16588111Y-10143198D02*
X16597634Y-10133674D01*
X16597634Y-10133674D02*
X16616682Y-10124150D01*
X16616682Y-10124150D02*
X16654777Y-10124150D01*
X16654777Y-10124150D02*
X16673825Y-10133674D01*
X16750015Y-10333674D02*
X16759539Y-10324150D01*
X16759539Y-10324150D02*
X16778587Y-10295579D01*
X16778587Y-10295579D02*
X16788111Y-10276531D01*
X16788111Y-10276531D02*
X16797635Y-10247960D01*
X16797635Y-10247960D02*
X16807158Y-10200341D01*
X16807158Y-10200341D02*
X16807158Y-10162246D01*
X16807158Y-10162246D02*
X16797635Y-10114627D01*
X16797635Y-10114627D02*
X16788111Y-10086055D01*
X16788111Y-10086055D02*
X16778587Y-10067008D01*
X16778587Y-10067008D02*
X16759539Y-10038436D01*
X16759539Y-10038436D02*
X16750015Y-10028912D01*
M02*
