%TF.GenerationSoftware,KiCad,Pcbnew,10.0.3*%
%TF.CreationDate,2026-08-03T17:17:34-07:00*%
%TF.ProjectId,isolator,69736f6c-6174-46f7-922e-6b696361645f,rev?*%
%TF.SameCoordinates,Original*%
%TF.FileFunction,Legend,Top*%
%TF.FilePolarity,Positive*%
%FSLAX46Y46*%
G04 Gerber Fmt 4.6, Leading zero omitted, Abs format (unit mm)*
G04 Created by KiCad (PCBNEW 10.0.3) date 2026-08-03 17:17:34*
%MOMM*%
%LPD*%
G01*
G04 APERTURE LIST*
%ADD10C,0.110000*%
%ADD11C,0.000000*%
%ADD12C,0.200000*%
%ADD13C,0.140000*%
%ADD14C,0.180000*%
%ADD15C,0.130000*%
%ADD16C,0.150000*%
%ADD17C,0.120000*%
G04 APERTURE END LIST*
D10*
X109433334Y-53218113D02*
X109566667Y-53218113D01*
X109566667Y-53218113D02*
X109633334Y-53251446D01*
X109633334Y-53251446D02*
X109700000Y-53318113D01*
X109700000Y-53318113D02*
X109733334Y-53451446D01*
X109733334Y-53451446D02*
X109733334Y-53684780D01*
X109733334Y-53684780D02*
X109700000Y-53818113D01*
X109700000Y-53818113D02*
X109633334Y-53884780D01*
X109633334Y-53884780D02*
X109566667Y-53918113D01*
X109566667Y-53918113D02*
X109433334Y-53918113D01*
X109433334Y-53918113D02*
X109366667Y-53884780D01*
X109366667Y-53884780D02*
X109300000Y-53818113D01*
X109300000Y-53818113D02*
X109266667Y-53684780D01*
X109266667Y-53684780D02*
X109266667Y-53451446D01*
X109266667Y-53451446D02*
X109300000Y-53318113D01*
X109300000Y-53318113D02*
X109366667Y-53251446D01*
X109366667Y-53251446D02*
X109433334Y-53218113D01*
X112223333Y-53251446D02*
X112156666Y-53218113D01*
X112156666Y-53218113D02*
X112056666Y-53218113D01*
X112056666Y-53218113D02*
X111956666Y-53251446D01*
X111956666Y-53251446D02*
X111890000Y-53318113D01*
X111890000Y-53318113D02*
X111856666Y-53384780D01*
X111856666Y-53384780D02*
X111823333Y-53518113D01*
X111823333Y-53518113D02*
X111823333Y-53618113D01*
X111823333Y-53618113D02*
X111856666Y-53751446D01*
X111856666Y-53751446D02*
X111890000Y-53818113D01*
X111890000Y-53818113D02*
X111956666Y-53884780D01*
X111956666Y-53884780D02*
X112056666Y-53918113D01*
X112056666Y-53918113D02*
X112123333Y-53918113D01*
X112123333Y-53918113D02*
X112223333Y-53884780D01*
X112223333Y-53884780D02*
X112256666Y-53851446D01*
X112256666Y-53851446D02*
X112256666Y-53618113D01*
X112256666Y-53618113D02*
X112123333Y-53618113D01*
X114580000Y-53918113D02*
X114580000Y-53218113D01*
X112083333Y-61418113D02*
X112516666Y-61418113D01*
X112516666Y-61418113D02*
X112283333Y-61684780D01*
X112283333Y-61684780D02*
X112383333Y-61684780D01*
X112383333Y-61684780D02*
X112449999Y-61718113D01*
X112449999Y-61718113D02*
X112483333Y-61751446D01*
X112483333Y-61751446D02*
X112516666Y-61818113D01*
X112516666Y-61818113D02*
X112516666Y-61984780D01*
X112516666Y-61984780D02*
X112483333Y-62051446D01*
X112483333Y-62051446D02*
X112449999Y-62084780D01*
X112449999Y-62084780D02*
X112383333Y-62118113D01*
X112383333Y-62118113D02*
X112183333Y-62118113D01*
X112183333Y-62118113D02*
X112116666Y-62084780D01*
X112116666Y-62084780D02*
X112083333Y-62051446D01*
X112750000Y-61418113D02*
X113183333Y-61418113D01*
X113183333Y-61418113D02*
X112950000Y-61684780D01*
X112950000Y-61684780D02*
X113050000Y-61684780D01*
X113050000Y-61684780D02*
X113116666Y-61718113D01*
X113116666Y-61718113D02*
X113150000Y-61751446D01*
X113150000Y-61751446D02*
X113183333Y-61818113D01*
X113183333Y-61818113D02*
X113183333Y-61984780D01*
X113183333Y-61984780D02*
X113150000Y-62051446D01*
X113150000Y-62051446D02*
X113116666Y-62084780D01*
X113116666Y-62084780D02*
X113050000Y-62118113D01*
X113050000Y-62118113D02*
X112850000Y-62118113D01*
X112850000Y-62118113D02*
X112783333Y-62084780D01*
X112783333Y-62084780D02*
X112750000Y-62051446D01*
X113616667Y-61418113D02*
X113683333Y-61418113D01*
X113683333Y-61418113D02*
X113750000Y-61451446D01*
X113750000Y-61451446D02*
X113783333Y-61484780D01*
X113783333Y-61484780D02*
X113816667Y-61551446D01*
X113816667Y-61551446D02*
X113850000Y-61684780D01*
X113850000Y-61684780D02*
X113850000Y-61851446D01*
X113850000Y-61851446D02*
X113816667Y-61984780D01*
X113816667Y-61984780D02*
X113783333Y-62051446D01*
X113783333Y-62051446D02*
X113750000Y-62084780D01*
X113750000Y-62084780D02*
X113683333Y-62118113D01*
X113683333Y-62118113D02*
X113616667Y-62118113D01*
X113616667Y-62118113D02*
X113550000Y-62084780D01*
X113550000Y-62084780D02*
X113516667Y-62051446D01*
X113516667Y-62051446D02*
X113483333Y-61984780D01*
X113483333Y-61984780D02*
X113450000Y-61851446D01*
X113450000Y-61851446D02*
X113450000Y-61684780D01*
X113450000Y-61684780D02*
X113483333Y-61551446D01*
X113483333Y-61551446D02*
X113516667Y-61484780D01*
X113516667Y-61484780D02*
X113550000Y-61451446D01*
X113550000Y-61451446D02*
X113616667Y-61418113D01*
X114150000Y-61651446D02*
X114150000Y-62118113D01*
X114150000Y-61718113D02*
X114183334Y-61684780D01*
X114183334Y-61684780D02*
X114250000Y-61651446D01*
X114250000Y-61651446D02*
X114350000Y-61651446D01*
X114350000Y-61651446D02*
X114416667Y-61684780D01*
X114416667Y-61684780D02*
X114450000Y-61751446D01*
X114450000Y-61751446D02*
X114450000Y-62118113D01*
X117918113Y-60083333D02*
X117918113Y-60483333D01*
X117918113Y-60283333D02*
X117218113Y-60283333D01*
X117218113Y-60283333D02*
X117318113Y-60350000D01*
X117318113Y-60350000D02*
X117384780Y-60416667D01*
X117384780Y-60416667D02*
X117418113Y-60483333D01*
X117218113Y-59650000D02*
X117218113Y-59583333D01*
X117218113Y-59583333D02*
X117251446Y-59516666D01*
X117251446Y-59516666D02*
X117284780Y-59483333D01*
X117284780Y-59483333D02*
X117351446Y-59450000D01*
X117351446Y-59450000D02*
X117484780Y-59416666D01*
X117484780Y-59416666D02*
X117651446Y-59416666D01*
X117651446Y-59416666D02*
X117784780Y-59450000D01*
X117784780Y-59450000D02*
X117851446Y-59483333D01*
X117851446Y-59483333D02*
X117884780Y-59516666D01*
X117884780Y-59516666D02*
X117918113Y-59583333D01*
X117918113Y-59583333D02*
X117918113Y-59650000D01*
X117918113Y-59650000D02*
X117884780Y-59716666D01*
X117884780Y-59716666D02*
X117851446Y-59750000D01*
X117851446Y-59750000D02*
X117784780Y-59783333D01*
X117784780Y-59783333D02*
X117651446Y-59816666D01*
X117651446Y-59816666D02*
X117484780Y-59816666D01*
X117484780Y-59816666D02*
X117351446Y-59783333D01*
X117351446Y-59783333D02*
X117284780Y-59750000D01*
X117284780Y-59750000D02*
X117251446Y-59716666D01*
X117251446Y-59716666D02*
X117218113Y-59650000D01*
X117218113Y-58983333D02*
X117218113Y-58916666D01*
X117218113Y-58916666D02*
X117251446Y-58849999D01*
X117251446Y-58849999D02*
X117284780Y-58816666D01*
X117284780Y-58816666D02*
X117351446Y-58783333D01*
X117351446Y-58783333D02*
X117484780Y-58749999D01*
X117484780Y-58749999D02*
X117651446Y-58749999D01*
X117651446Y-58749999D02*
X117784780Y-58783333D01*
X117784780Y-58783333D02*
X117851446Y-58816666D01*
X117851446Y-58816666D02*
X117884780Y-58849999D01*
X117884780Y-58849999D02*
X117918113Y-58916666D01*
X117918113Y-58916666D02*
X117918113Y-58983333D01*
X117918113Y-58983333D02*
X117884780Y-59049999D01*
X117884780Y-59049999D02*
X117851446Y-59083333D01*
X117851446Y-59083333D02*
X117784780Y-59116666D01*
X117784780Y-59116666D02*
X117651446Y-59149999D01*
X117651446Y-59149999D02*
X117484780Y-59149999D01*
X117484780Y-59149999D02*
X117351446Y-59116666D01*
X117351446Y-59116666D02*
X117284780Y-59083333D01*
X117284780Y-59083333D02*
X117251446Y-59049999D01*
X117251446Y-59049999D02*
X117218113Y-58983333D01*
X117451446Y-58449999D02*
X117918113Y-58449999D01*
X117518113Y-58449999D02*
X117484780Y-58416666D01*
X117484780Y-58416666D02*
X117451446Y-58349999D01*
X117451446Y-58349999D02*
X117451446Y-58249999D01*
X117451446Y-58249999D02*
X117484780Y-58183332D01*
X117484780Y-58183332D02*
X117551446Y-58149999D01*
X117551446Y-58149999D02*
X117918113Y-58149999D01*
X133218113Y-60083333D02*
X133218113Y-60483333D01*
X133218113Y-60283333D02*
X132518113Y-60283333D01*
X132518113Y-60283333D02*
X132618113Y-60350000D01*
X132618113Y-60350000D02*
X132684780Y-60416667D01*
X132684780Y-60416667D02*
X132718113Y-60483333D01*
X132518113Y-59650000D02*
X132518113Y-59583333D01*
X132518113Y-59583333D02*
X132551446Y-59516666D01*
X132551446Y-59516666D02*
X132584780Y-59483333D01*
X132584780Y-59483333D02*
X132651446Y-59450000D01*
X132651446Y-59450000D02*
X132784780Y-59416666D01*
X132784780Y-59416666D02*
X132951446Y-59416666D01*
X132951446Y-59416666D02*
X133084780Y-59450000D01*
X133084780Y-59450000D02*
X133151446Y-59483333D01*
X133151446Y-59483333D02*
X133184780Y-59516666D01*
X133184780Y-59516666D02*
X133218113Y-59583333D01*
X133218113Y-59583333D02*
X133218113Y-59650000D01*
X133218113Y-59650000D02*
X133184780Y-59716666D01*
X133184780Y-59716666D02*
X133151446Y-59750000D01*
X133151446Y-59750000D02*
X133084780Y-59783333D01*
X133084780Y-59783333D02*
X132951446Y-59816666D01*
X132951446Y-59816666D02*
X132784780Y-59816666D01*
X132784780Y-59816666D02*
X132651446Y-59783333D01*
X132651446Y-59783333D02*
X132584780Y-59750000D01*
X132584780Y-59750000D02*
X132551446Y-59716666D01*
X132551446Y-59716666D02*
X132518113Y-59650000D01*
X132518113Y-58983333D02*
X132518113Y-58916666D01*
X132518113Y-58916666D02*
X132551446Y-58849999D01*
X132551446Y-58849999D02*
X132584780Y-58816666D01*
X132584780Y-58816666D02*
X132651446Y-58783333D01*
X132651446Y-58783333D02*
X132784780Y-58749999D01*
X132784780Y-58749999D02*
X132951446Y-58749999D01*
X132951446Y-58749999D02*
X133084780Y-58783333D01*
X133084780Y-58783333D02*
X133151446Y-58816666D01*
X133151446Y-58816666D02*
X133184780Y-58849999D01*
X133184780Y-58849999D02*
X133218113Y-58916666D01*
X133218113Y-58916666D02*
X133218113Y-58983333D01*
X133218113Y-58983333D02*
X133184780Y-59049999D01*
X133184780Y-59049999D02*
X133151446Y-59083333D01*
X133151446Y-59083333D02*
X133084780Y-59116666D01*
X133084780Y-59116666D02*
X132951446Y-59149999D01*
X132951446Y-59149999D02*
X132784780Y-59149999D01*
X132784780Y-59149999D02*
X132651446Y-59116666D01*
X132651446Y-59116666D02*
X132584780Y-59083333D01*
X132584780Y-59083333D02*
X132551446Y-59049999D01*
X132551446Y-59049999D02*
X132518113Y-58983333D01*
X132751446Y-58449999D02*
X133218113Y-58449999D01*
X132818113Y-58449999D02*
X132784780Y-58416666D01*
X132784780Y-58416666D02*
X132751446Y-58349999D01*
X132751446Y-58349999D02*
X132751446Y-58249999D01*
X132751446Y-58249999D02*
X132784780Y-58183332D01*
X132784780Y-58183332D02*
X132851446Y-58149999D01*
X132851446Y-58149999D02*
X133218113Y-58149999D01*
X117106666Y-78718113D02*
X116706666Y-78718113D01*
X116906666Y-78718113D02*
X116906666Y-78018113D01*
X116906666Y-78018113D02*
X116839999Y-78118113D01*
X116839999Y-78118113D02*
X116773333Y-78184780D01*
X116773333Y-78184780D02*
X116706666Y-78218113D01*
X117406666Y-78718113D02*
X117406666Y-78018113D01*
X117473333Y-78451446D02*
X117673333Y-78718113D01*
X117673333Y-78251446D02*
X117406666Y-78518113D01*
X109096667Y-78818113D02*
X108763333Y-78818113D01*
X108763333Y-78818113D02*
X108730000Y-79151446D01*
X108730000Y-79151446D02*
X108763333Y-79118113D01*
X108763333Y-79118113D02*
X108830000Y-79084780D01*
X108830000Y-79084780D02*
X108996667Y-79084780D01*
X108996667Y-79084780D02*
X109063333Y-79118113D01*
X109063333Y-79118113D02*
X109096667Y-79151446D01*
X109096667Y-79151446D02*
X109130000Y-79218113D01*
X109130000Y-79218113D02*
X109130000Y-79384780D01*
X109130000Y-79384780D02*
X109096667Y-79451446D01*
X109096667Y-79451446D02*
X109063333Y-79484780D01*
X109063333Y-79484780D02*
X108996667Y-79518113D01*
X108996667Y-79518113D02*
X108830000Y-79518113D01*
X108830000Y-79518113D02*
X108763333Y-79484780D01*
X108763333Y-79484780D02*
X108730000Y-79451446D01*
X109330000Y-78818113D02*
X109563334Y-79518113D01*
X109563334Y-79518113D02*
X109796667Y-78818113D01*
X110696667Y-78818113D02*
X110830000Y-78818113D01*
X110830000Y-78818113D02*
X110896667Y-78851446D01*
X110896667Y-78851446D02*
X110963333Y-78918113D01*
X110963333Y-78918113D02*
X110996667Y-79051446D01*
X110996667Y-79051446D02*
X110996667Y-79284780D01*
X110996667Y-79284780D02*
X110963333Y-79418113D01*
X110963333Y-79418113D02*
X110896667Y-79484780D01*
X110896667Y-79484780D02*
X110830000Y-79518113D01*
X110830000Y-79518113D02*
X110696667Y-79518113D01*
X110696667Y-79518113D02*
X110630000Y-79484780D01*
X110630000Y-79484780D02*
X110563333Y-79418113D01*
X110563333Y-79418113D02*
X110530000Y-79284780D01*
X110530000Y-79284780D02*
X110530000Y-79051446D01*
X110530000Y-79051446D02*
X110563333Y-78918113D01*
X110563333Y-78918113D02*
X110630000Y-78851446D01*
X110630000Y-78851446D02*
X110696667Y-78818113D01*
X111296666Y-79518113D02*
X111296666Y-78818113D01*
X111296666Y-78818113D02*
X111696666Y-79518113D01*
X111696666Y-79518113D02*
X111696666Y-78818113D01*
D11*
G36*
X129823000Y-72659000D02*
G01*
X129879000Y-72708000D01*
X129955000Y-72864000D01*
X130163000Y-72907000D01*
X130231000Y-72899000D01*
X130352000Y-72782000D01*
X130455000Y-72780000D01*
X130691000Y-72890000D01*
X130765000Y-73141000D01*
X130849000Y-73227000D01*
X130963000Y-73266000D01*
X131176000Y-73225000D01*
X131254000Y-73270000D01*
X131421000Y-73461000D01*
X131386000Y-73696000D01*
X131423000Y-73801000D01*
X131502000Y-73879000D01*
X131698000Y-73919000D01*
X131775000Y-73992000D01*
X131858000Y-74243000D01*
X131735000Y-74446000D01*
X131731000Y-74559000D01*
X131778000Y-74664000D01*
X131948000Y-74777000D01*
X131974000Y-74865000D01*
X131960000Y-75137000D01*
X131776000Y-75275000D01*
X131728000Y-75382000D01*
X131744000Y-75500000D01*
X131827000Y-75607000D01*
X131849000Y-75754000D01*
X131802000Y-75886000D01*
X131704000Y-75980000D01*
X131493000Y-76045000D01*
X131400000Y-76172000D01*
X131379000Y-76270000D01*
X131432000Y-76433000D01*
X131366000Y-76542000D01*
X131164000Y-76709000D01*
X131006000Y-76660000D01*
X130843000Y-76702000D01*
X130739000Y-76828000D01*
X130723000Y-76990000D01*
X130625000Y-77074000D01*
X130401000Y-77151000D01*
X130235000Y-77034000D01*
X130073000Y-77023000D01*
X129930000Y-77099000D01*
X129839000Y-77255000D01*
X129748000Y-77282000D01*
X129501000Y-77266000D01*
X129441000Y-77213000D01*
X129389000Y-77080000D01*
X129172000Y-77016000D01*
X129086000Y-77028000D01*
X128975000Y-77142000D01*
X128872000Y-77145000D01*
X128628000Y-77024000D01*
X128566000Y-76786000D01*
X128485000Y-76702000D01*
X128376000Y-76664000D01*
X128164000Y-76709000D01*
X128079000Y-76664000D01*
X127908000Y-76473000D01*
X127947000Y-76229000D01*
X127909000Y-76126000D01*
X127785000Y-76026000D01*
X127601000Y-75993000D01*
X127541000Y-75918000D01*
X127466000Y-75688000D01*
X127591000Y-75482000D01*
X127597000Y-75372000D01*
X127555000Y-75271000D01*
X127368000Y-75141000D01*
X127336000Y-75003000D01*
X127350583Y-74913000D01*
X128468000Y-74913000D01*
X128506000Y-75237000D01*
X128563000Y-75404000D01*
X128735000Y-75708000D01*
X128843000Y-75832000D01*
X129103000Y-76019000D01*
X129254000Y-76082000D01*
X129599000Y-76145000D01*
X129784000Y-76143000D01*
X130118000Y-76067000D01*
X130265000Y-75995000D01*
X130520000Y-75784000D01*
X130720000Y-75486000D01*
X130793000Y-75314000D01*
X130838000Y-75143000D01*
X130847000Y-74811000D01*
X130812000Y-74649000D01*
X130665000Y-74337000D01*
X130370000Y-74012000D01*
X130160000Y-73885000D01*
X129932000Y-73808000D01*
X129693000Y-73781000D01*
X129451000Y-73803000D01*
X129213000Y-73875000D01*
X128987000Y-73997000D01*
X128779000Y-74168000D01*
X128588000Y-74454000D01*
X128525000Y-74603000D01*
X128468000Y-74913000D01*
X127350583Y-74913000D01*
X127371000Y-74787000D01*
X127519000Y-74700000D01*
X127596000Y-74560000D01*
X127572000Y-74399000D01*
X127477000Y-74283000D01*
X127474000Y-74167000D01*
X127582000Y-73946000D01*
X127828000Y-73879000D01*
X127906000Y-73803000D01*
X127941000Y-73700000D01*
X127893000Y-73494000D01*
X127937000Y-73403000D01*
X128133000Y-73229000D01*
X128363000Y-73266000D01*
X128477000Y-73225000D01*
X128586000Y-73091000D01*
X128606000Y-72931000D01*
X128698000Y-72850000D01*
X128916000Y-72774000D01*
X128999000Y-72808000D01*
X129109000Y-72911000D01*
X129322000Y-72878000D01*
X129402000Y-72834000D01*
X129480000Y-72674000D01*
X129595000Y-72645000D01*
X129823000Y-72659000D01*
G37*
G36*
X130367000Y-71217000D02*
G01*
X130430000Y-71378000D01*
X130662000Y-72201000D01*
X130967000Y-72340000D01*
X131601000Y-72358000D01*
X131700000Y-72393000D01*
X131772000Y-72468000D01*
X131814000Y-72614000D01*
X131703000Y-72867000D01*
X132027000Y-73265000D01*
X132270000Y-73663000D01*
X132332000Y-73706000D01*
X132725000Y-73728000D01*
X132749000Y-73832000D01*
X132731000Y-73915000D01*
X132678000Y-73940000D01*
X132407000Y-73939000D01*
X132451000Y-74072000D01*
X132804000Y-74090000D01*
X132886000Y-74040000D01*
X132884000Y-73560000D01*
X132786000Y-73346000D01*
X132840000Y-73312000D01*
X135119000Y-73310000D01*
X135411000Y-73413000D01*
X135543000Y-73572000D01*
X135621000Y-73819000D01*
X135702000Y-74312000D01*
X135278000Y-74442000D01*
X134973000Y-74603000D01*
X134713000Y-74829000D01*
X134434000Y-75173000D01*
X132268000Y-75176000D01*
X132212000Y-75110000D01*
X132195000Y-74653000D01*
X132077000Y-74139000D01*
X131922000Y-73777000D01*
X131654000Y-73356000D01*
X131314000Y-73006000D01*
X130902000Y-72729000D01*
X130326000Y-72501000D01*
X129988000Y-72429000D01*
X129655000Y-72403000D01*
X129329000Y-72423000D01*
X129007000Y-72490000D01*
X128692000Y-72601000D01*
X128384000Y-72758000D01*
X128081000Y-72959000D01*
X127542000Y-73495000D01*
X127476000Y-73518000D01*
X127380000Y-73494000D01*
X127324000Y-73445000D01*
X127290000Y-73352000D01*
X127340000Y-73212000D01*
X127542000Y-72971000D01*
X127994000Y-72575000D01*
X128507000Y-72289000D01*
X129082000Y-72113000D01*
X129530000Y-72054000D01*
X130085000Y-72054000D01*
X129951000Y-71444000D01*
X129965000Y-71248000D01*
X130047000Y-71157000D01*
X130222000Y-71123000D01*
X130367000Y-71217000D01*
G37*
G36*
X132588000Y-71308000D02*
G01*
X132608000Y-71385000D01*
X132554000Y-71488000D01*
X132401000Y-71634000D01*
X132393000Y-71726000D01*
X132681000Y-71995000D01*
X132926000Y-71832000D01*
X133142000Y-71815000D01*
X136611000Y-72177000D01*
X136924000Y-72262000D01*
X137048000Y-72340000D01*
X137223000Y-72561000D01*
X137290000Y-72853000D01*
X137003000Y-74731000D01*
X136942000Y-74736000D01*
X136483000Y-74449000D01*
X135954000Y-74312000D01*
X135790000Y-73667000D01*
X135695000Y-73423000D01*
X135541000Y-73246000D01*
X135401759Y-73173000D01*
X136574000Y-73173000D01*
X136610000Y-73419000D01*
X136662000Y-73503000D01*
X136722000Y-73519000D01*
X136777000Y-73459000D01*
X136834000Y-73264000D01*
X136834000Y-73132000D01*
X136779000Y-72936000D01*
X136725000Y-72877000D01*
X136641000Y-72912000D01*
X136591000Y-73017000D01*
X136574000Y-73173000D01*
X135401759Y-73173000D01*
X135335000Y-73138000D01*
X135077000Y-73101000D01*
X132820000Y-73103000D01*
X132680000Y-73077000D01*
X132609000Y-73004000D01*
X132379000Y-72545000D01*
X132376000Y-72416000D01*
X132470000Y-72251000D01*
X132473000Y-72193000D01*
X132215000Y-71927000D01*
X132141000Y-71920000D01*
X131963000Y-72103000D01*
X131879000Y-72145000D01*
X131801000Y-72130000D01*
X131756000Y-72086000D01*
X131754000Y-71956000D01*
X132374000Y-71302000D01*
X132492000Y-71243000D01*
X132588000Y-71308000D01*
G37*
G36*
X136077000Y-74547000D02*
G01*
X136349000Y-74619000D01*
X136600000Y-74745000D01*
X136822000Y-74918000D01*
X137006000Y-75133000D01*
X137142000Y-75384000D01*
X137224000Y-75666000D01*
X137243000Y-76001000D01*
X137189000Y-76310000D01*
X137070000Y-76587000D01*
X136895000Y-76826000D01*
X136674000Y-77021000D01*
X136418000Y-77166000D01*
X136134000Y-77255000D01*
X135832000Y-77283000D01*
X135583000Y-77255000D01*
X135348000Y-77183000D01*
X135132000Y-77071000D01*
X134940000Y-76924000D01*
X134776000Y-76746000D01*
X134645000Y-76541000D01*
X134552000Y-76313000D01*
X134501000Y-76066000D01*
X134493574Y-75849000D01*
X135098000Y-75849000D01*
X135140000Y-76171000D01*
X135310000Y-76439000D01*
X135553000Y-76613000D01*
X135840000Y-76680000D01*
X136144000Y-76630000D01*
X136396000Y-76471000D01*
X136568000Y-76235000D01*
X136644000Y-75958000D01*
X136607000Y-75674000D01*
X136445000Y-75395000D01*
X136211000Y-75209000D01*
X135930000Y-75130000D01*
X135628000Y-75170000D01*
X135355000Y-75325000D01*
X135175000Y-75559000D01*
X135098000Y-75849000D01*
X134493574Y-75849000D01*
X134492000Y-75803000D01*
X134599000Y-75372000D01*
X134689000Y-75188000D01*
X134942000Y-74884000D01*
X135105000Y-74763000D01*
X135505000Y-74586000D01*
X135793000Y-74534000D01*
X136077000Y-74547000D01*
G37*
G36*
X129865000Y-74475000D02*
G01*
X130022000Y-74577000D01*
X130135000Y-74740000D01*
X130183000Y-74932000D01*
X130128000Y-75210000D01*
X130015000Y-75360000D01*
X129836000Y-75465000D01*
X129624000Y-75493000D01*
X129421000Y-75439000D01*
X129256000Y-75309000D01*
X129152000Y-75110000D01*
X129135000Y-74894000D01*
X129205000Y-74697000D01*
X129357000Y-74537000D01*
X129461000Y-74477000D01*
X129674000Y-74440000D01*
X129865000Y-74475000D01*
G37*
G36*
X136051000Y-75614000D02*
G01*
X136150000Y-75709000D01*
X136205000Y-75844000D01*
X136204000Y-75981000D01*
X136151000Y-76103000D01*
X136054000Y-76196000D01*
X135929000Y-76243000D01*
X135808000Y-76243000D01*
X135647000Y-76169000D01*
X135571000Y-76076000D01*
X135529000Y-75955000D01*
X135535000Y-75834000D01*
X135588000Y-75719000D01*
X135688000Y-75614000D01*
X135920000Y-75571000D01*
X136051000Y-75614000D01*
G37*
D12*
X123600000Y-51000000D02*
X123600000Y-81000000D01*
X126400000Y-51000000D02*
X126400000Y-81000000D01*
D13*
X125409077Y-77649999D02*
X124509077Y-77649999D01*
X125366220Y-77264285D02*
X125409077Y-77135714D01*
X125409077Y-77135714D02*
X125409077Y-76921428D01*
X125409077Y-76921428D02*
X125366220Y-76835714D01*
X125366220Y-76835714D02*
X125323362Y-76792856D01*
X125323362Y-76792856D02*
X125237648Y-76749999D01*
X125237648Y-76749999D02*
X125151934Y-76749999D01*
X125151934Y-76749999D02*
X125066220Y-76792856D01*
X125066220Y-76792856D02*
X125023362Y-76835714D01*
X125023362Y-76835714D02*
X124980505Y-76921428D01*
X124980505Y-76921428D02*
X124937648Y-77092856D01*
X124937648Y-77092856D02*
X124894791Y-77178571D01*
X124894791Y-77178571D02*
X124851934Y-77221428D01*
X124851934Y-77221428D02*
X124766220Y-77264285D01*
X124766220Y-77264285D02*
X124680505Y-77264285D01*
X124680505Y-77264285D02*
X124594791Y-77221428D01*
X124594791Y-77221428D02*
X124551934Y-77178571D01*
X124551934Y-77178571D02*
X124509077Y-77092856D01*
X124509077Y-77092856D02*
X124509077Y-76878571D01*
X124509077Y-76878571D02*
X124551934Y-76749999D01*
X124509077Y-76192856D02*
X124509077Y-76021428D01*
X124509077Y-76021428D02*
X124551934Y-75935713D01*
X124551934Y-75935713D02*
X124637648Y-75849999D01*
X124637648Y-75849999D02*
X124809077Y-75807142D01*
X124809077Y-75807142D02*
X125109077Y-75807142D01*
X125109077Y-75807142D02*
X125280505Y-75849999D01*
X125280505Y-75849999D02*
X125366220Y-75935713D01*
X125366220Y-75935713D02*
X125409077Y-76021428D01*
X125409077Y-76021428D02*
X125409077Y-76192856D01*
X125409077Y-76192856D02*
X125366220Y-76278571D01*
X125366220Y-76278571D02*
X125280505Y-76364285D01*
X125280505Y-76364285D02*
X125109077Y-76407142D01*
X125109077Y-76407142D02*
X124809077Y-76407142D01*
X124809077Y-76407142D02*
X124637648Y-76364285D01*
X124637648Y-76364285D02*
X124551934Y-76278571D01*
X124551934Y-76278571D02*
X124509077Y-76192856D01*
X125409077Y-74992856D02*
X125409077Y-75421428D01*
X125409077Y-75421428D02*
X124509077Y-75421428D01*
X125151934Y-74735714D02*
X125151934Y-74307143D01*
X125409077Y-74821428D02*
X124509077Y-74521428D01*
X124509077Y-74521428D02*
X125409077Y-74221428D01*
X124509077Y-74049999D02*
X124509077Y-73535714D01*
X125409077Y-73792856D02*
X124509077Y-73792856D01*
X125409077Y-73235714D02*
X124509077Y-73235714D01*
X124509077Y-72635714D02*
X124509077Y-72464286D01*
X124509077Y-72464286D02*
X124551934Y-72378571D01*
X124551934Y-72378571D02*
X124637648Y-72292857D01*
X124637648Y-72292857D02*
X124809077Y-72250000D01*
X124809077Y-72250000D02*
X125109077Y-72250000D01*
X125109077Y-72250000D02*
X125280505Y-72292857D01*
X125280505Y-72292857D02*
X125366220Y-72378571D01*
X125366220Y-72378571D02*
X125409077Y-72464286D01*
X125409077Y-72464286D02*
X125409077Y-72635714D01*
X125409077Y-72635714D02*
X125366220Y-72721429D01*
X125366220Y-72721429D02*
X125280505Y-72807143D01*
X125280505Y-72807143D02*
X125109077Y-72850000D01*
X125109077Y-72850000D02*
X124809077Y-72850000D01*
X124809077Y-72850000D02*
X124637648Y-72807143D01*
X124637648Y-72807143D02*
X124551934Y-72721429D01*
X124551934Y-72721429D02*
X124509077Y-72635714D01*
X125409077Y-71864286D02*
X124509077Y-71864286D01*
X124509077Y-71864286D02*
X125409077Y-71350000D01*
X125409077Y-71350000D02*
X124509077Y-71350000D01*
D14*
X109352381Y-52299520D02*
X109352381Y-51199520D01*
X109980953Y-52299520D02*
X109509524Y-51670949D01*
X109980953Y-51199520D02*
X109352381Y-51828092D01*
X110452381Y-51723330D02*
X110819048Y-51723330D01*
X110976191Y-52299520D02*
X110452381Y-52299520D01*
X110452381Y-52299520D02*
X110452381Y-51199520D01*
X110452381Y-51199520D02*
X110976191Y-51199520D01*
X111971429Y-52299520D02*
X111447619Y-52299520D01*
X111447619Y-52299520D02*
X111447619Y-51199520D01*
X112861905Y-52299520D02*
X112338095Y-52299520D01*
X112338095Y-52299520D02*
X112338095Y-51199520D01*
X113438095Y-51775711D02*
X113438095Y-52299520D01*
X113071428Y-51199520D02*
X113438095Y-51775711D01*
X113438095Y-51775711D02*
X113804762Y-51199520D01*
X135142857Y-51723330D02*
X135509524Y-51723330D01*
X135666667Y-52299520D02*
X135142857Y-52299520D01*
X135142857Y-52299520D02*
X135142857Y-51199520D01*
X135142857Y-51199520D02*
X135666667Y-51199520D01*
X136085714Y-52247140D02*
X136242857Y-52299520D01*
X136242857Y-52299520D02*
X136504762Y-52299520D01*
X136504762Y-52299520D02*
X136609524Y-52247140D01*
X136609524Y-52247140D02*
X136661905Y-52194759D01*
X136661905Y-52194759D02*
X136714286Y-52089997D01*
X136714286Y-52089997D02*
X136714286Y-51985235D01*
X136714286Y-51985235D02*
X136661905Y-51880473D01*
X136661905Y-51880473D02*
X136609524Y-51828092D01*
X136609524Y-51828092D02*
X136504762Y-51775711D01*
X136504762Y-51775711D02*
X136295238Y-51723330D01*
X136295238Y-51723330D02*
X136190476Y-51670949D01*
X136190476Y-51670949D02*
X136138095Y-51618568D01*
X136138095Y-51618568D02*
X136085714Y-51513806D01*
X136085714Y-51513806D02*
X136085714Y-51409044D01*
X136085714Y-51409044D02*
X136138095Y-51304282D01*
X136138095Y-51304282D02*
X136190476Y-51251901D01*
X136190476Y-51251901D02*
X136295238Y-51199520D01*
X136295238Y-51199520D02*
X136557143Y-51199520D01*
X136557143Y-51199520D02*
X136714286Y-51251901D01*
X137185714Y-52299520D02*
X137185714Y-51199520D01*
X137185714Y-51199520D02*
X137604762Y-51199520D01*
X137604762Y-51199520D02*
X137709524Y-51251901D01*
X137709524Y-51251901D02*
X137761905Y-51304282D01*
X137761905Y-51304282D02*
X137814286Y-51409044D01*
X137814286Y-51409044D02*
X137814286Y-51566187D01*
X137814286Y-51566187D02*
X137761905Y-51670949D01*
X137761905Y-51670949D02*
X137709524Y-51723330D01*
X137709524Y-51723330D02*
X137604762Y-51775711D01*
X137604762Y-51775711D02*
X137185714Y-51775711D01*
X138180952Y-51199520D02*
X138861905Y-51199520D01*
X138861905Y-51199520D02*
X138495238Y-51618568D01*
X138495238Y-51618568D02*
X138652381Y-51618568D01*
X138652381Y-51618568D02*
X138757143Y-51670949D01*
X138757143Y-51670949D02*
X138809524Y-51723330D01*
X138809524Y-51723330D02*
X138861905Y-51828092D01*
X138861905Y-51828092D02*
X138861905Y-52089997D01*
X138861905Y-52089997D02*
X138809524Y-52194759D01*
X138809524Y-52194759D02*
X138757143Y-52247140D01*
X138757143Y-52247140D02*
X138652381Y-52299520D01*
X138652381Y-52299520D02*
X138338095Y-52299520D01*
X138338095Y-52299520D02*
X138233333Y-52247140D01*
X138233333Y-52247140D02*
X138180952Y-52194759D01*
X139280952Y-51304282D02*
X139333333Y-51251901D01*
X139333333Y-51251901D02*
X139438095Y-51199520D01*
X139438095Y-51199520D02*
X139700000Y-51199520D01*
X139700000Y-51199520D02*
X139804762Y-51251901D01*
X139804762Y-51251901D02*
X139857143Y-51304282D01*
X139857143Y-51304282D02*
X139909524Y-51409044D01*
X139909524Y-51409044D02*
X139909524Y-51513806D01*
X139909524Y-51513806D02*
X139857143Y-51670949D01*
X139857143Y-51670949D02*
X139228571Y-52299520D01*
X139228571Y-52299520D02*
X139909524Y-52299520D01*
D13*
X132592857Y-78109077D02*
X132592857Y-78837648D01*
X132592857Y-78837648D02*
X132635714Y-78923362D01*
X132635714Y-78923362D02*
X132678572Y-78966220D01*
X132678572Y-78966220D02*
X132764286Y-79009077D01*
X132764286Y-79009077D02*
X132935714Y-79009077D01*
X132935714Y-79009077D02*
X133021429Y-78966220D01*
X133021429Y-78966220D02*
X133064286Y-78923362D01*
X133064286Y-78923362D02*
X133107143Y-78837648D01*
X133107143Y-78837648D02*
X133107143Y-78109077D01*
X133492857Y-78751934D02*
X133921429Y-78751934D01*
X133407143Y-79009077D02*
X133707143Y-78109077D01*
X133707143Y-78109077D02*
X134007143Y-79009077D01*
X134821429Y-79009077D02*
X134521429Y-78580505D01*
X134307143Y-79009077D02*
X134307143Y-78109077D01*
X134307143Y-78109077D02*
X134650000Y-78109077D01*
X134650000Y-78109077D02*
X134735715Y-78151934D01*
X134735715Y-78151934D02*
X134778572Y-78194791D01*
X134778572Y-78194791D02*
X134821429Y-78280505D01*
X134821429Y-78280505D02*
X134821429Y-78409077D01*
X134821429Y-78409077D02*
X134778572Y-78494791D01*
X134778572Y-78494791D02*
X134735715Y-78537648D01*
X134735715Y-78537648D02*
X134650000Y-78580505D01*
X134650000Y-78580505D02*
X134307143Y-78580505D01*
X135078572Y-78109077D02*
X135592858Y-78109077D01*
X135335715Y-79009077D02*
X135335715Y-78109077D01*
X136578571Y-79009077D02*
X136578571Y-78109077D01*
X136964285Y-78966220D02*
X137092857Y-79009077D01*
X137092857Y-79009077D02*
X137307142Y-79009077D01*
X137307142Y-79009077D02*
X137392857Y-78966220D01*
X137392857Y-78966220D02*
X137435714Y-78923362D01*
X137435714Y-78923362D02*
X137478571Y-78837648D01*
X137478571Y-78837648D02*
X137478571Y-78751934D01*
X137478571Y-78751934D02*
X137435714Y-78666220D01*
X137435714Y-78666220D02*
X137392857Y-78623362D01*
X137392857Y-78623362D02*
X137307142Y-78580505D01*
X137307142Y-78580505D02*
X137135714Y-78537648D01*
X137135714Y-78537648D02*
X137049999Y-78494791D01*
X137049999Y-78494791D02*
X137007142Y-78451934D01*
X137007142Y-78451934D02*
X136964285Y-78366220D01*
X136964285Y-78366220D02*
X136964285Y-78280505D01*
X136964285Y-78280505D02*
X137007142Y-78194791D01*
X137007142Y-78194791D02*
X137049999Y-78151934D01*
X137049999Y-78151934D02*
X137135714Y-78109077D01*
X137135714Y-78109077D02*
X137349999Y-78109077D01*
X137349999Y-78109077D02*
X137478571Y-78151934D01*
X138035714Y-78109077D02*
X138207142Y-78109077D01*
X138207142Y-78109077D02*
X138292857Y-78151934D01*
X138292857Y-78151934D02*
X138378571Y-78237648D01*
X138378571Y-78237648D02*
X138421428Y-78409077D01*
X138421428Y-78409077D02*
X138421428Y-78709077D01*
X138421428Y-78709077D02*
X138378571Y-78880505D01*
X138378571Y-78880505D02*
X138292857Y-78966220D01*
X138292857Y-78966220D02*
X138207142Y-79009077D01*
X138207142Y-79009077D02*
X138035714Y-79009077D01*
X138035714Y-79009077D02*
X137950000Y-78966220D01*
X137950000Y-78966220D02*
X137864285Y-78880505D01*
X137864285Y-78880505D02*
X137821428Y-78709077D01*
X137821428Y-78709077D02*
X137821428Y-78409077D01*
X137821428Y-78409077D02*
X137864285Y-78237648D01*
X137864285Y-78237648D02*
X137950000Y-78151934D01*
X137950000Y-78151934D02*
X138035714Y-78109077D01*
X139235714Y-79009077D02*
X138807142Y-79009077D01*
X138807142Y-79009077D02*
X138807142Y-78109077D01*
X139492856Y-78751934D02*
X139921428Y-78751934D01*
X139407142Y-79009077D02*
X139707142Y-78109077D01*
X139707142Y-78109077D02*
X140007142Y-79009077D01*
X140178571Y-78109077D02*
X140692857Y-78109077D01*
X140435714Y-79009077D02*
X140435714Y-78109077D01*
X141164285Y-78109077D02*
X141335713Y-78109077D01*
X141335713Y-78109077D02*
X141421428Y-78151934D01*
X141421428Y-78151934D02*
X141507142Y-78237648D01*
X141507142Y-78237648D02*
X141549999Y-78409077D01*
X141549999Y-78409077D02*
X141549999Y-78709077D01*
X141549999Y-78709077D02*
X141507142Y-78880505D01*
X141507142Y-78880505D02*
X141421428Y-78966220D01*
X141421428Y-78966220D02*
X141335713Y-79009077D01*
X141335713Y-79009077D02*
X141164285Y-79009077D01*
X141164285Y-79009077D02*
X141078571Y-78966220D01*
X141078571Y-78966220D02*
X140992856Y-78880505D01*
X140992856Y-78880505D02*
X140949999Y-78709077D01*
X140949999Y-78709077D02*
X140949999Y-78409077D01*
X140949999Y-78409077D02*
X140992856Y-78237648D01*
X140992856Y-78237648D02*
X141078571Y-78151934D01*
X141078571Y-78151934D02*
X141164285Y-78109077D01*
X142449999Y-79009077D02*
X142149999Y-78580505D01*
X141935713Y-79009077D02*
X141935713Y-78109077D01*
X141935713Y-78109077D02*
X142278570Y-78109077D01*
X142278570Y-78109077D02*
X142364285Y-78151934D01*
X142364285Y-78151934D02*
X142407142Y-78194791D01*
X142407142Y-78194791D02*
X142449999Y-78280505D01*
X142449999Y-78280505D02*
X142449999Y-78409077D01*
X142449999Y-78409077D02*
X142407142Y-78494791D01*
X142407142Y-78494791D02*
X142364285Y-78537648D01*
X142364285Y-78537648D02*
X142278570Y-78580505D01*
X142278570Y-78580505D02*
X141935713Y-78580505D01*
X134199999Y-80551934D02*
X134628571Y-80551934D01*
X134114285Y-80809077D02*
X134414285Y-79909077D01*
X134414285Y-79909077D02*
X134714285Y-80809077D01*
X135014285Y-80809077D02*
X135014285Y-79909077D01*
X135014285Y-79909077D02*
X135228571Y-79909077D01*
X135228571Y-79909077D02*
X135357142Y-79951934D01*
X135357142Y-79951934D02*
X135442857Y-80037648D01*
X135442857Y-80037648D02*
X135485714Y-80123362D01*
X135485714Y-80123362D02*
X135528571Y-80294791D01*
X135528571Y-80294791D02*
X135528571Y-80423362D01*
X135528571Y-80423362D02*
X135485714Y-80594791D01*
X135485714Y-80594791D02*
X135442857Y-80680505D01*
X135442857Y-80680505D02*
X135357142Y-80766220D01*
X135357142Y-80766220D02*
X135228571Y-80809077D01*
X135228571Y-80809077D02*
X135014285Y-80809077D01*
X136300000Y-80209077D02*
X136300000Y-80809077D01*
X135914285Y-80209077D02*
X135914285Y-80680505D01*
X135914285Y-80680505D02*
X135957142Y-80766220D01*
X135957142Y-80766220D02*
X136042857Y-80809077D01*
X136042857Y-80809077D02*
X136171428Y-80809077D01*
X136171428Y-80809077D02*
X136257142Y-80766220D01*
X136257142Y-80766220D02*
X136300000Y-80723362D01*
X136728571Y-80809077D02*
X136728571Y-79909077D01*
X136728571Y-79909077D02*
X137028571Y-80551934D01*
X137028571Y-80551934D02*
X137328571Y-79909077D01*
X137328571Y-79909077D02*
X137328571Y-80809077D01*
X138228571Y-80809077D02*
X137714285Y-80809077D01*
X137971428Y-80809077D02*
X137971428Y-79909077D01*
X137971428Y-79909077D02*
X137885714Y-80037648D01*
X137885714Y-80037648D02*
X137799999Y-80123362D01*
X137799999Y-80123362D02*
X137714285Y-80166220D01*
X138571428Y-79994791D02*
X138614285Y-79951934D01*
X138614285Y-79951934D02*
X138700000Y-79909077D01*
X138700000Y-79909077D02*
X138914285Y-79909077D01*
X138914285Y-79909077D02*
X139000000Y-79951934D01*
X139000000Y-79951934D02*
X139042857Y-79994791D01*
X139042857Y-79994791D02*
X139085714Y-80080505D01*
X139085714Y-80080505D02*
X139085714Y-80166220D01*
X139085714Y-80166220D02*
X139042857Y-80294791D01*
X139042857Y-80294791D02*
X138528571Y-80809077D01*
X138528571Y-80809077D02*
X139085714Y-80809077D01*
X139642857Y-79909077D02*
X139728571Y-79909077D01*
X139728571Y-79909077D02*
X139814285Y-79951934D01*
X139814285Y-79951934D02*
X139857143Y-79994791D01*
X139857143Y-79994791D02*
X139900000Y-80080505D01*
X139900000Y-80080505D02*
X139942857Y-80251934D01*
X139942857Y-80251934D02*
X139942857Y-80466220D01*
X139942857Y-80466220D02*
X139900000Y-80637648D01*
X139900000Y-80637648D02*
X139857143Y-80723362D01*
X139857143Y-80723362D02*
X139814285Y-80766220D01*
X139814285Y-80766220D02*
X139728571Y-80809077D01*
X139728571Y-80809077D02*
X139642857Y-80809077D01*
X139642857Y-80809077D02*
X139557143Y-80766220D01*
X139557143Y-80766220D02*
X139514285Y-80723362D01*
X139514285Y-80723362D02*
X139471428Y-80637648D01*
X139471428Y-80637648D02*
X139428571Y-80466220D01*
X139428571Y-80466220D02*
X139428571Y-80251934D01*
X139428571Y-80251934D02*
X139471428Y-80080505D01*
X139471428Y-80080505D02*
X139514285Y-79994791D01*
X139514285Y-79994791D02*
X139557143Y-79951934D01*
X139557143Y-79951934D02*
X139642857Y-79909077D01*
X140800000Y-80809077D02*
X140285714Y-80809077D01*
X140542857Y-80809077D02*
X140542857Y-79909077D01*
X140542857Y-79909077D02*
X140457143Y-80037648D01*
X140457143Y-80037648D02*
X140371428Y-80123362D01*
X140371428Y-80123362D02*
X140285714Y-80166220D01*
D15*
X109195049Y-58363335D02*
X108737906Y-58363335D01*
X108966478Y-58363335D02*
X108966478Y-57563335D01*
X108966478Y-57563335D02*
X108890287Y-57677620D01*
X108890287Y-57677620D02*
X108814097Y-57753811D01*
X108814097Y-57753811D02*
X108737906Y-57791906D01*
X109499811Y-57639525D02*
X109537907Y-57601430D01*
X109537907Y-57601430D02*
X109614097Y-57563335D01*
X109614097Y-57563335D02*
X109804573Y-57563335D01*
X109804573Y-57563335D02*
X109880764Y-57601430D01*
X109880764Y-57601430D02*
X109918859Y-57639525D01*
X109918859Y-57639525D02*
X109956954Y-57715716D01*
X109956954Y-57715716D02*
X109956954Y-57791906D01*
X109956954Y-57791906D02*
X109918859Y-57906192D01*
X109918859Y-57906192D02*
X109461716Y-58363335D01*
X109461716Y-58363335D02*
X109956954Y-58363335D01*
X110185526Y-57563335D02*
X110452193Y-58363335D01*
X110452193Y-58363335D02*
X110718859Y-57563335D01*
X111823621Y-58668097D02*
X111785526Y-58630001D01*
X111785526Y-58630001D02*
X111709335Y-58515716D01*
X111709335Y-58515716D02*
X111671240Y-58439525D01*
X111671240Y-58439525D02*
X111633145Y-58325240D01*
X111633145Y-58325240D02*
X111595050Y-58134763D01*
X111595050Y-58134763D02*
X111595050Y-57982382D01*
X111595050Y-57982382D02*
X111633145Y-57791906D01*
X111633145Y-57791906D02*
X111671240Y-57677620D01*
X111671240Y-57677620D02*
X111709335Y-57601430D01*
X111709335Y-57601430D02*
X111785526Y-57487144D01*
X111785526Y-57487144D02*
X111823621Y-57449049D01*
X112585526Y-58363335D02*
X112318859Y-57982382D01*
X112128383Y-58363335D02*
X112128383Y-57563335D01*
X112128383Y-57563335D02*
X112433145Y-57563335D01*
X112433145Y-57563335D02*
X112509335Y-57601430D01*
X112509335Y-57601430D02*
X112547430Y-57639525D01*
X112547430Y-57639525D02*
X112585526Y-57715716D01*
X112585526Y-57715716D02*
X112585526Y-57830001D01*
X112585526Y-57830001D02*
X112547430Y-57906192D01*
X112547430Y-57906192D02*
X112509335Y-57944287D01*
X112509335Y-57944287D02*
X112433145Y-57982382D01*
X112433145Y-57982382D02*
X112128383Y-57982382D01*
X112928383Y-57944287D02*
X113195049Y-57944287D01*
X113309335Y-58363335D02*
X112928383Y-58363335D01*
X112928383Y-58363335D02*
X112928383Y-57563335D01*
X112928383Y-57563335D02*
X113309335Y-57563335D01*
X113652193Y-58363335D02*
X113652193Y-57563335D01*
X113652193Y-57563335D02*
X113842669Y-57563335D01*
X113842669Y-57563335D02*
X113956955Y-57601430D01*
X113956955Y-57601430D02*
X114033145Y-57677620D01*
X114033145Y-57677620D02*
X114071240Y-57753811D01*
X114071240Y-57753811D02*
X114109336Y-57906192D01*
X114109336Y-57906192D02*
X114109336Y-58020478D01*
X114109336Y-58020478D02*
X114071240Y-58172859D01*
X114071240Y-58172859D02*
X114033145Y-58249049D01*
X114033145Y-58249049D02*
X113956955Y-58325240D01*
X113956955Y-58325240D02*
X113842669Y-58363335D01*
X113842669Y-58363335D02*
X113652193Y-58363335D01*
X114376002Y-58668097D02*
X114414097Y-58630001D01*
X114414097Y-58630001D02*
X114490288Y-58515716D01*
X114490288Y-58515716D02*
X114528383Y-58439525D01*
X114528383Y-58439525D02*
X114566478Y-58325240D01*
X114566478Y-58325240D02*
X114604574Y-58134763D01*
X114604574Y-58134763D02*
X114604574Y-57982382D01*
X114604574Y-57982382D02*
X114566478Y-57791906D01*
X114566478Y-57791906D02*
X114528383Y-57677620D01*
X114528383Y-57677620D02*
X114490288Y-57601430D01*
X114490288Y-57601430D02*
X114414097Y-57487144D01*
X114414097Y-57487144D02*
X114376002Y-57449049D01*
X108661716Y-62563335D02*
X108928383Y-63363335D01*
X108928383Y-63363335D02*
X109195049Y-62563335D01*
X109614097Y-62563335D02*
X109766478Y-62563335D01*
X109766478Y-62563335D02*
X109842668Y-62601430D01*
X109842668Y-62601430D02*
X109918859Y-62677620D01*
X109918859Y-62677620D02*
X109956954Y-62830001D01*
X109956954Y-62830001D02*
X109956954Y-63096668D01*
X109956954Y-63096668D02*
X109918859Y-63249049D01*
X109918859Y-63249049D02*
X109842668Y-63325240D01*
X109842668Y-63325240D02*
X109766478Y-63363335D01*
X109766478Y-63363335D02*
X109614097Y-63363335D01*
X109614097Y-63363335D02*
X109537906Y-63325240D01*
X109537906Y-63325240D02*
X109461716Y-63249049D01*
X109461716Y-63249049D02*
X109423620Y-63096668D01*
X109423620Y-63096668D02*
X109423620Y-62830001D01*
X109423620Y-62830001D02*
X109461716Y-62677620D01*
X109461716Y-62677620D02*
X109537906Y-62601430D01*
X109537906Y-62601430D02*
X109614097Y-62563335D01*
X110261715Y-63134763D02*
X110642668Y-63134763D01*
X110185525Y-63363335D02*
X110452192Y-62563335D01*
X110452192Y-62563335D02*
X110718858Y-63363335D01*
X111823620Y-63668097D02*
X111785525Y-63630001D01*
X111785525Y-63630001D02*
X111709334Y-63515716D01*
X111709334Y-63515716D02*
X111671239Y-63439525D01*
X111671239Y-63439525D02*
X111633144Y-63325240D01*
X111633144Y-63325240D02*
X111595049Y-63134763D01*
X111595049Y-63134763D02*
X111595049Y-62982382D01*
X111595049Y-62982382D02*
X111633144Y-62791906D01*
X111633144Y-62791906D02*
X111671239Y-62677620D01*
X111671239Y-62677620D02*
X111709334Y-62601430D01*
X111709334Y-62601430D02*
X111785525Y-62487144D01*
X111785525Y-62487144D02*
X111823620Y-62449049D01*
X112395048Y-62944287D02*
X112509334Y-62982382D01*
X112509334Y-62982382D02*
X112547429Y-63020478D01*
X112547429Y-63020478D02*
X112585525Y-63096668D01*
X112585525Y-63096668D02*
X112585525Y-63210954D01*
X112585525Y-63210954D02*
X112547429Y-63287144D01*
X112547429Y-63287144D02*
X112509334Y-63325240D01*
X112509334Y-63325240D02*
X112433144Y-63363335D01*
X112433144Y-63363335D02*
X112128382Y-63363335D01*
X112128382Y-63363335D02*
X112128382Y-62563335D01*
X112128382Y-62563335D02*
X112395048Y-62563335D01*
X112395048Y-62563335D02*
X112471239Y-62601430D01*
X112471239Y-62601430D02*
X112509334Y-62639525D01*
X112509334Y-62639525D02*
X112547429Y-62715716D01*
X112547429Y-62715716D02*
X112547429Y-62791906D01*
X112547429Y-62791906D02*
X112509334Y-62868097D01*
X112509334Y-62868097D02*
X112471239Y-62906192D01*
X112471239Y-62906192D02*
X112395048Y-62944287D01*
X112395048Y-62944287D02*
X112128382Y-62944287D01*
X113309334Y-63363335D02*
X112928382Y-63363335D01*
X112928382Y-63363335D02*
X112928382Y-62563335D01*
X113576001Y-62563335D02*
X113576001Y-63210954D01*
X113576001Y-63210954D02*
X113614096Y-63287144D01*
X113614096Y-63287144D02*
X113652191Y-63325240D01*
X113652191Y-63325240D02*
X113728382Y-63363335D01*
X113728382Y-63363335D02*
X113880763Y-63363335D01*
X113880763Y-63363335D02*
X113956953Y-63325240D01*
X113956953Y-63325240D02*
X113995048Y-63287144D01*
X113995048Y-63287144D02*
X114033144Y-63210954D01*
X114033144Y-63210954D02*
X114033144Y-62563335D01*
X114337905Y-63668097D02*
X114376000Y-63630001D01*
X114376000Y-63630001D02*
X114452191Y-63515716D01*
X114452191Y-63515716D02*
X114490286Y-63439525D01*
X114490286Y-63439525D02*
X114528381Y-63325240D01*
X114528381Y-63325240D02*
X114566477Y-63134763D01*
X114566477Y-63134763D02*
X114566477Y-62982382D01*
X114566477Y-62982382D02*
X114528381Y-62791906D01*
X114528381Y-62791906D02*
X114490286Y-62677620D01*
X114490286Y-62677620D02*
X114452191Y-62601430D01*
X114452191Y-62601430D02*
X114376000Y-62487144D01*
X114376000Y-62487144D02*
X114337905Y-62449049D01*
X108661716Y-67563335D02*
X108928383Y-68363335D01*
X108928383Y-68363335D02*
X109195049Y-67563335D01*
X109461716Y-68363335D02*
X109461716Y-67563335D01*
X110109334Y-67944287D02*
X110223620Y-67982382D01*
X110223620Y-67982382D02*
X110261715Y-68020478D01*
X110261715Y-68020478D02*
X110299811Y-68096668D01*
X110299811Y-68096668D02*
X110299811Y-68210954D01*
X110299811Y-68210954D02*
X110261715Y-68287144D01*
X110261715Y-68287144D02*
X110223620Y-68325240D01*
X110223620Y-68325240D02*
X110147430Y-68363335D01*
X110147430Y-68363335D02*
X109842668Y-68363335D01*
X109842668Y-68363335D02*
X109842668Y-67563335D01*
X109842668Y-67563335D02*
X110109334Y-67563335D01*
X110109334Y-67563335D02*
X110185525Y-67601430D01*
X110185525Y-67601430D02*
X110223620Y-67639525D01*
X110223620Y-67639525D02*
X110261715Y-67715716D01*
X110261715Y-67715716D02*
X110261715Y-67791906D01*
X110261715Y-67791906D02*
X110223620Y-67868097D01*
X110223620Y-67868097D02*
X110185525Y-67906192D01*
X110185525Y-67906192D02*
X110109334Y-67944287D01*
X110109334Y-67944287D02*
X109842668Y-67944287D01*
X111480763Y-68668097D02*
X111442668Y-68630001D01*
X111442668Y-68630001D02*
X111366477Y-68515716D01*
X111366477Y-68515716D02*
X111328382Y-68439525D01*
X111328382Y-68439525D02*
X111290287Y-68325240D01*
X111290287Y-68325240D02*
X111252192Y-68134763D01*
X111252192Y-68134763D02*
X111252192Y-67982382D01*
X111252192Y-67982382D02*
X111290287Y-67791906D01*
X111290287Y-67791906D02*
X111328382Y-67677620D01*
X111328382Y-67677620D02*
X111366477Y-67601430D01*
X111366477Y-67601430D02*
X111442668Y-67487144D01*
X111442668Y-67487144D02*
X111480763Y-67449049D01*
X112204572Y-67601430D02*
X112128382Y-67563335D01*
X112128382Y-67563335D02*
X112014096Y-67563335D01*
X112014096Y-67563335D02*
X111899810Y-67601430D01*
X111899810Y-67601430D02*
X111823620Y-67677620D01*
X111823620Y-67677620D02*
X111785525Y-67753811D01*
X111785525Y-67753811D02*
X111747429Y-67906192D01*
X111747429Y-67906192D02*
X111747429Y-68020478D01*
X111747429Y-68020478D02*
X111785525Y-68172859D01*
X111785525Y-68172859D02*
X111823620Y-68249049D01*
X111823620Y-68249049D02*
X111899810Y-68325240D01*
X111899810Y-68325240D02*
X112014096Y-68363335D01*
X112014096Y-68363335D02*
X112090287Y-68363335D01*
X112090287Y-68363335D02*
X112204572Y-68325240D01*
X112204572Y-68325240D02*
X112242668Y-68287144D01*
X112242668Y-68287144D02*
X112242668Y-68020478D01*
X112242668Y-68020478D02*
X112090287Y-68020478D01*
X113042668Y-68363335D02*
X112776001Y-67982382D01*
X112585525Y-68363335D02*
X112585525Y-67563335D01*
X112585525Y-67563335D02*
X112890287Y-67563335D01*
X112890287Y-67563335D02*
X112966477Y-67601430D01*
X112966477Y-67601430D02*
X113004572Y-67639525D01*
X113004572Y-67639525D02*
X113042668Y-67715716D01*
X113042668Y-67715716D02*
X113042668Y-67830001D01*
X113042668Y-67830001D02*
X113004572Y-67906192D01*
X113004572Y-67906192D02*
X112966477Y-67944287D01*
X112966477Y-67944287D02*
X112890287Y-67982382D01*
X112890287Y-67982382D02*
X112585525Y-67982382D01*
X113385525Y-68363335D02*
X113385525Y-67563335D01*
X113385525Y-67563335D02*
X113842668Y-68363335D01*
X113842668Y-68363335D02*
X113842668Y-67563335D01*
X114147429Y-68668097D02*
X114185524Y-68630001D01*
X114185524Y-68630001D02*
X114261715Y-68515716D01*
X114261715Y-68515716D02*
X114299810Y-68439525D01*
X114299810Y-68439525D02*
X114337905Y-68325240D01*
X114337905Y-68325240D02*
X114376001Y-68134763D01*
X114376001Y-68134763D02*
X114376001Y-67982382D01*
X114376001Y-67982382D02*
X114337905Y-67791906D01*
X114337905Y-67791906D02*
X114299810Y-67677620D01*
X114299810Y-67677620D02*
X114261715Y-67601430D01*
X114261715Y-67601430D02*
X114185524Y-67487144D01*
X114185524Y-67487144D02*
X114147429Y-67449049D01*
X109195049Y-72601430D02*
X109118859Y-72563335D01*
X109118859Y-72563335D02*
X109004573Y-72563335D01*
X109004573Y-72563335D02*
X108890287Y-72601430D01*
X108890287Y-72601430D02*
X108814097Y-72677620D01*
X108814097Y-72677620D02*
X108776002Y-72753811D01*
X108776002Y-72753811D02*
X108737906Y-72906192D01*
X108737906Y-72906192D02*
X108737906Y-73020478D01*
X108737906Y-73020478D02*
X108776002Y-73172859D01*
X108776002Y-73172859D02*
X108814097Y-73249049D01*
X108814097Y-73249049D02*
X108890287Y-73325240D01*
X108890287Y-73325240D02*
X109004573Y-73363335D01*
X109004573Y-73363335D02*
X109080764Y-73363335D01*
X109080764Y-73363335D02*
X109195049Y-73325240D01*
X109195049Y-73325240D02*
X109233145Y-73287144D01*
X109233145Y-73287144D02*
X109233145Y-73020478D01*
X109233145Y-73020478D02*
X109080764Y-73020478D01*
X109576002Y-73363335D02*
X109576002Y-72563335D01*
X109576002Y-72563335D02*
X110033145Y-73363335D01*
X110033145Y-73363335D02*
X110033145Y-72563335D01*
X110414097Y-73363335D02*
X110414097Y-72563335D01*
X110414097Y-72563335D02*
X110604573Y-72563335D01*
X110604573Y-72563335D02*
X110718859Y-72601430D01*
X110718859Y-72601430D02*
X110795049Y-72677620D01*
X110795049Y-72677620D02*
X110833144Y-72753811D01*
X110833144Y-72753811D02*
X110871240Y-72906192D01*
X110871240Y-72906192D02*
X110871240Y-73020478D01*
X110871240Y-73020478D02*
X110833144Y-73172859D01*
X110833144Y-73172859D02*
X110795049Y-73249049D01*
X110795049Y-73249049D02*
X110718859Y-73325240D01*
X110718859Y-73325240D02*
X110604573Y-73363335D01*
X110604573Y-73363335D02*
X110414097Y-73363335D01*
X111633144Y-73363335D02*
X111176001Y-73363335D01*
X111404573Y-73363335D02*
X111404573Y-72563335D01*
X111404573Y-72563335D02*
X111328382Y-72677620D01*
X111328382Y-72677620D02*
X111252192Y-72753811D01*
X111252192Y-72753811D02*
X111176001Y-72791906D01*
X112814097Y-73668097D02*
X112776002Y-73630001D01*
X112776002Y-73630001D02*
X112699811Y-73515716D01*
X112699811Y-73515716D02*
X112661716Y-73439525D01*
X112661716Y-73439525D02*
X112623621Y-73325240D01*
X112623621Y-73325240D02*
X112585526Y-73134763D01*
X112585526Y-73134763D02*
X112585526Y-72982382D01*
X112585526Y-72982382D02*
X112623621Y-72791906D01*
X112623621Y-72791906D02*
X112661716Y-72677620D01*
X112661716Y-72677620D02*
X112699811Y-72601430D01*
X112699811Y-72601430D02*
X112776002Y-72487144D01*
X112776002Y-72487144D02*
X112814097Y-72449049D01*
X113385525Y-72944287D02*
X113499811Y-72982382D01*
X113499811Y-72982382D02*
X113537906Y-73020478D01*
X113537906Y-73020478D02*
X113576002Y-73096668D01*
X113576002Y-73096668D02*
X113576002Y-73210954D01*
X113576002Y-73210954D02*
X113537906Y-73287144D01*
X113537906Y-73287144D02*
X113499811Y-73325240D01*
X113499811Y-73325240D02*
X113423621Y-73363335D01*
X113423621Y-73363335D02*
X113118859Y-73363335D01*
X113118859Y-73363335D02*
X113118859Y-72563335D01*
X113118859Y-72563335D02*
X113385525Y-72563335D01*
X113385525Y-72563335D02*
X113461716Y-72601430D01*
X113461716Y-72601430D02*
X113499811Y-72639525D01*
X113499811Y-72639525D02*
X113537906Y-72715716D01*
X113537906Y-72715716D02*
X113537906Y-72791906D01*
X113537906Y-72791906D02*
X113499811Y-72868097D01*
X113499811Y-72868097D02*
X113461716Y-72906192D01*
X113461716Y-72906192D02*
X113385525Y-72944287D01*
X113385525Y-72944287D02*
X113118859Y-72944287D01*
X114299811Y-73363335D02*
X113918859Y-73363335D01*
X113918859Y-73363335D02*
X113918859Y-72563335D01*
X114566478Y-73363335D02*
X114566478Y-72563335D01*
X115023621Y-73363335D02*
X114680763Y-72906192D01*
X115023621Y-72563335D02*
X114566478Y-73020478D01*
X115290287Y-73668097D02*
X115328382Y-73630001D01*
X115328382Y-73630001D02*
X115404573Y-73515716D01*
X115404573Y-73515716D02*
X115442668Y-73439525D01*
X115442668Y-73439525D02*
X115480763Y-73325240D01*
X115480763Y-73325240D02*
X115518859Y-73134763D01*
X115518859Y-73134763D02*
X115518859Y-72982382D01*
X115518859Y-72982382D02*
X115480763Y-72791906D01*
X115480763Y-72791906D02*
X115442668Y-72677620D01*
X115442668Y-72677620D02*
X115404573Y-72601430D01*
X115404573Y-72601430D02*
X115328382Y-72487144D01*
X115328382Y-72487144D02*
X115290287Y-72449049D01*
X139319235Y-57563335D02*
X139814473Y-57563335D01*
X139814473Y-57563335D02*
X139547807Y-57868097D01*
X139547807Y-57868097D02*
X139662092Y-57868097D01*
X139662092Y-57868097D02*
X139738283Y-57906192D01*
X139738283Y-57906192D02*
X139776378Y-57944287D01*
X139776378Y-57944287D02*
X139814473Y-58020478D01*
X139814473Y-58020478D02*
X139814473Y-58210954D01*
X139814473Y-58210954D02*
X139776378Y-58287144D01*
X139776378Y-58287144D02*
X139738283Y-58325240D01*
X139738283Y-58325240D02*
X139662092Y-58363335D01*
X139662092Y-58363335D02*
X139433521Y-58363335D01*
X139433521Y-58363335D02*
X139357330Y-58325240D01*
X139357330Y-58325240D02*
X139319235Y-58287144D01*
X140043045Y-57563335D02*
X140309712Y-58363335D01*
X140309712Y-58363335D02*
X140576378Y-57563335D01*
X140766854Y-57563335D02*
X141262092Y-57563335D01*
X141262092Y-57563335D02*
X140995426Y-57868097D01*
X140995426Y-57868097D02*
X141109711Y-57868097D01*
X141109711Y-57868097D02*
X141185902Y-57906192D01*
X141185902Y-57906192D02*
X141223997Y-57944287D01*
X141223997Y-57944287D02*
X141262092Y-58020478D01*
X141262092Y-58020478D02*
X141262092Y-58210954D01*
X141262092Y-58210954D02*
X141223997Y-58287144D01*
X141223997Y-58287144D02*
X141185902Y-58325240D01*
X141185902Y-58325240D02*
X141109711Y-58363335D01*
X141109711Y-58363335D02*
X140881140Y-58363335D01*
X140881140Y-58363335D02*
X140804949Y-58325240D01*
X140804949Y-58325240D02*
X140766854Y-58287144D01*
X136881141Y-63668097D02*
X136843046Y-63630001D01*
X136843046Y-63630001D02*
X136766855Y-63515716D01*
X136766855Y-63515716D02*
X136728760Y-63439525D01*
X136728760Y-63439525D02*
X136690665Y-63325240D01*
X136690665Y-63325240D02*
X136652570Y-63134763D01*
X136652570Y-63134763D02*
X136652570Y-62982382D01*
X136652570Y-62982382D02*
X136690665Y-62791906D01*
X136690665Y-62791906D02*
X136728760Y-62677620D01*
X136728760Y-62677620D02*
X136766855Y-62601430D01*
X136766855Y-62601430D02*
X136843046Y-62487144D01*
X136843046Y-62487144D02*
X136881141Y-62449049D01*
X137528760Y-62830001D02*
X137528760Y-63363335D01*
X137338284Y-62525240D02*
X137147807Y-63096668D01*
X137147807Y-63096668D02*
X137643046Y-63096668D01*
X138062093Y-62906192D02*
X137985903Y-62868097D01*
X137985903Y-62868097D02*
X137947808Y-62830001D01*
X137947808Y-62830001D02*
X137909712Y-62753811D01*
X137909712Y-62753811D02*
X137909712Y-62715716D01*
X137909712Y-62715716D02*
X137947808Y-62639525D01*
X137947808Y-62639525D02*
X137985903Y-62601430D01*
X137985903Y-62601430D02*
X138062093Y-62563335D01*
X138062093Y-62563335D02*
X138214474Y-62563335D01*
X138214474Y-62563335D02*
X138290665Y-62601430D01*
X138290665Y-62601430D02*
X138328760Y-62639525D01*
X138328760Y-62639525D02*
X138366855Y-62715716D01*
X138366855Y-62715716D02*
X138366855Y-62753811D01*
X138366855Y-62753811D02*
X138328760Y-62830001D01*
X138328760Y-62830001D02*
X138290665Y-62868097D01*
X138290665Y-62868097D02*
X138214474Y-62906192D01*
X138214474Y-62906192D02*
X138062093Y-62906192D01*
X138062093Y-62906192D02*
X137985903Y-62944287D01*
X137985903Y-62944287D02*
X137947808Y-62982382D01*
X137947808Y-62982382D02*
X137909712Y-63058573D01*
X137909712Y-63058573D02*
X137909712Y-63210954D01*
X137909712Y-63210954D02*
X137947808Y-63287144D01*
X137947808Y-63287144D02*
X137985903Y-63325240D01*
X137985903Y-63325240D02*
X138062093Y-63363335D01*
X138062093Y-63363335D02*
X138214474Y-63363335D01*
X138214474Y-63363335D02*
X138290665Y-63325240D01*
X138290665Y-63325240D02*
X138328760Y-63287144D01*
X138328760Y-63287144D02*
X138366855Y-63210954D01*
X138366855Y-63210954D02*
X138366855Y-63058573D01*
X138366855Y-63058573D02*
X138328760Y-62982382D01*
X138328760Y-62982382D02*
X138290665Y-62944287D01*
X138290665Y-62944287D02*
X138214474Y-62906192D01*
X138633522Y-63668097D02*
X138671617Y-63630001D01*
X138671617Y-63630001D02*
X138747808Y-63515716D01*
X138747808Y-63515716D02*
X138785903Y-63439525D01*
X138785903Y-63439525D02*
X138823998Y-63325240D01*
X138823998Y-63325240D02*
X138862094Y-63134763D01*
X138862094Y-63134763D02*
X138862094Y-62982382D01*
X138862094Y-62982382D02*
X138823998Y-62791906D01*
X138823998Y-62791906D02*
X138785903Y-62677620D01*
X138785903Y-62677620D02*
X138747808Y-62601430D01*
X138747808Y-62601430D02*
X138671617Y-62487144D01*
X138671617Y-62487144D02*
X138633522Y-62449049D01*
X139738284Y-62563335D02*
X140004951Y-63363335D01*
X140004951Y-63363335D02*
X140271617Y-62563335D01*
X140538284Y-63363335D02*
X140538284Y-62563335D01*
X140881140Y-63134763D02*
X141262093Y-63134763D01*
X140804950Y-63363335D02*
X141071617Y-62563335D01*
X141071617Y-62563335D02*
X141338283Y-63363335D01*
X136309712Y-68668097D02*
X136271617Y-68630001D01*
X136271617Y-68630001D02*
X136195426Y-68515716D01*
X136195426Y-68515716D02*
X136157331Y-68439525D01*
X136157331Y-68439525D02*
X136119236Y-68325240D01*
X136119236Y-68325240D02*
X136081141Y-68134763D01*
X136081141Y-68134763D02*
X136081141Y-67982382D01*
X136081141Y-67982382D02*
X136119236Y-67791906D01*
X136119236Y-67791906D02*
X136157331Y-67677620D01*
X136157331Y-67677620D02*
X136195426Y-67601430D01*
X136195426Y-67601430D02*
X136271617Y-67487144D01*
X136271617Y-67487144D02*
X136309712Y-67449049D01*
X136957331Y-67830001D02*
X136957331Y-68363335D01*
X136766855Y-67525240D02*
X136576378Y-68096668D01*
X136576378Y-68096668D02*
X137071617Y-68096668D01*
X137300188Y-67563335D02*
X137833522Y-67563335D01*
X137833522Y-67563335D02*
X137490664Y-68363335D01*
X138062093Y-68668097D02*
X138100188Y-68630001D01*
X138100188Y-68630001D02*
X138176379Y-68515716D01*
X138176379Y-68515716D02*
X138214474Y-68439525D01*
X138214474Y-68439525D02*
X138252569Y-68325240D01*
X138252569Y-68325240D02*
X138290665Y-68134763D01*
X138290665Y-68134763D02*
X138290665Y-67982382D01*
X138290665Y-67982382D02*
X138252569Y-67791906D01*
X138252569Y-67791906D02*
X138214474Y-67677620D01*
X138214474Y-67677620D02*
X138176379Y-67601430D01*
X138176379Y-67601430D02*
X138100188Y-67487144D01*
X138100188Y-67487144D02*
X138062093Y-67449049D01*
X139166855Y-67563335D02*
X139433522Y-68363335D01*
X139433522Y-68363335D02*
X139700188Y-67563335D01*
X140119236Y-67563335D02*
X140271617Y-67563335D01*
X140271617Y-67563335D02*
X140347807Y-67601430D01*
X140347807Y-67601430D02*
X140423998Y-67677620D01*
X140423998Y-67677620D02*
X140462093Y-67830001D01*
X140462093Y-67830001D02*
X140462093Y-68096668D01*
X140462093Y-68096668D02*
X140423998Y-68249049D01*
X140423998Y-68249049D02*
X140347807Y-68325240D01*
X140347807Y-68325240D02*
X140271617Y-68363335D01*
X140271617Y-68363335D02*
X140119236Y-68363335D01*
X140119236Y-68363335D02*
X140043045Y-68325240D01*
X140043045Y-68325240D02*
X139966855Y-68249049D01*
X139966855Y-68249049D02*
X139928759Y-68096668D01*
X139928759Y-68096668D02*
X139928759Y-67830001D01*
X139928759Y-67830001D02*
X139966855Y-67677620D01*
X139966855Y-67677620D02*
X140043045Y-67601430D01*
X140043045Y-67601430D02*
X140119236Y-67563335D01*
X141071616Y-67944287D02*
X141185902Y-67982382D01*
X141185902Y-67982382D02*
X141223997Y-68020478D01*
X141223997Y-68020478D02*
X141262093Y-68096668D01*
X141262093Y-68096668D02*
X141262093Y-68210954D01*
X141262093Y-68210954D02*
X141223997Y-68287144D01*
X141223997Y-68287144D02*
X141185902Y-68325240D01*
X141185902Y-68325240D02*
X141109712Y-68363335D01*
X141109712Y-68363335D02*
X140804950Y-68363335D01*
X140804950Y-68363335D02*
X140804950Y-67563335D01*
X140804950Y-67563335D02*
X141071616Y-67563335D01*
X141071616Y-67563335D02*
X141147807Y-67601430D01*
X141147807Y-67601430D02*
X141185902Y-67639525D01*
X141185902Y-67639525D02*
X141223997Y-67715716D01*
X141223997Y-67715716D02*
X141223997Y-67791906D01*
X141223997Y-67791906D02*
X141185902Y-67868097D01*
X141185902Y-67868097D02*
X141147807Y-67906192D01*
X141147807Y-67906192D02*
X141071616Y-67944287D01*
X141071616Y-67944287D02*
X140804950Y-67944287D01*
X138823997Y-72601430D02*
X138747807Y-72563335D01*
X138747807Y-72563335D02*
X138633521Y-72563335D01*
X138633521Y-72563335D02*
X138519235Y-72601430D01*
X138519235Y-72601430D02*
X138443045Y-72677620D01*
X138443045Y-72677620D02*
X138404950Y-72753811D01*
X138404950Y-72753811D02*
X138366854Y-72906192D01*
X138366854Y-72906192D02*
X138366854Y-73020478D01*
X138366854Y-73020478D02*
X138404950Y-73172859D01*
X138404950Y-73172859D02*
X138443045Y-73249049D01*
X138443045Y-73249049D02*
X138519235Y-73325240D01*
X138519235Y-73325240D02*
X138633521Y-73363335D01*
X138633521Y-73363335D02*
X138709712Y-73363335D01*
X138709712Y-73363335D02*
X138823997Y-73325240D01*
X138823997Y-73325240D02*
X138862093Y-73287144D01*
X138862093Y-73287144D02*
X138862093Y-73020478D01*
X138862093Y-73020478D02*
X138709712Y-73020478D01*
X139204950Y-73363335D02*
X139204950Y-72563335D01*
X139204950Y-72563335D02*
X139662093Y-73363335D01*
X139662093Y-73363335D02*
X139662093Y-72563335D01*
X140043045Y-73363335D02*
X140043045Y-72563335D01*
X140043045Y-72563335D02*
X140233521Y-72563335D01*
X140233521Y-72563335D02*
X140347807Y-72601430D01*
X140347807Y-72601430D02*
X140423997Y-72677620D01*
X140423997Y-72677620D02*
X140462092Y-72753811D01*
X140462092Y-72753811D02*
X140500188Y-72906192D01*
X140500188Y-72906192D02*
X140500188Y-73020478D01*
X140500188Y-73020478D02*
X140462092Y-73172859D01*
X140462092Y-73172859D02*
X140423997Y-73249049D01*
X140423997Y-73249049D02*
X140347807Y-73325240D01*
X140347807Y-73325240D02*
X140233521Y-73363335D01*
X140233521Y-73363335D02*
X140043045Y-73363335D01*
X140804949Y-72639525D02*
X140843045Y-72601430D01*
X140843045Y-72601430D02*
X140919235Y-72563335D01*
X140919235Y-72563335D02*
X141109711Y-72563335D01*
X141109711Y-72563335D02*
X141185902Y-72601430D01*
X141185902Y-72601430D02*
X141223997Y-72639525D01*
X141223997Y-72639525D02*
X141262092Y-72715716D01*
X141262092Y-72715716D02*
X141262092Y-72791906D01*
X141262092Y-72791906D02*
X141223997Y-72906192D01*
X141223997Y-72906192D02*
X140766854Y-73363335D01*
X140766854Y-73363335D02*
X141262092Y-73363335D01*
D16*
X124314285Y-58508557D02*
X124314285Y-59237128D01*
X124314285Y-59237128D02*
X124357142Y-59322842D01*
X124357142Y-59322842D02*
X124400000Y-59365700D01*
X124400000Y-59365700D02*
X124485714Y-59408557D01*
X124485714Y-59408557D02*
X124657142Y-59408557D01*
X124657142Y-59408557D02*
X124742857Y-59365700D01*
X124742857Y-59365700D02*
X124785714Y-59322842D01*
X124785714Y-59322842D02*
X124828571Y-59237128D01*
X124828571Y-59237128D02*
X124828571Y-58508557D01*
X125728571Y-59408557D02*
X125214285Y-59408557D01*
X125471428Y-59408557D02*
X125471428Y-58508557D01*
X125471428Y-58508557D02*
X125385714Y-58637128D01*
X125385714Y-58637128D02*
X125299999Y-58722842D01*
X125299999Y-58722842D02*
X125214285Y-58765700D01*
X106754285Y-55008557D02*
X106754285Y-55737128D01*
X106754285Y-55737128D02*
X106797142Y-55822842D01*
X106797142Y-55822842D02*
X106840000Y-55865700D01*
X106840000Y-55865700D02*
X106925714Y-55908557D01*
X106925714Y-55908557D02*
X107097142Y-55908557D01*
X107097142Y-55908557D02*
X107182857Y-55865700D01*
X107182857Y-55865700D02*
X107225714Y-55822842D01*
X107225714Y-55822842D02*
X107268571Y-55737128D01*
X107268571Y-55737128D02*
X107268571Y-55008557D01*
X107654285Y-55094271D02*
X107697142Y-55051414D01*
X107697142Y-55051414D02*
X107782857Y-55008557D01*
X107782857Y-55008557D02*
X107997142Y-55008557D01*
X107997142Y-55008557D02*
X108082857Y-55051414D01*
X108082857Y-55051414D02*
X108125714Y-55094271D01*
X108125714Y-55094271D02*
X108168571Y-55179985D01*
X108168571Y-55179985D02*
X108168571Y-55265700D01*
X108168571Y-55265700D02*
X108125714Y-55394271D01*
X108125714Y-55394271D02*
X107611428Y-55908557D01*
X107611428Y-55908557D02*
X108168571Y-55908557D01*
X110260000Y-59822842D02*
X110217143Y-59865700D01*
X110217143Y-59865700D02*
X110088571Y-59908557D01*
X110088571Y-59908557D02*
X110002857Y-59908557D01*
X110002857Y-59908557D02*
X109874286Y-59865700D01*
X109874286Y-59865700D02*
X109788571Y-59779985D01*
X109788571Y-59779985D02*
X109745714Y-59694271D01*
X109745714Y-59694271D02*
X109702857Y-59522842D01*
X109702857Y-59522842D02*
X109702857Y-59394271D01*
X109702857Y-59394271D02*
X109745714Y-59222842D01*
X109745714Y-59222842D02*
X109788571Y-59137128D01*
X109788571Y-59137128D02*
X109874286Y-59051414D01*
X109874286Y-59051414D02*
X110002857Y-59008557D01*
X110002857Y-59008557D02*
X110088571Y-59008557D01*
X110088571Y-59008557D02*
X110217143Y-59051414D01*
X110217143Y-59051414D02*
X110260000Y-59094271D01*
X111117143Y-59908557D02*
X110602857Y-59908557D01*
X110860000Y-59908557D02*
X110860000Y-59008557D01*
X110860000Y-59008557D02*
X110774286Y-59137128D01*
X110774286Y-59137128D02*
X110688571Y-59222842D01*
X110688571Y-59222842D02*
X110602857Y-59265700D01*
X121550000Y-59592842D02*
X121507143Y-59635700D01*
X121507143Y-59635700D02*
X121378571Y-59678557D01*
X121378571Y-59678557D02*
X121292857Y-59678557D01*
X121292857Y-59678557D02*
X121164286Y-59635700D01*
X121164286Y-59635700D02*
X121078571Y-59549985D01*
X121078571Y-59549985D02*
X121035714Y-59464271D01*
X121035714Y-59464271D02*
X120992857Y-59292842D01*
X120992857Y-59292842D02*
X120992857Y-59164271D01*
X120992857Y-59164271D02*
X121035714Y-58992842D01*
X121035714Y-58992842D02*
X121078571Y-58907128D01*
X121078571Y-58907128D02*
X121164286Y-58821414D01*
X121164286Y-58821414D02*
X121292857Y-58778557D01*
X121292857Y-58778557D02*
X121378571Y-58778557D01*
X121378571Y-58778557D02*
X121507143Y-58821414D01*
X121507143Y-58821414D02*
X121550000Y-58864271D01*
X121892857Y-58864271D02*
X121935714Y-58821414D01*
X121935714Y-58821414D02*
X122021429Y-58778557D01*
X122021429Y-58778557D02*
X122235714Y-58778557D01*
X122235714Y-58778557D02*
X122321429Y-58821414D01*
X122321429Y-58821414D02*
X122364286Y-58864271D01*
X122364286Y-58864271D02*
X122407143Y-58949985D01*
X122407143Y-58949985D02*
X122407143Y-59035700D01*
X122407143Y-59035700D02*
X122364286Y-59164271D01*
X122364286Y-59164271D02*
X121850000Y-59678557D01*
X121850000Y-59678557D02*
X122407143Y-59678557D01*
X128650000Y-59592842D02*
X128607143Y-59635700D01*
X128607143Y-59635700D02*
X128478571Y-59678557D01*
X128478571Y-59678557D02*
X128392857Y-59678557D01*
X128392857Y-59678557D02*
X128264286Y-59635700D01*
X128264286Y-59635700D02*
X128178571Y-59549985D01*
X128178571Y-59549985D02*
X128135714Y-59464271D01*
X128135714Y-59464271D02*
X128092857Y-59292842D01*
X128092857Y-59292842D02*
X128092857Y-59164271D01*
X128092857Y-59164271D02*
X128135714Y-58992842D01*
X128135714Y-58992842D02*
X128178571Y-58907128D01*
X128178571Y-58907128D02*
X128264286Y-58821414D01*
X128264286Y-58821414D02*
X128392857Y-58778557D01*
X128392857Y-58778557D02*
X128478571Y-58778557D01*
X128478571Y-58778557D02*
X128607143Y-58821414D01*
X128607143Y-58821414D02*
X128650000Y-58864271D01*
X128950000Y-58778557D02*
X129507143Y-58778557D01*
X129507143Y-58778557D02*
X129207143Y-59121414D01*
X129207143Y-59121414D02*
X129335714Y-59121414D01*
X129335714Y-59121414D02*
X129421429Y-59164271D01*
X129421429Y-59164271D02*
X129464286Y-59207128D01*
X129464286Y-59207128D02*
X129507143Y-59292842D01*
X129507143Y-59292842D02*
X129507143Y-59507128D01*
X129507143Y-59507128D02*
X129464286Y-59592842D01*
X129464286Y-59592842D02*
X129421429Y-59635700D01*
X129421429Y-59635700D02*
X129335714Y-59678557D01*
X129335714Y-59678557D02*
X129078571Y-59678557D01*
X129078571Y-59678557D02*
X128992857Y-59635700D01*
X128992857Y-59635700D02*
X128950000Y-59592842D01*
X117040000Y-74708557D02*
X116740000Y-74279985D01*
X116525714Y-74708557D02*
X116525714Y-73808557D01*
X116525714Y-73808557D02*
X116868571Y-73808557D01*
X116868571Y-73808557D02*
X116954286Y-73851414D01*
X116954286Y-73851414D02*
X116997143Y-73894271D01*
X116997143Y-73894271D02*
X117040000Y-73979985D01*
X117040000Y-73979985D02*
X117040000Y-74108557D01*
X117040000Y-74108557D02*
X116997143Y-74194271D01*
X116997143Y-74194271D02*
X116954286Y-74237128D01*
X116954286Y-74237128D02*
X116868571Y-74279985D01*
X116868571Y-74279985D02*
X116525714Y-74279985D01*
X117897143Y-74708557D02*
X117382857Y-74708557D01*
X117640000Y-74708557D02*
X117640000Y-73808557D01*
X117640000Y-73808557D02*
X117554286Y-73937128D01*
X117554286Y-73937128D02*
X117468571Y-74022842D01*
X117468571Y-74022842D02*
X117382857Y-74065700D01*
X106015714Y-76908557D02*
X106015714Y-76008557D01*
X106015714Y-76008557D02*
X106230000Y-76008557D01*
X106230000Y-76008557D02*
X106358571Y-76051414D01*
X106358571Y-76051414D02*
X106444286Y-76137128D01*
X106444286Y-76137128D02*
X106487143Y-76222842D01*
X106487143Y-76222842D02*
X106530000Y-76394271D01*
X106530000Y-76394271D02*
X106530000Y-76522842D01*
X106530000Y-76522842D02*
X106487143Y-76694271D01*
X106487143Y-76694271D02*
X106444286Y-76779985D01*
X106444286Y-76779985D02*
X106358571Y-76865700D01*
X106358571Y-76865700D02*
X106230000Y-76908557D01*
X106230000Y-76908557D02*
X106015714Y-76908557D01*
X107387143Y-76908557D02*
X106872857Y-76908557D01*
X107130000Y-76908557D02*
X107130000Y-76008557D01*
X107130000Y-76008557D02*
X107044286Y-76137128D01*
X107044286Y-76137128D02*
X106958571Y-76222842D01*
X106958571Y-76222842D02*
X106872857Y-76265700D01*
%TO.C,U1*%
D17*
X123050000Y-60550000D02*
X126950000Y-60550000D01*
X126950000Y-60550000D02*
X126950000Y-65450000D01*
X126950000Y-65450000D02*
X123050000Y-65450000D01*
X123050000Y-65450000D02*
X123050000Y-60550000D01*
X123050000Y-61400000D02*
X123900000Y-60550000D01*
%TO.C,U2*%
X109740000Y-56900000D02*
X114340000Y-56900000D01*
X109740000Y-56900000D02*
X109740000Y-55700000D01*
X114340000Y-56900000D02*
X114340000Y-55700000D01*
X109740000Y-55700000D02*
X114340000Y-55700000D01*
%TO.C,C1*%
X112410000Y-58500000D02*
X114210000Y-58500000D01*
X114210000Y-58500000D02*
X114210000Y-60500000D01*
X114210000Y-60500000D02*
X112410000Y-60500000D01*
X112410000Y-60500000D02*
X112410000Y-58500000D01*
%TO.C,C2*%
X118500000Y-58370000D02*
X120500000Y-58370000D01*
X120500000Y-58370000D02*
X120500000Y-60170000D01*
X120500000Y-60170000D02*
X118500000Y-60170000D01*
X118500000Y-60170000D02*
X118500000Y-58370000D01*
%TO.C,C3*%
X130000000Y-58370000D02*
X132000000Y-58370000D01*
X132000000Y-58370000D02*
X132000000Y-60170000D01*
X132000000Y-60170000D02*
X130000000Y-60170000D01*
X130000000Y-60170000D02*
X130000000Y-58370000D01*
%TO.C,R1*%
X114690000Y-75700000D02*
X119690000Y-75700000D01*
X119690000Y-75700000D02*
X119690000Y-77300000D01*
X119690000Y-77300000D02*
X114690000Y-77300000D01*
X114690000Y-77300000D02*
X114690000Y-75700000D01*
%TO.C,D1*%
X108180000Y-75500000D02*
X108180000Y-77500000D01*
%TD*%
M02*
