M48
; DRILL file KiCad 10.0.3 date 2026-08-03T16:50:25
; FORMAT={-:-/ absolute / metric / decimal}
; #@! TF.CreationDate,2026-08-03T16:50:25-07:00
; #@! TF.GenerationSoftware,Kicad,Pcbnew,10.0.3
; #@! TF.FileFunction,MixedPlating,1,2
FMAT,2
METRIC
; #@! TA.AperFunction,Plated,PTH,ViaDrill
T1C0.400
; #@! TA.AperFunction,Plated,PTH,ComponentDrill
T2C0.800
; #@! TA.AperFunction,Plated,PTH,ComponentDrill
T3C0.900
; #@! TA.AperFunction,Plated,PTH,ComponentDrill
T4C1.100
; #@! TA.AperFunction,Plated,PTH,ComponentDrill
T5C1.300
; #@! TA.AperFunction,NonPlated,NPTH,ComponentDrill
T6C3.200
%
G90
G05
T1
X120.6Y-62.365
X120.6Y-63.635
T2
X112.04Y-59.5
X113.38Y-76.5
X114.58Y-59.5
X119.5Y-58.0
X119.5Y-60.54
X121.0Y-76.5
X131.0Y-58.0
X131.0Y-60.54
T3
X108.96Y-76.5
X111.5Y-76.5
T4
X109.5Y-55.5
X112.04Y-55.5
X114.58Y-55.5
T5
X105.5Y-58.0
X105.5Y-63.0
X105.5Y-68.0
X105.5Y-73.0
X144.5Y-58.0
X144.5Y-63.0
X144.5Y-68.0
X144.5Y-73.0
T6
X103.5Y-53.5
X103.5Y-78.5
X146.5Y-53.5
X146.5Y-78.5
M30
