<svg version="1.1" id="Layer_1" xmlns="http://www.w3.org/2000/svg" xmlns:xlink="http://www.w3.org/1999/xlink" x="0px" y="0px"
	 width="100%" viewBox="0 0 1024 544" enable-background="new 0 0 1024 544" xml:space="preserve">
<path fill="#000000" opacity="1.000000" stroke="none" 
	d="
M482.713684,386.572815 
	C486.409760,395.356812 479.929108,405.227173 471.111389,404.930420 
	C466.538055,404.776520 460.963013,413.836548 462.853455,418.414246 
	C463.842834,420.810059 466.076599,423.121002 464.143768,425.823883 
	C461.246460,429.875580 458.109650,433.842896 453.506012,436.079865 
	C451.576996,437.017242 449.682556,435.731995 447.873749,434.802002 
	C442.363159,431.968597 432.633087,437.849457 433.407288,443.983337 
	C434.503754,452.670654 427.372650,452.690002 422.641602,455.235474 
	C418.434235,457.499115 415.290558,456.146912 412.388214,452.307373 
	C409.218445,448.114014 397.291870,450.656006 396.123260,455.744171 
	C394.939392,460.898712 391.834839,462.446167 387.100098,462.245972 
	C385.271362,462.168610 383.436371,462.245514 381.604218,462.243561 
	C377.625366,462.239288 374.691376,460.638519 374.073181,456.478729 
	C373.129028,450.125824 367.486115,452.051361 363.870544,450.572144 
	C361.017273,449.404846 358.334412,450.242157 356.622406,453.200836 
	C354.554993,456.773865 351.435089,456.995178 347.973236,455.602386 
	C345.658051,454.670898 343.410248,453.573395 341.110352,452.602142 
	C337.763702,451.188812 336.525024,448.776611 336.676697,445.104156 
	C336.995056,437.395111 328.308716,431.849701 321.556549,435.337189 
	C318.510651,436.910370 315.856262,436.838196 313.393188,434.314270 
	C311.648499,432.526398 309.884613,430.755371 308.079803,429.028503 
	C305.035828,426.115967 304.449036,423.117584 306.663422,419.227814 
	C309.754089,413.798737 304.077484,404.747375 297.828766,405.289673 
	C292.681213,405.736450 290.019470,403.537811 288.492859,399.051758 
	C287.903625,397.320343 287.232697,395.609802 286.485748,393.940399 
	C284.886566,390.366394 285.838013,387.620544 288.750336,385.105988 
	C293.920990,380.641418 292.278656,370.601501 285.841187,368.600250 
	C279.822174,366.729065 279.872375,362.261139 279.847015,357.485107 
	C279.821320,352.646423 279.982361,348.291534 286.067535,346.588959 
	C291.997406,344.929871 293.852966,334.176758 288.984192,330.254059 
	C285.313110,327.296326 285.053986,323.974854 286.580627,320.050659 
	C287.243683,318.346344 288.171295,316.742615 288.799286,315.027435 
	C290.262573,311.030914 292.936066,309.492981 297.259216,309.698273 
	C304.224548,310.029022 309.511200,301.656708 306.196320,295.645691 
	C304.396271,292.381561 304.538818,289.637878 307.020844,287.008667 
	C308.960785,284.953705 311.061768,283.051483 313.023743,281.016388 
	C315.482269,278.466217 318.028412,278.414734 321.130249,280.009827 
	C327.344513,283.205566 337.161987,277.277069 336.544586,270.372345 
	C335.827148,262.348633 342.221558,262.107971 346.802887,259.744659 
	C351.059845,257.548706 354.513336,258.507477 357.034454,262.625854 
	C358.241394,264.597321 360.024445,265.130432 362.198822,264.706451 
	C364.646698,264.229156 367.092865,263.741669 369.546051,263.293030 
	C372.110077,262.824158 373.719940,261.505066 374.090271,258.770233 
	C374.704437,254.235077 377.829712,252.825775 381.916504,252.771362 
	C384.081268,252.742538 386.247772,252.826324 388.412048,252.784668 
	C392.223846,252.711319 394.917725,254.136246 395.600372,258.159058 
	C396.146545,261.377289 397.968628,263.468933 401.193085,263.444214 
	C405.295105,263.412750 410.030975,267.207855 413.377777,261.587616 
	C415.454956,258.099548 418.557587,257.811707 422.061340,259.346008 
	C424.043579,260.214050 426.057465,261.012451 428.073730,261.799530 
	C431.708313,263.218323 433.533661,265.526855 433.406830,269.756195 
	C433.169708,277.661407 442.091309,283.283905 449.198425,279.811859 
	C452.223083,278.334198 454.591644,278.671631 456.859802,280.975800 
	C458.729095,282.874756 460.629517,284.743408 462.482422,286.658112 
	C464.953766,289.211914 465.407745,291.863098 463.720673,295.246368 
	C460.538269,301.628387 465.866852,310.015900 472.923187,309.736237 
	C477.068878,309.571960 479.578827,311.130005 480.920624,314.940979 
	C481.694061,317.137756 482.527313,319.316864 483.425110,321.465698 
	C484.823517,324.812714 484.214386,327.363495 481.294189,329.813080 
	C475.841553,334.386963 477.923615,344.667786 484.627563,346.935913 
	C487.646393,347.957245 489.487366,349.621338 489.360046,353.052460 
	C489.242767,356.212708 489.285645,359.380798 489.327789,362.544525 
	C489.366577,365.456116 487.871246,367.136292 485.265747,368.152222 
	C477.086578,371.341339 475.632935,380.815735 482.713684,386.572815 
M345.053741,321.565765 
	C330.972931,338.279327 326.893250,357.050385 335.291016,377.380676 
	C343.783661,397.940613 359.654419,409.719971 382.060577,410.859802 
	C405.134216,412.033600 422.426361,401.559967 432.708527,381.087463 
	C443.183167,360.231628 440.067200,340.147400 425.202423,322.443054 
	C404.903900,298.266907 368.547516,297.880035 345.053741,321.565765 
z"/>
<path fill="#000000" opacity="1.000000" stroke="none" 
	d="
M419.613312,195.527023 
	C422.556122,206.865524 425.503113,217.790634 428.137238,228.790695 
	C428.927216,232.089584 430.718140,233.759781 433.624908,235.241852 
	C440.327240,238.659164 447.221008,240.278122 454.771942,239.747070 
	C460.078552,239.373871 465.433472,239.669296 470.766663,239.698090 
	C475.581665,239.724091 479.133636,241.916931 481.030640,246.317917 
	C482.984100,250.850052 482.463074,255.340088 478.860901,258.769714 
	C476.253876,261.251862 476.482727,262.808746 478.803864,265.256317 
	C488.130707,275.091339 496.253906,285.837524 502.304138,298.028564 
	C503.362854,300.161804 504.878265,300.828033 507.088043,300.793488 
	C511.420135,300.725739 515.758118,300.896942 520.086304,300.750488 
	C524.370850,300.605499 524.262573,303.362335 524.358093,306.385132 
	C524.460754,309.631714 523.564636,311.460083 519.905457,311.274445 
	C516.306458,311.091888 512.690918,311.234619 508.934692,311.234619 
	C508.822754,315.959076 510.325623,318.211151 514.726257,318.007446 
	C518.218811,317.845764 521.745178,317.727997 525.219543,318.024048 
	C530.049866,318.435699 531.219238,316.142822 531.030823,311.797394 
	C530.617737,302.271149 532.776306,292.399841 526.062073,284.409698 
	C528.328735,282.115784 530.262451,282.762543 531.995239,282.760986 
	C563.328552,282.732880 594.668518,283.142670 625.992249,282.601135 
	C641.275513,282.336914 651.061096,288.075439 654.126404,305.778473 
	C655.203125,311.997131 656.447754,318.200226 657.965393,324.323761 
	C658.830017,327.812073 657.853333,328.993256 654.363647,329.598907 
	C632.072815,333.467682 614.951111,345.071228 603.355164,364.559998 
	C601.748596,367.260071 599.524292,367.324188 596.974121,367.323608 
	C566.474121,367.316467 535.973694,367.248749 505.474670,367.422638 
	C500.839722,367.449036 499.777008,365.557587 499.972015,361.443848 
	C500.740173,345.241089 498.014191,329.639740 491.905823,314.568817 
	C479.982880,285.151978 459.640900,263.659424 430.395813,251.608856 
	C388.769653,234.456635 349.556915,240.021210 313.503113,266.949341 
	C306.554504,272.139191 300.609222,278.506592 295.095398,285.227081 
	C294.145111,286.385315 293.260742,287.608459 292.221008,288.680511 
	C288.101318,292.928345 284.134064,293.365051 280.408203,290.054199 
	C277.075348,287.092560 276.829956,282.619720 280.049866,278.383026 
	C303.409607,247.646591 334.474274,230.718506 372.743561,226.571701 
	C381.080536,225.668320 389.340393,225.582870 397.652618,226.592209 
	C399.564819,226.824402 401.606873,227.326477 404.028748,226.074051 
	C403.339142,219.103241 400.784515,212.394165 399.460388,205.446548 
	C398.869812,202.347946 397.925903,199.275284 397.721405,196.152924 
	C397.268799,189.242432 400.170258,185.372299 406.273590,184.065872 
	C411.664398,182.911987 416.770844,186.172791 418.917480,192.207108 
	C419.248169,193.136673 419.310913,194.161560 419.613312,195.527023 
z"/>
<path fill="#000000" opacity="1.000000" stroke="none" 
	d="
M496.914368,220.010132 
	C494.462494,222.506058 492.281464,224.797195 490.114777,227.101837 
	C486.872803,230.550217 483.124390,231.280136 480.510071,228.695419 
	C477.290466,225.512161 478.414124,222.267059 481.084656,219.454605 
	C489.801666,210.274155 498.578094,201.149094 507.419250,192.088181 
	C509.979462,189.464340 513.156738,188.121017 516.173645,191.198166 
	C519.193237,194.278107 518.260681,197.451492 515.558838,200.481842 
	C512.832031,203.540237 507.717804,205.738342 507.968201,209.846390 
	C508.209137,213.798508 513.347595,215.790710 516.030212,218.931061 
	C517.107178,220.191788 518.365540,221.304703 519.594543,222.426514 
	C521.068420,223.771835 522.739502,223.909317 523.939514,222.266846 
	C530.572388,213.188065 539.840149,215.012680 548.987427,215.971664 
	C570.985901,218.278000 592.995239,220.480057 614.997925,222.746063 
	C636.339600,224.943970 657.679932,227.155533 679.017761,229.390366 
	C685.632874,230.083206 692.228394,230.973816 698.849487,231.597488 
	C720.072510,233.596634 732.202393,248.689301 729.029907,269.774506 
	C725.294800,294.598145 721.229187,319.372040 717.308899,344.167786 
	C717.103821,345.465057 717.153809,346.865021 715.775818,347.737000 
	C713.724548,347.842682 712.609314,346.160736 711.212952,345.104034 
	C699.702942,336.394043 687.173523,330.215881 672.502014,329.241241 
	C669.657349,329.052246 668.150635,327.812225 667.545532,324.745575 
	C665.839539,316.098816 663.829956,307.507996 661.772705,298.935272 
	C657.782593,282.308533 646.515198,273.363586 629.538818,273.347900 
	C595.549744,273.316528 561.559937,273.242249 527.572388,273.469635 
	C522.416931,273.504150 519.286133,272.272827 517.237671,267.261200 
	C515.106934,262.048218 512.044861,257.209137 509.304474,252.253891 
	C506.324249,246.864960 506.422791,241.596512 510.462311,236.945999 
	C512.937073,234.096954 512.542480,232.102448 510.052643,229.783569 
	C507.005554,226.945786 504.083191,223.974457 501.078735,221.090210 
	C500.007538,220.061905 498.946106,218.837265 496.914368,220.010132 
M697.172241,276.590912 
	C697.020569,280.965790 697.438538,285.252411 699.476807,289.210358 
	C701.544312,293.225098 704.426208,293.508118 706.331787,289.532806 
	C710.049927,281.776184 709.924561,273.683197 706.447571,265.894470 
	C704.730957,262.049225 701.425903,262.266022 699.358215,266.055389 
	C697.736755,269.027100 697.188110,272.314270 697.172241,276.590912 
z"/>
<path fill="#000000" opacity="1.000000" stroke="none" 
	d="
M603.115479,395.431671 
	C606.593262,366.893341 621.850342,348.575439 648.888855,340.457611 
	C683.456909,330.079193 720.377869,353.635437 726.529358,389.225006 
	C733.732483,430.898865 700.653381,462.911316 663.655884,462.261658 
	C632.989685,461.723145 606.906921,437.921814 603.522400,407.317139 
	C603.099976,403.497498 602.602661,399.718597 603.115479,395.431671 
M632.368103,412.056976 
	C639.952454,430.734924 659.492615,439.649567 677.740173,432.756683 
	C694.964661,426.250275 704.691772,406.165894 698.650452,389.581543 
	C691.593628,370.209503 672.808228,360.550446 654.413513,366.835693 
	C635.530151,373.287933 626.081238,392.161743 632.368103,412.056976 
z"/>
<path fill="#000000" opacity="1.000000" stroke="none" 
	d="
M375.846771,335.514984 
	C389.107971,331.029510 401.065063,335.809326 406.303864,347.400024 
	C411.386658,358.645508 407.513062,371.936157 397.388306,377.990112 
	C385.493225,385.102509 370.057312,380.965698 363.870972,369.007385 
	C357.193207,356.099091 362.193481,341.727631 375.846771,335.514984 
z"/>
<path fill="#000000" opacity="1.000000" stroke="none" 
	d="
M657.160645,386.864380 
	C666.985901,382.431458 676.069519,385.494629 679.582092,394.122437 
	C682.940552,402.371918 678.976562,411.613708 670.810486,414.572845 
	C663.534241,417.209534 655.434021,414.298279 651.844543,407.756470 
	C647.868042,400.509338 649.710388,392.841003 657.160645,386.864380 
z"/>
</svg>